<?xml version="1.0" encoding="UTF-8" standalone="no"?>
<!-- Created with Inkscape (http://www.inkscape.org/) -->

<svg
   xmlns:dc="http://purl.org/dc/elements/1.1/"
   xmlns:cc="http://creativecommons.org/ns#"
   xmlns:rdf="http://www.w3.org/1999/02/22-rdf-syntax-ns#"
   xmlns:svg="http://www.w3.org/2000/svg"
   xmlns="http://www.w3.org/2000/svg"
   xmlns:sodipodi="http://sodipodi.sourceforge.net/DTD/sodipodi-0.dtd"
   xmlns:inkscape="http://www.inkscape.org/namespaces/inkscape"
   width="40mm"
   height="30mm"
   viewBox="0 0 40 30"
   version="1.1"
   id="svg8"
   inkscape:version="0.92.3 (2405546, 2018-03-11)"
   sodipodi:docname="array.svg">
  <defs
     id="defs2" />
  <sodipodi:namedview
     id="base"
     pagecolor="#ffffff"
     bordercolor="#666666"
     borderopacity="1.0"
     inkscape:pageopacity="0.0"
     inkscape:pageshadow="2"
     inkscape:zoom="3.8166146"
     inkscape:cx="70.237451"
     inkscape:cy="43.378096"
     inkscape:document-units="mm"
     inkscape:current-layer="layer1"
     showgrid="true"
     inkscape:window-width="1366"
     inkscape:window-height="768"
     inkscape:window-x="0"
     inkscape:window-y="0"
     inkscape:window-maximized="1">
    <inkscape:grid
       type="xygrid"
       id="grid10"
       units="mm"
       spacingx="5.0000001"
       spacingy="5.0000001" />
  </sodipodi:namedview>
  <metadata
     id="metadata5">
    <rdf:RDF>
      <cc:Work
         rdf:about="">
        <dc:format>image/svg+xml</dc:format>
        <dc:type
           rdf:resource="http://purl.org/dc/dcmitype/StillImage" />
        <dc:title></dc:title>
      </cc:Work>
    </rdf:RDF>
  </metadata>
  <g
     inkscape:label="Layer 1"
     inkscape:groupmode="layer"
     id="layer1"
     transform="translate(0,-267)">
    <path
       style="fill:#6a5acd;fill-opacity:0.78431373;stroke:none;stroke-width:0.03705414;stroke-linecap:round;stroke-linejoin:bevel;stroke-miterlimit:4;stroke-dasharray:none;stroke-dashoffset:0;stroke-opacity:0.55825243;paint-order:markers stroke fill"
       d="m -10,287 v -2.35294 h 2.3039178 2.3039182 V 287 289.35294 H -7.6960822 -10 Z"
       id="path7146"
       inkscape:connector-curvature="0" />
    <path
       style="fill:#ffa500;fill-opacity:0.78431373;stroke:none;stroke-width:0.03705414;stroke-linecap:round;stroke-linejoin:bevel;stroke-miterlimit:4;stroke-dasharray:none;stroke-dashoffset:0;stroke-opacity:0.55825243;paint-order:markers stroke fill"
       d="m -10,282 v -2.35294 h 2.3039178 2.303918 V 282 284.35294 H -7.6960822 -10 Z"
       id="path7717"
       inkscape:connector-curvature="0" />
    <flowRoot
       xml:space="preserve"
       id="flowRoot4308"
       style="font-style:normal;font-weight:normal;font-size:13.33333302px;line-height:1.25;font-family:sans-serif;letter-spacing:0px;word-spacing:0px;fill:#000000;fill-opacity:1;stroke:none"
       transform="matrix(0.26458333,0,0,0.26458333,0,267)"><flowRegion
         id="flowRegion4310"><rect
           id="rect4312"
           width="37.795277"
           height="37.795277"
           x="170.07875"
           y="56.692913" /></flowRegion><flowPara
         id="flowPara4314"></flowPara></flowRoot>    <text
       xml:space="preserve"
       style="font-style:normal;font-weight:normal;font-size:3.52777767px;line-height:1.25;font-family:sans-serif;letter-spacing:0px;word-spacing:0px;fill:#000000;fill-opacity:0.58823529;stroke:none;stroke-width:0.26458332"
       x="20.028749"
       y="295.62277"
       id="text1684-2"><tspan
         sodipodi:role="line"
         x="20.028749"
         y="295.62277"
         style="fill:#000000;fill-opacity:0.58823529;stroke-width:0.26458332"
         id="tspan3505">c like array</tspan><tspan
         sodipodi:role="line"
         x="20.028749"
         y="300.0325"
         style="fill:#000000;fill-opacity:0.58823529;stroke-width:0.26458332"
         id="tspan4473" /></text>
    <path
       style="fill:none;stroke:#000000;stroke-width:0.3;stroke-linecap:butt;stroke-linejoin:miter;stroke-opacity:1;stroke-miterlimit:4;stroke-dasharray:none"
       d="m 0,267 h 40.000002 v 30 H 0 Z"
       id="path4596"
       inkscape:connector-curvature="0" />
    <path
       style="fill:none;stroke:#000000;stroke-width:0.1;stroke-linecap:butt;stroke-linejoin:miter;stroke-opacity:1;stroke-miterlimit:4;stroke-dasharray:0.8,0.1;stroke-dashoffset:0"
       d="M 0,272 H 40.000002"
       id="path4598"
       inkscape:connector-curvature="0" />
    <path
       style="fill:none;stroke:#000000;stroke-width:0.1;stroke-linecap:butt;stroke-linejoin:miter;stroke-opacity:1;stroke-miterlimit:4;stroke-dasharray:0.8,0.1;stroke-dashoffset:0"
       d="M 0,277 H 40.000002"
       id="path4600"
       inkscape:connector-curvature="0" />
    <path
       style="fill:none;stroke:#000000;stroke-width:0.1;stroke-linecap:butt;stroke-linejoin:miter;stroke-opacity:1;stroke-miterlimit:4;stroke-dasharray:0.8,0.1;stroke-dashoffset:0"
       d="M 0,282 H 40.000002"
       id="path4602"
       inkscape:connector-curvature="0" />
    <path
       style="fill:none;stroke:#000000;stroke-width:0.1;stroke-linecap:butt;stroke-linejoin:miter;stroke-opacity:1;stroke-miterlimit:4;stroke-dasharray:0.8,0.1;stroke-dashoffset:0"
       d="M 0,287 H 40.000002"
       id="path4604"
       inkscape:connector-curvature="0" />
    <path
       style="fill:none;stroke:#000000;stroke-width:0.1;stroke-linecap:butt;stroke-linejoin:miter;stroke-opacity:1;stroke-miterlimit:4;stroke-dasharray:0.8,0.1;stroke-dashoffset:0"
       d="M 0,292 H 40.000002"
       id="path4606"
       inkscape:connector-curvature="0" />
    <path
       style="fill:#ffa400;fill-opacity:0.78431374;stroke:none;stroke-width:0.09902827;stroke-linecap:round;stroke-linejoin:bevel;stroke-miterlimit:4;stroke-dasharray:0.79222618, 0.09902827000000000;stroke-dashoffset:0;stroke-opacity:0.55825243;paint-order:markers stroke fill"
       d="M 0.75178791,103.78157 V 94.741693 H 1.9308433 c 0.6484804,0 1.1790554,-0.117906 1.1790554,-0.262013 0,-0.144106 -0.530575,-0.262012 -1.1790554,-0.262012 H 0.75178791 v -9.170431 -9.17043 H 1.9308433 c 0.6484804,0 1.1790554,-0.117906 1.1790554,-0.262013 0,-0.144106 -0.530575,-0.262012 -1.1790554,-0.262012 H 0.75178791 v -9.170431 -9.17043 H 1.9308433 c 0.6484804,0 1.1790554,-0.117906 1.1790554,-0.262013 0,-0.144106 -0.530575,-0.262012 -1.1790554,-0.262012 H 0.75178791 v -9.170431 -9.17043 H 1.9308433 c 0.8733743,0 1.1790554,-0.101894 1.1790554,-0.393019 0,-0.291124 -0.3056811,-0.393018 -1.1790554,-0.393018 H 0.75178791 V 28.321573 19.282149 H 1.9308433 c 0.8733743,0 1.1790554,-0.101894 1.1790554,-0.393019 0,-0.291124 -0.3056811,-0.393018 -1.1790554,-0.393018 H 0.75178791 V 9.5876936 0.67927526 H 75.687307 150.62283 V 9.5876936 c 0,8.7337434 -0.0103,8.9084184 -0.52403,8.9084184 -0.29112,0 -0.52402,0.174675 -0.52402,0.393018 0,0.218344 0.2329,0.393019 0.52402,0.393019 0.5139,0 0.52403,0.174675 0.52403,9.039424 0,8.864749 -0.0101,9.039425 -0.52403,9.039425 -0.29112,0 -0.52402,0.174676 -0.52402,0.393018 0,0.218343 0.2329,0.393019 0.52402,0.393019 0.51404,0 0.52403,0.174676 0.52403,9.17043 0,8.995755 -0.01,9.170431 -0.52403,9.170431 -0.28821,0 -0.52402,0.117906 -0.52402,0.262012 0,0.144107 0.23581,0.262013 0.52402,0.262013 0.51404,0 0.52403,0.174676 0.52403,9.17043 0,8.995755 -0.01,9.170431 -0.52403,9.170431 -0.28821,0 -0.52402,0.117906 -0.52402,0.262012 0,0.144107 0.23581,0.262013 0.52402,0.262013 0.51404,0 0.52403,0.174675 0.52403,9.17043 0,8.995755 -0.01,9.170431 -0.52403,9.170431 -0.28821,0 -0.52402,0.117906 -0.52402,0.262012 0,0.144107 0.23736,0.262013 0.52746,0.262013 0.51969,0 0.52645,0.132337 0.45852,8.973917 l -0.0689,8.97393 -74.870016,0.066 -74.87001609,0.066 z M 145.07542,110.32931 c 0.41902,-0.5327 3.97533,-8.96979 3.97533,-9.43118 0,-0.0716 -0.32445,-0.13015 -0.721,-0.13015 -0.6707,0 -0.79251,0.18347 -1.74586,2.62975 -0.56367,1.44636 -1.11408,2.53698 -1.22314,2.42361 -0.10906,-0.11338 -0.63276,-1.29676 -1.16378,-2.62975 -0.90826,-2.27998 -1.01065,-2.42361 -1.72754,-2.42361 h -0.76205 l 0.41356,0.98254 c 2.35227,5.58846 2.53617,6.14494 2.30326,6.96967 -0.17352,0.61444 -0.44895,0.88923 -1.0784,1.07589 -0.54498,0.16162 -0.84536,0.41764 -0.84536,0.72054 0,0.78549 1.91962,0.64585 2.57498,-0.18731 z m -63.252254,-2.12202 c 0.227948,-0.0875 0.414449,-0.44343 0.414449,-0.79102 0,-0.56317 -0.07847,-0.61025 -0.720534,-0.43236 -1.268491,0.35144 -2.418125,0.1943 -3.026059,-0.41364 -0.455833,-0.45583 -0.57661,-0.88168 -0.57661,-2.03308 0,-1.28573 0.09002,-1.53391 0.767871,-2.11697 0.769748,-0.66211 1.800318,-0.73165 3.09681,-0.20896 0.365654,0.14741 0.458522,0.0486 0.458522,-0.48811 0,-0.56236 -0.170646,-0.71892 -1.038232,-0.95253 -1.091082,-0.2938 -2.023327,-0.16866 -3.215032,0.43158 -2.147569,1.08168 -2.129817,5.38395 0.02774,6.72298 0.685125,0.4252 2.992995,0.59604 3.811076,0.28211 z m 8.012805,-5.0812 v -5.24025 h -0.65503 -0.655031 v 5.24025 5.24024 h 0.655031 0.65503 z m 3.668173,1.44106 v -3.79917 h -0.655031 -0.655031 v 3.79917 3.79918 h 0.655031 0.655031 z m 3.668172,2.03763 v -1.76156 l 1.77516,1.76156 c 1.454084,1.44294 1.927984,1.76155 2.620124,1.76155 0.46473,0 0.84496,-0.0765 0.84496,-0.17005 0,-0.0935 -0.8918,-1.0073 -1.98177,-2.03059 l -1.981777,-1.86055 1.843987,-1.57207 c 1.01419,-0.86464 1.84704,-1.66051 1.85077,-1.76859 0.004,-0.10808 -0.34248,-0.1965 -0.76935,-0.1965 -0.57234,0 -1.20873,0.3862 -2.423617,1.4708 l -1.647481,1.47081 -0.07408,-2.91188 c -0.07381,-2.900994 -0.0765,-2.91187 -0.720534,-2.91187 h -0.64645 v 5.24025 5.24024 h 0.655031 c 0.633748,0 0.655031,-0.0572 0.655031,-1.76155 z m 11.380474,1.50602 c 0.47213,-0.17949 0.67209,-0.44888 0.67209,-0.90542 0,-0.64846 -0.002,-0.64905 -1.08099,-0.26849 -0.59455,0.20976 -1.30783,0.38139 -1.58509,0.38139 -0.89747,0 -1.98641,-0.75028 -2.27011,-1.56411 l -0.27679,-0.794 h 2.77083 2.77084 l -0.12671,-1.31861 c -0.14947,-1.55554 -0.88625,-2.4865 -2.27036,-2.86867 -1.90129,-0.52497 -4.03507,0.70842 -4.37679,2.52994 -0.41145,2.19325 0.36154,4.19375 1.85996,4.81353 0.73419,0.30369 3.10863,0.30032 3.91312,-0.006 z m 10.83227,-0.15234 c 0.52705,-0.36916 0.58233,-0.36916 0.58233,0 0,0.27852 0.24928,0.40787 0.78603,0.40787 h 0.78604 v -2.48381 c 0,-4.10529 -0.84709,-5.29736 -3.7002,-5.20712 -1.50002,0.0474 -2.32608,0.46664 -2.32608,1.1804 0,0.44281 0.11086,0.51242 0.58953,0.37015 1.52718,-0.45391 2.55756,-0.46826 3.20412,-0.0446 1.00046,0.65553 0.85364,1.20648 -0.32199,1.20823 -1.3908,0.002 -2.79043,0.4386 -3.33476,1.04007 -0.71304,0.78791 -0.65703,2.44913 0.11013,3.26573 0.49931,0.53149 0.88107,0.67097 1.83644,0.67097 0.66755,0 1.46611,-0.18212 1.78841,-0.40787 z m 5.82257,-2.43286 c 0.12009,-2.48397 0.18477,-2.75318 0.77625,-3.23126 0.44496,-0.35965 0.87193,-0.4762 1.37556,-0.37547 0.64369,0.12874 0.73033,0.0682 0.73033,-0.51064 0,-0.87507 -0.59529,-1.05668 -1.84917,-0.56415 -0.56813,0.22317 -1.03297,0.29734 -1.03297,0.16483 0,-0.13251 -0.35371,-0.24093 -0.78603,-0.24093 h -0.78604 v 3.81658 3.81658 l 0.72053,-0.0829 0.72054,-0.0829 z m 5.24025,0.2087 c 0,-2.47628 0.0398,-2.67182 0.6724,-3.30443 0.52542,-0.52542 0.84042,-0.6388 1.44107,-0.51867 0.68665,0.13733 0.76866,0.0837 0.76866,-0.50297 0,-0.86425 -0.46934,-1.0088 -1.79382,-0.55248 -0.59857,0.20623 -1.08831,0.27084 -1.08831,0.14359 0,-0.12725 -0.35372,-0.23136 -0.78604,-0.23136 h -0.78604 v 3.79917 3.79918 h 0.78604 0.78604 z m 8.00059,2.20888 c 0.5945,-0.38953 0.64581,-0.38953 0.64581,0 0,0.27669 0.22673,0.42315 0.65504,0.42315 h 0.65503 l -5.3e-4,-2.68562 c -5.2e-4,-3.24458 -0.41667,-4.34367 -1.83368,-4.84262 -0.83693,-0.29469 -2.66261,-0.23845 -3.57066,0.11 -0.19774,0.0759 -0.35952,0.43273 -0.35952,0.79299 0,0.51959 0.0948,0.61681 0.45852,0.47018 1.0978,-0.44259 2.42362,-0.4555 3.07312,-0.0299 1.00046,0.65553 0.85363,1.20648 -0.32199,1.20823 -1.4755,0.002 -2.88336,0.47321 -3.33293,1.11507 -0.63128,0.90127 -0.51371,2.4625 0.24238,3.21858 0.7749,0.77491 2.66991,0.8879 3.68929,0.21997 z M 93.504144,98.802883 c 0,-0.803505 -0.0811,-0.917043 -0.655031,-0.917043 -0.573933,0 -0.655031,0.113538 -0.655031,0.917043 0,0.803506 0.0811,0.917043 0.655031,0.917043 0.573933,0 0.655031,-0.113537 0.655031,-0.917043 z M 6.5160586,94.47968 c 0,-0.145563 -0.6986996,-0.262012 -1.5720738,-0.262012 -0.8733743,0 -1.5720738,0.116449 -1.5720738,0.262012 0,0.145564 0.6986995,0.262013 1.5720738,0.262013 0.8733742,0 1.5720738,-0.116449 1.5720738,-0.262013 z m 3.40616,0 c 0,-0.145563 -0.6986996,-0.262012 -1.5720739,-0.262012 -0.8733742,0 -1.5720738,0.116449 -1.5720738,0.262012 0,0.145564 0.6986996,0.262013 1.5720738,0.262013 0.8733743,0 1.5720739,-0.116449 1.5720739,-0.262013 z m 3.4061604,0 c 0,-0.145563 -0.6987,-0.262012 -1.572074,-0.262012 -0.873375,0 -1.572074,0.116449 -1.572074,0.262012 0,0.145564 0.698699,0.262013 1.572074,0.262013 0.873374,0 1.572074,-0.116449 1.572074,-0.262013 z m 3.406159,0 c 0,-0.145563 -0.698699,-0.262012 -1.572073,-0.262012 -0.873375,0 -1.572074,0.116449 -1.572074,0.262012 0,0.145564 0.698699,0.262013 1.572074,0.262013 0.873374,0 1.572073,-0.116449 1.572073,-0.262013 z m 3.40616,0 c 0,-0.145563 -0.698699,-0.262012 -1.572073,-0.262012 -0.873375,0 -1.572074,0.116449 -1.572074,0.262012 0,0.145564 0.698699,0.262013 1.572074,0.262013 0.873374,0 1.572073,-0.116449 1.572073,-0.262013 z m 3.40616,0 c 0,-0.145563 -0.698699,-0.262012 -1.572073,-0.262012 -0.873375,0 -1.572074,0.116449 -1.572074,0.262012 0,0.145564 0.698699,0.262013 1.572074,0.262013 0.873374,0 1.572073,-0.116449 1.572073,-0.262013 z m 3.40616,0 c 0,-0.145563 -0.698699,-0.262012 -1.572073,-0.262012 -0.873375,0 -1.572074,0.116449 -1.572074,0.262012 0,0.145564 0.698699,0.262013 1.572074,0.262013 0.873374,0 1.572073,-0.116449 1.572073,-0.262013 z m 3.40616,0 c 0,-0.145563 -0.6987,-0.262012 -1.572073,-0.262012 -0.873374,0 -1.572074,0.116449 -1.572074,0.262012 0,0.145564 0.6987,0.262013 1.572074,0.262013 0.873373,0 1.572073,-0.116449 1.572073,-0.262013 z m 3.40616,0 c 0,-0.145563 -0.6987,-0.262012 -1.572074,-0.262012 -0.873373,0 -1.572073,0.116449 -1.572073,0.262012 0,0.145564 0.6987,0.262013 1.572073,0.262013 0.873374,0 1.572074,-0.116449 1.572074,-0.262013 z m 91.704302,0.0028 c 0,-0.169994 -15.74291,-0.260658 -45.721142,-0.263323 -30.459038,-0.0027 -45.721147,0.08383 -45.721147,0.259248 0,0.175399 15.264802,0.26331 45.721147,0.26331 29.980972,0 45.721142,-0.08925 45.721142,-0.259248 z m 3.40616,-0.0028 c 0,-0.145563 -0.6987,-0.262012 -1.57207,-0.262012 -0.87337,0 -1.57207,0.116449 -1.57207,0.262012 0,0.145564 0.6987,0.262013 1.57207,0.262013 0.87337,0 1.57207,-0.116449 1.57207,-0.262013 z m 3.40616,0 c 0,-0.145563 -0.6987,-0.262012 -1.57207,-0.262012 -0.87337,0 -1.57207,0.116449 -1.57207,0.262012 0,0.145564 0.6987,0.262013 1.57207,0.262013 0.87337,0 1.57207,-0.116449 1.57207,-0.262013 z m 3.40616,0 c 0,-0.145563 -0.6987,-0.262012 -1.57207,-0.262012 -0.87337,0 -1.57207,0.116449 -1.57207,0.262012 0,0.145564 0.6987,0.262013 1.57207,0.262013 0.87337,0 1.57207,-0.116449 1.57207,-0.262013 z m 3.40616,0 c 0,-0.145563 -0.6987,-0.262012 -1.57207,-0.262012 -0.87337,0 -1.57207,0.116449 -1.57207,0.262012 0,0.145564 0.6987,0.262013 1.57207,0.262013 0.87337,0 1.57207,-0.116449 1.57207,-0.262013 z m 3.40616,0 c 0,-0.145563 -0.6987,-0.262012 -1.57207,-0.262012 -0.87337,0 -1.57207,0.116449 -1.57207,0.262012 0,0.145564 0.6987,0.262013 1.57207,0.262013 0.87337,0 1.57207,-0.116449 1.57207,-0.262013 z m 3.40616,0 c 0,-0.145563 -0.6987,-0.262012 -1.57207,-0.262012 -0.87337,0 -1.57207,0.116449 -1.57207,0.262012 0,0.145564 0.6987,0.262013 1.57207,0.262013 0.87337,0 1.57207,-0.116449 1.57207,-0.262013 z m 3.40616,0 c 0,-0.145563 -0.6987,-0.262012 -1.57207,-0.262012 -0.87337,0 -1.57207,0.116449 -1.57207,0.262012 0,0.145564 0.6987,0.262013 1.57207,0.262013 0.87337,0 1.57207,-0.116449 1.57207,-0.262013 z M 6.5160586,75.614794 c 0,-0.145563 -0.6986996,-0.262012 -1.5720738,-0.262012 -0.8733743,0 -1.5720738,0.116449 -1.5720738,0.262012 0,0.145564 0.6986995,0.262013 1.5720738,0.262013 0.8733742,0 1.5720738,-0.116449 1.5720738,-0.262013 z m 3.40616,0 c 0,-0.145563 -0.6986996,-0.262012 -1.5720739,-0.262012 -0.8733742,0 -1.5720738,0.116449 -1.5720738,0.262012 0,0.145564 0.6986996,0.262013 1.5720738,0.262013 0.8733743,0 1.5720739,-0.116449 1.5720739,-0.262013 z m 3.4061604,0 c 0,-0.145563 -0.6987,-0.262012 -1.572074,-0.262012 -0.873375,0 -1.572074,0.116449 -1.572074,0.262012 0,0.145564 0.698699,0.262013 1.572074,0.262013 0.873374,0 1.572074,-0.116449 1.572074,-0.262013 z m 3.406159,0 c 0,-0.145563 -0.698699,-0.262012 -1.572073,-0.262012 -0.873375,0 -1.572074,0.116449 -1.572074,0.262012 0,0.145564 0.698699,0.262013 1.572074,0.262013 0.873374,0 1.572073,-0.116449 1.572073,-0.262013 z m 3.40616,0 c 0,-0.145563 -0.698699,-0.262012 -1.572073,-0.262012 -0.873375,0 -1.572074,0.116449 -1.572074,0.262012 0,0.145564 0.698699,0.262013 1.572074,0.262013 0.873374,0 1.572073,-0.116449 1.572073,-0.262013 z m 3.40616,0 c 0,-0.145563 -0.698699,-0.262012 -1.572073,-0.262012 -0.873375,0 -1.572074,0.116449 -1.572074,0.262012 0,0.145564 0.698699,0.262013 1.572074,0.262013 0.873374,0 1.572073,-0.116449 1.572073,-0.262013 z m 3.40616,0 c 0,-0.145563 -0.698699,-0.262012 -1.572073,-0.262012 -0.873375,0 -1.572074,0.116449 -1.572074,0.262012 0,0.145564 0.698699,0.262013 1.572074,0.262013 0.873374,0 1.572073,-0.116449 1.572073,-0.262013 z m 3.40616,0 c 0,-0.145563 -0.6987,-0.262012 -1.572073,-0.262012 -0.873374,0 -1.572074,0.116449 -1.572074,0.262012 0,0.145564 0.6987,0.262013 1.572074,0.262013 0.873373,0 1.572073,-0.116449 1.572073,-0.262013 z m 3.40616,0 c 0,-0.145563 -0.6987,-0.262012 -1.572074,-0.262012 -0.873373,0 -1.572073,0.116449 -1.572073,0.262012 0,0.145564 0.6987,0.262013 1.572073,0.262013 0.873374,0 1.572074,-0.116449 1.572074,-0.262013 z m 91.704302,-0.0028 c 0,-0.169986 -15.74017,-0.259235 -45.721142,-0.259235 -30.456345,0 -45.721147,0.08791 -45.721147,0.263309 0,0.175418 15.262109,0.261955 45.721147,0.259248 29.978232,-0.0027 45.721142,-0.09333 45.721142,-0.263309 z m 3.40616,0.0028 c 0,-0.145563 -0.6987,-0.262012 -1.57207,-0.262012 -0.87337,0 -1.57207,0.116449 -1.57207,0.262012 0,0.145564 0.6987,0.262013 1.57207,0.262013 0.87337,0 1.57207,-0.116449 1.57207,-0.262013 z m 3.40616,0 c 0,-0.145563 -0.6987,-0.262012 -1.57207,-0.262012 -0.87337,0 -1.57207,0.116449 -1.57207,0.262012 0,0.145564 0.6987,0.262013 1.57207,0.262013 0.87337,0 1.57207,-0.116449 1.57207,-0.262013 z m 3.40616,0 c 0,-0.145563 -0.6987,-0.262012 -1.57207,-0.262012 -0.87337,0 -1.57207,0.116449 -1.57207,0.262012 0,0.145564 0.6987,0.262013 1.57207,0.262013 0.87337,0 1.57207,-0.116449 1.57207,-0.262013 z m 3.40616,0 c 0,-0.145563 -0.6987,-0.262012 -1.57207,-0.262012 -0.87337,0 -1.57207,0.116449 -1.57207,0.262012 0,0.145564 0.6987,0.262013 1.57207,0.262013 0.87337,0 1.57207,-0.116449 1.57207,-0.262013 z m 3.40616,0 c 0,-0.145563 -0.6987,-0.262012 -1.57207,-0.262012 -0.87337,0 -1.57207,0.116449 -1.57207,0.262012 0,0.145564 0.6987,0.262013 1.57207,0.262013 0.87337,0 1.57207,-0.116449 1.57207,-0.262013 z m 3.40616,0 c 0,-0.145563 -0.6987,-0.262012 -1.57207,-0.262012 -0.87337,0 -1.57207,0.116449 -1.57207,0.262012 0,0.145564 0.6987,0.262013 1.57207,0.262013 0.87337,0 1.57207,-0.116449 1.57207,-0.262013 z m 3.40616,0 c 0,-0.145563 -0.6987,-0.262012 -1.57207,-0.262012 -0.87337,0 -1.57207,0.116449 -1.57207,0.262012 0,0.145564 0.6987,0.262013 1.57207,0.262013 0.87337,0 1.57207,-0.116449 1.57207,-0.262013 z M 6.5160586,56.749908 c 0,-0.145563 -0.6986996,-0.262012 -1.5720738,-0.262012 -0.8733743,0 -1.5720738,0.116449 -1.5720738,0.262012 0,0.145564 0.6986995,0.262013 1.5720738,0.262013 0.8733742,0 1.5720738,-0.116449 1.5720738,-0.262013 z m 3.40616,0 c 0,-0.145563 -0.6986996,-0.262012 -1.5720739,-0.262012 -0.8733742,0 -1.5720738,0.116449 -1.5720738,0.262012 0,0.145564 0.6986996,0.262013 1.5720738,0.262013 0.8733743,0 1.5720739,-0.116449 1.5720739,-0.262013 z m 3.4061604,0 c 0,-0.145563 -0.6987,-0.262012 -1.572074,-0.262012 -0.873375,0 -1.572074,0.116449 -1.572074,0.262012 0,0.145564 0.698699,0.262013 1.572074,0.262013 0.873374,0 1.572074,-0.116449 1.572074,-0.262013 z m 3.406159,0 c 0,-0.145563 -0.698699,-0.262012 -1.572073,-0.262012 -0.873375,0 -1.572074,0.116449 -1.572074,0.262012 0,0.145564 0.698699,0.262013 1.572074,0.262013 0.873374,0 1.572073,-0.116449 1.572073,-0.262013 z m 3.40616,0 c 0,-0.145563 -0.698699,-0.262012 -1.572073,-0.262012 -0.873375,0 -1.572074,0.116449 -1.572074,0.262012 0,0.145564 0.698699,0.262013 1.572074,0.262013 0.873374,0 1.572073,-0.116449 1.572073,-0.262013 z m 3.40616,0 c 0,-0.145563 -0.698699,-0.262012 -1.572073,-0.262012 -0.873375,0 -1.572074,0.116449 -1.572074,0.262012 0,0.145564 0.698699,0.262013 1.572074,0.262013 0.873374,0 1.572073,-0.116449 1.572073,-0.262013 z m 3.40616,0 c 0,-0.145563 -0.698699,-0.262012 -1.572073,-0.262012 -0.873375,0 -1.572074,0.116449 -1.572074,0.262012 0,0.145564 0.698699,0.262013 1.572074,0.262013 0.873374,0 1.572073,-0.116449 1.572073,-0.262013 z m 3.40616,0 c 0,-0.145563 -0.6987,-0.262012 -1.572073,-0.262012 -0.873374,0 -1.572074,0.116449 -1.572074,0.262012 0,0.145564 0.6987,0.262013 1.572074,0.262013 0.873373,0 1.572073,-0.116449 1.572073,-0.262013 z m 95.110462,-0.0028 c 0,-0.169949 -16.32734,-0.259183 -47.424222,-0.259183 -31.096886,0 -47.424227,0.08923 -47.424227,0.259188 0,0.169954 16.327341,0.259188 47.424227,0.259188 31.096882,0 47.424222,-0.08923 47.424222,-0.259188 z m 3.40616,0.0028 c 0,-0.145563 -0.6987,-0.262012 -1.57207,-0.262012 -0.87337,0 -1.57207,0.116449 -1.57207,0.262012 0,0.145564 0.6987,0.262013 1.57207,0.262013 0.87337,0 1.57207,-0.116449 1.57207,-0.262013 z m 3.40616,0 c 0,-0.145563 -0.6987,-0.262012 -1.57207,-0.262012 -0.87337,0 -1.57207,0.116449 -1.57207,0.262012 0,0.145564 0.6987,0.262013 1.57207,0.262013 0.87337,0 1.57207,-0.116449 1.57207,-0.262013 z m 3.40616,0 c 0,-0.145563 -0.6987,-0.262012 -1.57207,-0.262012 -0.87337,0 -1.57207,0.116449 -1.57207,0.262012 0,0.145564 0.6987,0.262013 1.57207,0.262013 0.87337,0 1.57207,-0.116449 1.57207,-0.262013 z m 3.40616,0 c 0,-0.145563 -0.6987,-0.262012 -1.57207,-0.262012 -0.87337,0 -1.57207,0.116449 -1.57207,0.262012 0,0.145564 0.6987,0.262013 1.57207,0.262013 0.87337,0 1.57207,-0.116449 1.57207,-0.262013 z m 3.40616,0 c 0,-0.145563 -0.6987,-0.262012 -1.57207,-0.262012 -0.87337,0 -1.57207,0.116449 -1.57207,0.262012 0,0.145564 0.6987,0.262013 1.57207,0.262013 0.87337,0 1.57207,-0.116449 1.57207,-0.262013 z m 3.40616,0 c 0,-0.145563 -0.6987,-0.262012 -1.57207,-0.262012 -0.87337,0 -1.57207,0.116449 -1.57207,0.262012 0,0.145564 0.6987,0.262013 1.57207,0.262013 0.87337,0 1.57207,-0.116449 1.57207,-0.262013 z m 3.40616,0 c 0,-0.145563 -0.6987,-0.262012 -1.57207,-0.262012 -0.87337,0 -1.57207,0.116449 -1.57207,0.262012 0,0.145564 0.6987,0.262013 1.57207,0.262013 0.87337,0 1.57207,-0.116449 1.57207,-0.262013 z M 6.5160586,37.754016 c 0,-0.305682 -0.3493496,-0.393018 -1.5720738,-0.393018 -1.2227242,0 -1.5720738,0.08734 -1.5720738,0.393018 0,0.305682 0.3493496,0.393019 1.5720738,0.393019 1.2227242,0 1.5720738,-0.08734 1.5720738,-0.393019 z m 3.40616,0 c 0,-0.305682 -0.3493497,-0.393018 -1.5720739,-0.393018 -1.2227241,0 -1.5720738,0.08734 -1.5720738,0.393018 0,0.305682 0.3493497,0.393019 1.5720738,0.393019 1.2227242,0 1.5720739,-0.08734 1.5720739,-0.393019 z m 3.4061604,0 c 0,-0.305682 -0.34935,-0.393018 -1.572074,-0.393018 -1.222724,0 -1.572074,0.08734 -1.572074,0.393018 0,0.305682 0.34935,0.393019 1.572074,0.393019 1.222724,0 1.572074,-0.08734 1.572074,-0.393019 z m 3.406159,0 c 0,-0.305682 -0.349349,-0.393018 -1.572073,-0.393018 -1.222725,0 -1.572074,0.08734 -1.572074,0.393018 0,0.305682 0.349349,0.393019 1.572074,0.393019 1.222724,0 1.572073,-0.08734 1.572073,-0.393019 z m 3.341792,0.0655 c -0.06512,-0.197397 -0.698354,-0.358734 -1.593908,-0.406092 -1.201162,-0.06352 -1.485871,-7.68e-4 -1.485871,0.327515 0,0.32228 0.328966,0.406093 1.593908,0.406093 1.158072,0 1.564367,-0.08956 1.485871,-0.327516 z m 3.40616,0 c -0.06512,-0.197397 -0.698354,-0.358734 -1.593909,-0.406092 -1.201161,-0.06352 -1.48587,-7.68e-4 -1.48587,0.327515 0,0.32228 0.328966,0.406093 1.593908,0.406093 1.158072,0 1.564367,-0.08956 1.485871,-0.327516 z m 3.40616,0 c -0.06511,-0.197397 -0.698354,-0.358734 -1.593909,-0.406092 -1.201161,-0.06352 -1.48587,-7.68e-4 -1.48587,0.327515 0,0.32228 0.328966,0.406093 1.593908,0.406093 1.158072,0 1.564367,-0.08956 1.485871,-0.327516 z m 3.40616,0 c -0.06512,-0.197397 -0.698355,-0.358734 -1.593908,-0.406092 -1.201161,-0.06352 -1.485871,-7.86e-4 -1.485871,0.327515 0,0.32228 0.328967,0.406093 1.593907,0.406093 1.158073,0 1.564368,-0.08956 1.485872,-0.327516 z m 98.58099,-0.04538 c 0,-0.306966 -7.49122,-0.362198 -49.127302,-0.362198 -41.636085,0 -49.127307,0.05523 -49.127307,0.362198 0,0.306968 7.491222,0.362197 49.127307,0.362197 41.636082,0 49.127302,-0.05523 49.127302,-0.362197 z m 3.40616,-0.0332 c 0,-0.328283 -0.28471,-0.391038 -1.48587,-0.327515 -2.13315,0.112809 -2.22457,0.733608 -0.10803,0.733608 1.26494,0 1.5939,-0.08381 1.5939,-0.406093 z m 3.40616,0 c 0,-0.328283 -0.28471,-0.391038 -1.48587,-0.327515 -2.13315,0.112809 -2.22457,0.733608 -0.10803,0.733608 1.26494,0 1.5939,-0.08381 1.5939,-0.406093 z m 3.40616,0 c 0,-0.328283 -0.28471,-0.391038 -1.48587,-0.327515 -2.13315,0.112809 -2.22457,0.733608 -0.10803,0.733608 1.26494,0 1.5939,-0.08381 1.5939,-0.406093 z m 3.40616,0.01307 c 0,-0.305682 -0.34934,-0.393018 -1.57207,-0.393018 -1.22272,0 -1.57207,0.08734 -1.57207,0.393018 0,0.305682 0.34935,0.393019 1.57207,0.393019 1.22273,0 1.57207,-0.08734 1.57207,-0.393019 z m 3.40616,0 c 0,-0.305682 -0.34934,-0.393018 -1.57207,-0.393018 -1.22272,0 -1.57207,0.08734 -1.57207,0.393018 0,0.305682 0.34935,0.393019 1.57207,0.393019 1.22273,0 1.57207,-0.08734 1.57207,-0.393019 z m 3.40616,0 c 0,-0.305682 -0.34934,-0.393018 -1.57207,-0.393018 -1.22272,0 -1.57207,0.08734 -1.57207,0.393018 0,0.305682 0.34935,0.393019 1.57207,0.393019 1.22273,0 1.57207,-0.08734 1.57207,-0.393019 z M 6.5160586,18.88913 c 0,-0.305681 -0.3493496,-0.393018 -1.5720738,-0.393018 -1.2227242,0 -1.5720738,0.08734 -1.5720738,0.393018 0,0.305682 0.3493496,0.393019 1.5720738,0.393019 1.2227242,0 1.5720738,-0.08734 1.5720738,-0.393019 z m 3.40616,0 c 0,-0.305681 -0.3493497,-0.393018 -1.5720739,-0.393018 -1.2227241,0 -1.5720738,0.08734 -1.5720738,0.393018 0,0.305682 0.3493497,0.393019 1.5720738,0.393019 1.2227242,0 1.5720739,-0.08734 1.5720739,-0.393019 z m 3.4061604,0 c 0,-0.305681 -0.34935,-0.393018 -1.572074,-0.393018 -1.222724,0 -1.572074,0.08734 -1.572074,0.393018 0,0.305682 0.34935,0.393019 1.572074,0.393019 1.222724,0 1.572074,-0.08734 1.572074,-0.393019 z m 3.406159,0 c 0,-0.305681 -0.349349,-0.393018 -1.572073,-0.393018 -1.222725,0 -1.572074,0.08734 -1.572074,0.393018 0,0.305682 0.349349,0.393019 1.572074,0.393019 1.222724,0 1.572073,-0.08734 1.572073,-0.393019 z m 3.40616,0 c 0,-0.305681 -0.349349,-0.393018 -1.572073,-0.393018 -1.222725,0 -1.572074,0.08734 -1.572074,0.393018 0,0.305682 0.349349,0.393019 1.572074,0.393019 1.222724,0 1.572073,-0.08734 1.572073,-0.393019 z m 3.40616,0 c 0,-0.305681 -0.349349,-0.393018 -1.572073,-0.393018 -1.222725,0 -1.572074,0.08734 -1.572074,0.393018 0,0.305682 0.349349,0.393019 1.572074,0.393019 1.222724,0 1.572073,-0.08734 1.572073,-0.393019 z m 3.40616,0 c 0,-0.305681 -0.349348,-0.393018 -1.572073,-0.393018 -1.222725,0 -1.572074,0.08734 -1.572074,0.393018 0,0.305682 0.349349,0.393019 1.572074,0.393019 1.222725,0 1.572073,-0.08734 1.572073,-0.393019 z m 3.40616,0 c 0,-0.305681 -0.349349,-0.393018 -1.572073,-0.393018 -1.222725,0 -1.572074,0.08734 -1.572074,0.393018 0,0.305682 0.349349,0.393019 1.572074,0.393019 1.222724,0 1.572073,-0.08734 1.572073,-0.393019 z m 98.516622,0.0035 c 0,-0.319128 -6.9078,-0.371342 -49.127302,-0.371342 -42.219505,0 -49.127307,0.05221 -49.127307,0.371342 0,0.319127 6.907802,0.371342 49.127307,0.371342 42.219502,0 49.127302,-0.05222 49.127302,-0.371342 z m 3.40616,-0.0035 c 0,-0.305681 -0.34934,-0.393018 -1.57207,-0.393018 -1.22272,0 -1.57207,0.08734 -1.57207,0.393018 0,0.305682 0.34935,0.393019 1.57207,0.393019 1.22273,0 1.57207,-0.08734 1.57207,-0.393019 z m 3.40616,0 c 0,-0.305681 -0.34934,-0.393018 -1.57207,-0.393018 -1.22272,0 -1.57207,0.08734 -1.57207,0.393018 0,0.305682 0.34935,0.393019 1.57207,0.393019 1.22273,0 1.57207,-0.08734 1.57207,-0.393019 z m 3.40616,0 c 0,-0.305681 -0.34934,-0.393018 -1.57207,-0.393018 -1.22272,0 -1.57207,0.08734 -1.57207,0.393018 0,0.305682 0.34935,0.393019 1.57207,0.393019 1.22273,0 1.57207,-0.08734 1.57207,-0.393019 z m 3.40616,0 c 0,-0.305681 -0.34934,-0.393018 -1.57207,-0.393018 -1.22272,0 -1.57207,0.08734 -1.57207,0.393018 0,0.305682 0.34935,0.393019 1.57207,0.393019 1.22273,0 1.57207,-0.08734 1.57207,-0.393019 z m 3.40616,0 c 0,-0.305681 -0.34934,-0.393018 -1.57207,-0.393018 -1.22272,0 -1.57207,0.08734 -1.57207,0.393018 0,0.305682 0.34935,0.393019 1.57207,0.393019 1.22273,0 1.57207,-0.08734 1.57207,-0.393019 z m 3.40616,0 c 0,-0.305681 -0.34934,-0.393018 -1.57207,-0.393018 -1.22272,0 -1.57207,0.08734 -1.57207,0.393018 0,0.305682 0.34935,0.393019 1.57207,0.393019 1.22273,0 1.57207,-0.08734 1.57207,-0.393019 z"
       id="path4608"
       inkscape:connector-curvature="0"
       transform="matrix(0.26458333,0,0,0.26458333,0,267)" />
  </g>
</svg>
