<?xml version="1.0" encoding="UTF-8" standalone="no"?>
<!-- Created with Inkscape (http://www.inkscape.org/) -->

<svg
   xmlns:dc="http://purl.org/dc/elements/1.1/"
   xmlns:cc="http://creativecommons.org/ns#"
   xmlns:rdf="http://www.w3.org/1999/02/22-rdf-syntax-ns#"
   xmlns:svg="http://www.w3.org/2000/svg"
   xmlns="http://www.w3.org/2000/svg"
   xmlns:sodipodi="http://sodipodi.sourceforge.net/DTD/sodipodi-0.dtd"
   xmlns:inkscape="http://www.inkscape.org/namespaces/inkscape"
   width="40mm"
   height="5mm"
   viewBox="0 0 40 5"
   version="1.1"
   id="svg8"
   inkscape:version="0.92.3 (2405546, 2018-03-11)"
   sodipodi:docname="float.svg">
  <defs
     id="defs2" />
  <sodipodi:namedview
     id="base"
     pagecolor="#ffffff"
     bordercolor="#666666"
     borderopacity="1.0"
     inkscape:pageopacity="0.0"
     inkscape:pageshadow="2"
     inkscape:zoom="5.6568542"
     inkscape:cx="58.187141"
     inkscape:cy="-0.60770402"
     inkscape:document-units="mm"
     inkscape:current-layer="layer1"
     showgrid="true"
     inkscape:window-width="1366"
     inkscape:window-height="768"
     inkscape:window-x="0"
     inkscape:window-y="0"
     inkscape:window-maximized="0"
     showguides="true"
     inkscape:guide-bbox="true">
    <inkscape:grid
       type="xygrid"
       id="grid10"
       units="mm"
       spacingx="5.0000001"
       spacingy="5.0000001" />
    <sodipodi:guide
       position="-20,20"
       orientation="-0.70710678,0.70710678"
       id="guide4881"
       inkscape:locked="false" />
    <sodipodi:guide
       position="0,9.9999999"
       orientation="1,0"
       id="guide4883"
       inkscape:locked="false" />
    <sodipodi:guide
       position="60,5"
       orientation="0,1"
       id="guide4885"
       inkscape:locked="false" />
  </sodipodi:namedview>
  <metadata
     id="metadata5">
    <rdf:RDF>
      <cc:Work
         rdf:about="">
        <dc:format>image/svg+xml</dc:format>
        <dc:type
           rdf:resource="http://purl.org/dc/dcmitype/StillImage" />
        <dc:title></dc:title>
      </cc:Work>
    </rdf:RDF>
  </metadata>
  <g
     inkscape:label="Layer 1"
     inkscape:groupmode="layer"
     id="layer1"
     transform="translate(0,-292)">
    <path
       style="fill:none;stroke:#000000;stroke-width:0.28160724;stroke-linecap:butt;stroke-linejoin:miter;stroke-miterlimit:4;stroke-dasharray:none;stroke-opacity:1"
       d="M -0.00919638,291.9908 H 35.107245 v 5.0184 H -0.00919638 Z"
       id="path928"
       inkscape:connector-curvature="0" />
    <path
       style="fill:none;stroke:#000000;stroke-width:0.1;stroke-linecap:butt;stroke-linejoin:miter;stroke-miterlimit:4;stroke-dasharray:none;stroke-dashoffset:0;stroke-opacity:1"
       d="m 5,292 v 5"
       id="path930"
       inkscape:connector-curvature="0" />
    <path
       style="fill:none;stroke:#000000;stroke-width:0.1;stroke-linecap:butt;stroke-linejoin:miter;stroke-miterlimit:4;stroke-dasharray:none;stroke-dashoffset:0;stroke-opacity:1"
       d="m 10,292 v 5"
       id="path932"
       inkscape:connector-curvature="0" />
    <path
       style="fill:none;stroke:#000000;stroke-width:0.1;stroke-linecap:butt;stroke-linejoin:miter;stroke-miterlimit:4;stroke-dasharray:none;stroke-dashoffset:0;stroke-opacity:1"
       d="m 15,292 v 5"
       id="path934"
       inkscape:connector-curvature="0" />
    <path
       style="fill:none;stroke:#000000;stroke-width:0.1;stroke-linecap:butt;stroke-linejoin:miter;stroke-miterlimit:4;stroke-dasharray:none;stroke-dashoffset:0;stroke-opacity:1"
       d="m 20,292 v 5"
       id="path936"
       inkscape:connector-curvature="0" />
    <path
       style="fill:none;stroke:#000000;stroke-width:0.1;stroke-linecap:butt;stroke-linejoin:miter;stroke-miterlimit:4;stroke-dasharray:none;stroke-dashoffset:0;stroke-opacity:1"
       d="m 25,292 v 5"
       id="path938"
       inkscape:connector-curvature="0" />
    <path
       style="fill:none;stroke:#000000;stroke-width:0.1;stroke-linecap:butt;stroke-linejoin:miter;stroke-miterlimit:4;stroke-dasharray:none;stroke-dashoffset:0;stroke-opacity:1"
       d="m 30,292 v 5"
       id="path940"
       inkscape:connector-curvature="0" />
    <path
       style="fill:none;stroke:#000000;stroke-width:0.1;stroke-linecap:butt;stroke-linejoin:miter;stroke-miterlimit:4;stroke-dasharray:none;stroke-dashoffset:0;stroke-opacity:1"
       d="m 35.000001,292 v 5"
       id="path942"
       inkscape:connector-curvature="0" />
    <flowRoot
       xml:space="preserve"
       id="flowRoot4757"
       style="fill:black;fill-opacity:1;stroke:none;font-family:sans-serif;font-style:normal;font-weight:normal;font-size:13.33333333px;line-height:1.25;letter-spacing:0px;word-spacing:0px"><flowRegion
         id="flowRegion4759"><rect
           id="rect4761"
           width="18.897638"
           height="18.897638"
           x="-37.795277"
           y="-75.590553" /></flowRegion><flowPara
         id="flowPara4763"></flowPara></flowRoot>    <text
       xml:space="preserve"
       style="font-style:normal;font-weight:normal;font-size:3.52777767px;line-height:1.25;font-family:sans-serif;letter-spacing:0px;word-spacing:0px;fill:#000000;fill-opacity:1;stroke:none;stroke-width:0.26458332"
       x="5"
       y="292"
       id="text4833"><tspan
         sodipodi:role="line"
         id="tspan4831"
         x="5"
         y="295.12125"
         style="stroke-width:0.26458332" /></text>
    <text
       xml:space="preserve"
       style="font-style:normal;font-weight:normal;font-size:3.52777767px;line-height:1.25;font-family:sans-serif;letter-spacing:0px;word-spacing:0px;fill:#000000;fill-opacity:1;stroke:none;stroke-width:0.26458332"
       x="15.000001"
       y="297"
       id="text4837"><tspan
         sodipodi:role="line"
         id="tspan4835"
         x="15.000001"
         y="300.12125"
         style="stroke-width:0.26458332" /></text>
    <flowRoot
       xml:space="preserve"
       id="flowRoot9743"
       style="fill:black;fill-opacity:1;stroke:none;font-family:sans-serif;font-style:normal;font-weight:normal;font-size:13.33333333px;line-height:1.25;letter-spacing:0px;word-spacing:0px"><flowRegion
         id="flowRegion9745"><rect
           id="rect9747"
           width="0"
           height="18.897638"
           x="113.38583"
           y="37.795277" /></flowRegion><flowPara
         id="flowPara9749"></flowPara></flowRoot>    <flowRoot
       xml:space="preserve"
       id="flowRoot9751"
       style="fill:black;fill-opacity:1;stroke:none;font-family:sans-serif;font-style:normal;font-weight:normal;font-size:13.33333333px;line-height:1.25;letter-spacing:0px;word-spacing:0px"><flowRegion
         id="flowRegion9753"><rect
           id="rect9755"
           width="75.590553"
           height="18.897638"
           x="0"
           y="-3.7795274e-07" /></flowRegion><flowPara
         id="flowPara9757"></flowPara></flowRoot>    <text
       xml:space="preserve"
       style="font-style:normal;font-weight:normal;font-size:3.52777767px;line-height:1.25;font-family:sans-serif;letter-spacing:0px;word-spacing:0px;fill:#000000;fill-opacity:0.58823529;stroke:none;stroke-width:0.26458332"
       x="26.314558"
       y="296.44711"
       id="text1684-2"><tspan
         sodipodi:role="line"
         x="26.314558"
         y="296.44711"
         style="fill:#000000;fill-opacity:0.58823529;stroke-width:0.26458332"
         id="tspan3505">float</tspan></text>
    <text
       xml:space="preserve"
       style="font-style:normal;font-weight:normal;font-size:3.52777767px;line-height:1.25;font-family:sans-serif;letter-spacing:0px;word-spacing:0px;fill:#000000;fill-opacity:0.58823529;stroke:none;stroke-width:0.26458332"
       x="0.31943312"
       y="296.19415"
       id="text1684-2-2"><tspan
         sodipodi:role="line"
         x="0.31943312"
         y="296.19415"
         style="fill:#000000;fill-opacity:0.58823529;stroke-width:0.26458332"
         id="tspan3505-8">3.14159</tspan></text>
    <path
       style="fill:#008000;fill-opacity:0.34574471;stroke:none;stroke-width:0.06681324;stroke-linecap:round;stroke-linejoin:bevel;stroke-miterlimit:4;stroke-dasharray:none;stroke-dashoffset:0;stroke-opacity:0.55825243;paint-order:markers stroke fill"
       d="M 0.52258284,9.4997808 V 0.66094607 H 9.5381943 18.553806 V 3.2929229 5.9248996 l -0.662913,0.1145708 c -0.364602,0.063014 -1.080547,0.1968313 -1.59099,0.2973718 l -0.928078,0.1828011 v 0.6979416 c 0,0.6327036 0.03718,0.6894986 0.397748,0.6076154 0.218761,-0.049679 0.735833,-0.1620634 1.149048,-0.2497421 l 0.751301,-0.1594159 v 3.6051317 3.605131 h -1.06066 -1.06066 v 0.618718 0.618719 h 1.502602 1.502602 v 1.237437 1.237437 H 9.5381943 0.52258284 Z M 7.0597087,15.642771 C 8.1037027,15.109316 8.5184779,14.494111 8.6144572,13.336726 8.7088426,12.198563 8.3660234,11.409546 7.5656317,10.922799 7.0307032,10.597489 7.0288682,10.591319 7.4068967,10.389004 7.966026,10.089767 8.4761153,9.1515948 8.4768733,8.4210688 8.4777042,7.6237926 7.8825393,6.7254363 7.0660786,6.2915686 6.3625173,5.9176958 4.2417241,5.8415883 3.1300391,6.1503187 2.5221956,6.3191253 2.4671265,6.3868391 2.4671265,6.9654456 c 0,0.5722145 0.037071,0.6198078 0.3977476,0.5106503 0.8439432,-0.2554164 2.7786127,-0.3196333 3.2868837,-0.1091006 0.5009772,0.2075116 0.9115628,0.8197245 0.9115628,1.3592065 0,0.148745 -0.2325294,0.5029748 -0.5167319,0.7871772 -0.457749,0.457749 -0.6393543,0.516732 -1.5909903,0.516732 H 3.8813401 v 0.598125 0.598124 l 1.1723614,0.07465 c 1.0519262,0.06698 1.2244466,0.132944 1.6793786,0.642101 0.2788594,0.312098 0.5070172,0.76902 0.5070172,1.015382 0,0.717039 -0.471717,1.436015 -1.0816682,1.648645 -0.7914091,0.275887 -2.2749073,0.2434 -3.1609725,-0.06922 -0.4133568,-0.145841 -0.7813311,-0.265165 -0.8177208,-0.265165 -0.036389,0 -0.066163,0.310295 -0.066163,0.689546 0,0.647656 0.040271,0.700241 0.6629126,0.865613 0.3646019,0.09684 1.3023404,0.184289 2.0838631,0.194337 1.1492563,0.01478 1.5697872,-0.05778 2.1993599,-0.379477 z m 5.4836893,-0.662913 v -0.883883 h -0.707107 -0.707106 v 0.883883 0.883884 h 0.707106 0.707107 z"
       id="path10446"
       inkscape:connector-curvature="0"
       transform="matrix(0.26458333,0,0,0.26458333,0,292)" />
    <path
       style="fill:#008000;fill-opacity:0.34574471;stroke:none;stroke-width:0.06681324;stroke-linecap:round;stroke-linejoin:bevel;stroke-miterlimit:4;stroke-dasharray:none;stroke-dashoffset:0;stroke-opacity:0.55825243;paint-order:markers stroke fill"
       d="m 19.084136,17.101179 v -1.237437 h 1.06066 1.06066 v -0.618719 -0.618718 h -1.06066 -1.06066 V 7.6436255 0.66094607 h 9.192388 9.192388 V 7.6436255 14.626305 h -0.707107 -0.707106 v -4.248189 c 0,-3.6495481 -0.0381,-4.2628097 -0.270386,-4.3519452 -0.148712,-0.057066 -0.983982,0.034849 -1.856155,0.2042552 l -1.58577,0.308012 v 0.6885443 c 0,0.6229581 0.03789,0.6799403 0.397748,0.598218 0.218761,-0.049679 0.735833,-0.1620634 1.149048,-0.2497421 l 0.751301,-0.1594159 v 3.6051317 3.605131 h -1.06066 -1.06066 v 0.618718 0.618719 h 2.474873 2.474874 v 1.237437 1.237437 h -9.192388 -9.192388 z m 9.722718,-2.386486 v -1.149048 h 0.707107 c 0.690271,0 0.707107,-0.01473 0.707107,-0.618719 0,-0.603388 -0.01742,-0.618718 -0.703028,-0.618718 H 28.815012 L 28.766739,9.1904216 28.718466,6.0526353 H 27.922971 27.127476 L 25.058597,9.1462275 C 23.356843,11.69086 22.988255,12.357454 22.981471,12.902732 l -0.0082,0.662913 h 2.209709 2.209709 v 1.149048 1.149049 h 0.707106 0.707107 z"
       id="path10448"
       inkscape:connector-curvature="0"
       transform="matrix(0.26458333,0,0,0.26458333,0,292)" />
    <path
       style="fill:#008000;fill-opacity:0.34574471;stroke:none;stroke-width:0.06681324;stroke-linecap:round;stroke-linejoin:bevel;stroke-miterlimit:4;stroke-dasharray:none;stroke-dashoffset:0;stroke-opacity:0.55825243;paint-order:markers stroke fill"
       d="m 38.012649,9.4997808 -0.02563,-8.83883473 h 9.198497 9.198498 V 9.4997808 18.338616 h -9.172872 -9.172873 z m 7.062971,6.1429902 c 2.346212,-1.18527 2.313952,-4.64417 -0.05516,-5.9144485 C 44.647422,9.5283064 44.040823,9.4212551 43.258349,9.417349 L 42.065106,9.411389 V 8.394923 7.378457 h 2.043603 2.043604 L 46.097447,6.7155479 46.042582,6.0526353 H 43.47932 40.916058 l -0.0489,2.4943923 -0.0489,2.4943924 0.932781,-0.248075 c 1.249806,-0.33239 2.275365,-0.170679 2.957255,0.466302 0.4669,0.43615 0.538788,0.625924 0.538788,1.422328 0,0.809464 -0.07165,0.990678 -0.601041,1.520066 -0.55285,0.55285 -0.687957,0.601041 -1.685056,0.601041 -0.596209,0 -1.369599,-0.119325 -1.718645,-0.265165 -0.893684,-0.373405 -0.945006,-0.349679 -0.945006,0.436887 0,0.64018 0.05063,0.716672 0.574525,0.86794 0.315988,0.09124 1.213952,0.173063 1.995474,0.181831 1.143842,0.01283 1.574493,-0.06162 2.208282,-0.381804 z m 8.089266,0.0614 c 0.864632,-0.443409 1.346629,-0.980889 1.840478,-2.052338 0.345929,-0.75052 0.406383,-1.170958 0.406383,-2.826225 0,-1.8070506 -0.0375,-2.0195397 -0.53033,-3.0052038 -0.723178,-1.4463551 -1.36715,-1.8561553 -2.916816,-1.8561553 -0.939991,0 -1.308536,0.083148 -1.781612,0.4019544 -2.322014,1.5648046 -1.879275,5.4386147 0.700988,6.1334077 0.851775,0.229359 1.936284,0.110431 2.434339,-0.266951 0.456626,-0.345991 0.590829,-0.316888 0.590829,0.128126 0,0.681113 -0.715023,1.906982 -1.283885,2.201152 -0.542986,0.280789 -1.978648,0.265281 -2.926651,-0.03161 -0.385373,-0.120692 -0.406476,-0.08778 -0.353553,0.551357 0.06612,0.798569 0.317187,0.913724 2.052063,0.941217 0.773372,0.01226 1.311581,-0.08478 1.767767,-0.318728 z"
       id="path10450"
       inkscape:connector-curvature="0"
       transform="matrix(0.26458333,0,0,0.26458333,0,292)" />
    <path
       style="fill:#008000;fill-opacity:0.34574471;stroke:none;stroke-width:0.06681324;stroke-linecap:round;stroke-linejoin:bevel;stroke-miterlimit:4;stroke-dasharray:none;stroke-dashoffset:0;stroke-opacity:0.55825243;paint-order:markers stroke fill"
       d="M 56.914349,9.4997808 V 0.66094607 h 9.192388 9.192388 V 9.4997808 18.338616 h -9.192388 -9.192388 z"
       id="path10452"
       inkscape:connector-curvature="0"
       transform="matrix(0.26458333,0,0,0.26458333,0,292)" />
    <path
       style="fill:#008000;fill-opacity:0.34574471;stroke:none;stroke-width:0.06681324;stroke-linecap:round;stroke-linejoin:bevel;stroke-miterlimit:4;stroke-dasharray:none;stroke-dashoffset:0;stroke-opacity:0.55825243;paint-order:markers stroke fill"
       d="M 75.829455,9.4997808 V 0.66094607 h 9.192388 9.192388 V 9.4997808 18.338616 h -9.192388 -9.192388 z"
       id="path10454"
       inkscape:connector-curvature="0"
       transform="matrix(0.26458333,0,0,0.26458333,0,292)" />
    <path
       style="fill:#008000;fill-opacity:0.34574471;stroke:none;stroke-width:0.06681324;stroke-linecap:round;stroke-linejoin:bevel;stroke-miterlimit:4;stroke-dasharray:none;stroke-dashoffset:0;stroke-opacity:0.55825243;paint-order:markers stroke fill"
       d="M 94.744562,9.4997808 V 0.66094607 h 9.192388 9.19239 V 4.9726534 9.2843608 l -1.29806,0.065549 c -1.07609,0.05434 -1.40435,0.1466227 -1.91967,0.5396733 -0.34188,0.2607679 -0.76239,0.7708059 -0.93446,1.1334159 -0.40401,0.851395 -0.53987,2.599236 -0.27743,3.569131 0.44001,1.626126 2.08232,2.703442 3.72165,2.441303 l 0.70797,-0.113209 v 0.709196 0.709196 h -9.19239 -9.192388 z m 7.424618,4.2426412 v -3.181981 h 0.97227 c 0.96246,0 0.97228,-0.0054 0.97228,-0.53033 0,-0.5249733 -0.01,-0.5303302 -0.97228,-0.5303302 h -0.97227 V 8.8936894 c 0,-0.9433763 0.35118,-1.1616755 1.86879,-1.1616755 h 1.31319 v 4.6068651 4.606865 l 0.66292,-0.05486 0.66291,-0.05487 0.0469,-5.08233 0.0469,-5.0823303 -2.25662,6.608e-4 c -2.91706,8.542e-4 -3.28439,0.1804964 -3.59475,1.7580096 -0.19892,1.0111008 -0.23828,1.0697567 -0.71779,1.0697567 -0.44585,0 -0.507331,0.064268 -0.507331,0.5303302 0,0.471405 0.05893,0.53033 0.530331,0.53033 h 0.53033 v 3.064129 c 0,1.685272 0.053,3.117163 0.11785,3.181981 0.0648,0.06482 0.38302,0.117851 0.70711,0.117851 h 0.58925 z"
       id="path10456"
       inkscape:connector-curvature="0"
       transform="matrix(0.26458333,0,0,0.26458333,0,292)" />
    <path
       style="fill:#008000;fill-opacity:0.34574471;stroke:none;stroke-width:0.06681324;stroke-linecap:round;stroke-linejoin:bevel;stroke-miterlimit:4;stroke-dasharray:none;stroke-dashoffset:0;stroke-opacity:0.55825243;paint-order:markers stroke fill"
       d="m 113.65967,17.524368 c 0,-0.660374 0.0844,-0.880675 0.44687,-1.165758 1.64231,-1.291837 1.63373,-5.326939 -0.0136,-6.4063195 L 113.65967,9.6684071 V 5.1646766 0.66094607 h 9.19239 9.19238 V 9.4997808 18.338616 h -9.19238 -9.19239 z m 6.8493,-0.695096 c 0.35792,-0.149549 0.79289,-0.400527 0.9666,-0.557729 0.29572,-0.267622 0.31583,-0.255936 0.31583,0.183519 0,0.418537 0.067,0.46934 0.61871,0.46934 h 0.61872 l -0.004,-2.695845 c -0.005,-3.232995 -0.22295,-3.946244 -1.39,-4.5416285 -0.81716,-0.4168812 -2.48008,-0.4737995 -3.64425,-0.1247354 -0.61385,0.1840539 -0.71442,0.2871826 -0.7625,0.7819099 -0.0305,0.31344 -0.017,0.569891 0.0299,0.569891 0.0469,0 0.57862,-0.126379 1.18155,-0.280842 1.71879,-0.440333 3.17496,0.05754 3.17496,1.085529 0,0.365885 -0.0938,0.39422 -1.5468,0.467284 -2.42361,0.121869 -3.26697,0.756741 -3.26697,2.459351 0,1.899851 1.82109,2.972409 3.70812,2.183956 z m 8.70705,-0.523588 v -0.618719 h -1.02531 c -0.56392,0 -1.12076,-0.09546 -1.23743,-0.212132 -0.14373,-0.143725 -0.21214,-0.970308 -0.21214,-2.563262 v -2.35113 h 1.23744 1.23744 v -0.53033 -0.5303302 h -1.23744 -1.23744 V 8.4391207 7.3784605 h -0.7071 -0.70711 v 1.0606602 c 0,1.0135196 -0.0196,1.0606601 -0.44194,1.0606601 -0.3732,0 -0.44194,0.082496 -0.44194,0.5303302 0,0.442323 0.0706,0.53033 0.42536,0.53033 h 0.42537 l 0.0608,2.527336 c 0.0827,3.437778 0.33851,3.781368 2.845,3.820682 l 1.01647,0.01594 z"
       id="path10458"
       inkscape:connector-curvature="0"
       transform="matrix(0.26458333,0,0,0.26458333,0,292)" />
    <path
       style="fill:#008000;fill-opacity:0.34574471;stroke:none;stroke-width:0.06681324;stroke-linecap:round;stroke-linejoin:bevel;stroke-miterlimit:4;stroke-dasharray:none;stroke-dashoffset:0;stroke-opacity:0.55825243;paint-order:markers stroke fill"
       d="m 118.44547,15.39796 c -0.63623,-0.808832 -0.40497,-1.661027 0.54015,-1.990498 0.30824,-0.107454 1.05537,-0.195371 1.66028,-0.195371 h 1.09985 l -0.1525,0.83969 c -0.21027,1.157764 -0.93291,1.811961 -2.00152,1.811961 -0.63196,0 -0.84937,-0.08834 -1.14626,-0.465782 z"
       id="path10460"
       inkscape:connector-curvature="0"
       transform="matrix(0.26458333,0,0,0.26458333,0,292)" />
    <path
       style="fill:#008000;fill-opacity:0.34574471;stroke:none;stroke-width:0.06681324;stroke-linecap:round;stroke-linejoin:bevel;stroke-miterlimit:4;stroke-dasharray:none;stroke-dashoffset:0;stroke-opacity:0.55825243;paint-order:markers stroke fill"
       d="m 110.88531,15.598873 c -0.61202,-0.428673 -1.00372,-1.698523 -0.88343,-2.863992 0.17516,-1.69714 1.15495,-2.574448 2.44389,-2.188273 l 0.68357,0.204802 v 2.37317 c 0,2.16536 -0.0299,2.389194 -0.34193,2.556165 -0.49673,0.265839 -1.46519,0.224153 -1.9021,-0.08187 z"
       id="path10462"
       inkscape:connector-curvature="0"
       transform="matrix(0.26458333,0,0,0.26458333,0,292)" />
    <path
       style="fill:#008000;fill-opacity:0.34574471;stroke:none;stroke-width:0.06681324;stroke-linecap:round;stroke-linejoin:bevel;stroke-miterlimit:4;stroke-dasharray:none;stroke-dashoffset:0;stroke-opacity:0.55825243;paint-order:markers stroke fill"
       d="m 51.100176,11.197631 c -0.613258,-0.339902 -0.889962,-0.954843 -0.897078,-1.9936462 -0.01057,-1.5430951 1.064504,-2.436527 2.401095,-1.9954121 0.378059,0.1247705 0.708313,0.4010663 0.88287,0.7386226 0.359204,0.6946239 0.348906,2.1636357 -0.0191,2.7252917 -0.483718,0.738247 -1.55473,0.975784 -2.367782,0.525144 z"
       id="path10464"
       inkscape:connector-curvature="0"
       transform="matrix(0.26458333,0,0,0.26458333,0,292)" />
    <path
       style="fill:#008000;fill-opacity:0.34574471;stroke:none;stroke-width:0.06681324;stroke-linecap:round;stroke-linejoin:bevel;stroke-miterlimit:4;stroke-dasharray:none;stroke-dashoffset:0;stroke-opacity:0.55825243;paint-order:markers stroke fill"
       d="m 24.495332,12.107237 c 0.379362,-0.651036 2.614422,-4.1347777 2.744628,-4.2779959 0.08649,-0.095137 0.152681,0.8436169 0.152681,2.1655145 v 2.3334524 h -1.513035 c -1.161249,0 -1.483098,-0.05138 -1.384274,-0.220971 z"
       id="path10466"
       inkscape:connector-curvature="0"
       transform="matrix(0.26458333,0,0,0.26458333,0,292)" />
  </g>
</svg>
