<?xml version="1.0" encoding="UTF-8" standalone="no"?>
<!-- Created with Inkscape (http://www.inkscape.org/) -->

<svg
   xmlns:dc="http://purl.org/dc/elements/1.1/"
   xmlns:cc="http://creativecommons.org/ns#"
   xmlns:rdf="http://www.w3.org/1999/02/22-rdf-syntax-ns#"
   xmlns:svg="http://www.w3.org/2000/svg"
   xmlns="http://www.w3.org/2000/svg"
   xmlns:xlink="http://www.w3.org/1999/xlink"
   xmlns:sodipodi="http://sodipodi.sourceforge.net/DTD/sodipodi-0.dtd"
   xmlns:inkscape="http://www.inkscape.org/namespaces/inkscape"
   width="300mm"
   height="74mm"
   viewBox="0 0 300 74"
   version="1.1"
   id="svg8"
   inkscape:version="0.92.3 (2405546, 2018-03-11)"
   sodipodi:docname="hdf5_types.svg">
  <defs
     id="defs2" />
  <sodipodi:namedview
     id="base"
     pagecolor="#ffffff"
     bordercolor="#666666"
     borderopacity="1.0"
     inkscape:pageopacity="0.0"
     inkscape:pageshadow="2"
     inkscape:zoom="0.67468853"
     inkscape:cx="534.73129"
     inkscape:cy="122.7046"
     inkscape:document-units="mm"
     inkscape:current-layer="layer1"
     showgrid="true"
     inkscape:window-width="1366"
     inkscape:window-height="768"
     inkscape:window-x="0"
     inkscape:window-y="0"
     inkscape:window-maximized="1">
    <inkscape:grid
       type="xygrid"
       id="grid10"
       units="mm"
       spacingx="5.0000001"
       spacingy="5.0000001" />
  </sodipodi:namedview>
  <metadata
     id="metadata5">
    <rdf:RDF>
      <cc:Work
         rdf:about="">
        <dc:format>image/svg+xml</dc:format>
        <dc:type
           rdf:resource="http://purl.org/dc/dcmitype/StillImage" />
        <dc:title></dc:title>
      </cc:Work>
    </rdf:RDF>
  </metadata>
  <g
     inkscape:label="Layer 1"
     inkscape:groupmode="layer"
     id="layer1"
     transform="translate(0,-223)">
    <g
       id="g7737"
       transform="translate(229.83458,-30.670027)">
      <g
         transform="matrix(0.35277777,0,0,0.35277777,-1160.4998,471.86797)"
         id="node1"
         class="node">
        <title
           id="title3395">h5_types</title>
        <polygon
           points="3108.094,-579 3108.094,-609 3102.094,-615 3025.094,-615 3025.094,-579 "
           id="polygon3397"
           style="fill:#d3d3d3;stroke:#000000" />
        <polyline
           points="3102.094,-615 3102.094,-609 "
           id="polyline3399"
           style="fill:none;stroke:#000000" />
        <polyline
           points="3108.094,-609 3102.094,-609 "
           id="polyline3401"
           style="fill:none;stroke:#000000" />
        <text
           x="3066.594"
           y="-593.29999"
           font-size="14.00"
           id="text3403"
           style="font-size:14px;font-family:Times, serif;text-anchor:middle;fill:#000000">HDF5 types</text>
      </g>
      <g
         transform="matrix(0.35277777,0,0,0.35277777,-1160.4998,471.86797)"
         id="node2"
         class="node">
        <title
           id="title3406">h5_atomic</title>
        <g
           id="a_node2">
          <a
             xlink:title="C++ Fundamental"
             id="a3416">
            <polygon
               points="2940.594,-482 2940.594,-512 2934.594,-518 2882.594,-518 2882.594,-482 "
               id="polygon3408"
               style="fill:#d3d3d3;stroke:#000000" />
            <polyline
               points="2934.594,-518 2934.594,-512 "
               id="polyline3410"
               style="fill:none;stroke:#000000" />
            <polyline
               points="2940.594,-512 2934.594,-512 "
               id="polyline3412"
               style="fill:none;stroke:#000000" />
            <text
               x="2911.594"
               y="-496.29999"
               font-size="14.00"
               id="text3414"
               style="font-size:14px;font-family:Times, serif;text-anchor:middle;fill:#000000">Atomic</text>
          </a>
        </g>
      </g>
      <g
         transform="matrix(0.35277777,0,0,0.35277777,-1160.4998,471.86797)"
         id="edge21"
         class="edge">
        <title
           id="title3420">h5_types-&gt;h5_atomic</title>
        <path
           d="m 3037.8029,-578.9824 c -25.0426,15.6719 -61.4961,38.4847 -88.7942,55.5681"
           id="path3422"
           inkscape:connector-curvature="0"
           style="fill:none;stroke:#000000" />
        <polygon
           points="2950.8271,-520.4235 2940.4934,-518.0855 2947.1136,-526.3573 "
           id="polygon3424"
           style="fill:#000000;stroke:#000000" />
      </g>
      <g
         transform="matrix(0.35277777,0,0,0.35277777,-1160.4998,471.86797)"
         id="node3"
         class="node">
        <title
           id="title3427">h5_composite</title>
        <polygon
           points="3258.594,-482 3258.594,-512 3252.594,-518 3182.594,-518 3182.594,-482 "
           id="polygon3429"
           style="fill:#d3d3d3;stroke:#000000" />
        <polyline
           points="3252.594,-518 3252.594,-512 "
           id="polyline3431"
           style="fill:none;stroke:#000000" />
        <polyline
           points="3258.594,-512 3252.594,-512 "
           id="polyline3433"
           style="fill:none;stroke:#000000" />
        <text
           x="3220.594"
           y="-496.29999"
           font-size="14.00"
           id="text3435"
           style="font-size:14px;font-family:Times, serif;text-anchor:middle;fill:#000000">Composite</text>
      </g>
      <g
         transform="matrix(0.35277777,0,0,0.35277777,-1160.4998,471.86797)"
         id="edge22"
         class="edge">
        <title
           id="title3438">h5_types-&gt;h5_composite</title>
        <path
           d="m 3095.1993,-578.9824 c 24.7734,15.604 60.7861,38.2874 87.8687,55.3459"
           id="path3440"
           inkscape:connector-curvature="0"
           style="fill:none;stroke:#000000" />
        <polygon
           points="3185.285,-526.3766 3191.881,-518.0855 3181.5542,-520.4536 "
           id="polygon3442"
           style="fill:#000000;stroke:#000000" />
      </g>
      <g
         transform="matrix(0.35277777,0,0,0.35277777,-1160.4998,471.86797)"
         id="node4"
         class="node">
        <title
           id="title3445">h5_bitfield</title>
        <polygon
           points="2702.594,-410 2702.594,-440 2696.594,-446 2644.594,-446 2644.594,-410 "
           id="polygon3447"
           style="fill:#d3d3d3;stroke:#000000" />
        <polyline
           points="2696.594,-446 2696.594,-440 "
           id="polyline3449"
           style="fill:none;stroke:#000000" />
        <polyline
           points="2702.594,-440 2696.594,-440 "
           id="polyline3451"
           style="fill:none;stroke:#000000" />
        <text
           x="2673.594"
           y="-424.29999"
           font-size="14.00"
           id="text3453"
           style="font-size:14px;font-family:Times, serif;text-anchor:middle;fill:#000000">Bitfield</text>
      </g>
      <g
         transform="matrix(0.35277777,0,0,0.35277777,-1160.4998,471.86797)"
         id="edge23"
         class="edge">
        <title
           id="title3456">h5_atomic-&gt;h5_bitfield</title>
        <path
           d="m 2882.272,-493.8133 c -37.5865,8.3012 -104.7714,24.3882 -169.8579,47.8198"
           id="path3458"
           inkscape:connector-curvature="0"
           style="fill:none;stroke:#000000" />
        <polygon
           points="2713.4239,-442.6361 2702.8301,-442.4832 2711.0163,-449.209 "
           id="polygon3460"
           style="fill:#000000;stroke:#000000" />
      </g>
      <g
         transform="matrix(0.35277777,0,0,0.35277777,-1160.4998,471.86797)"
         id="node5"
         class="node">
        <title
           id="title3463">h5_string</title>
        <polygon
           points="2774.594,-410 2774.594,-440 2768.594,-446 2720.594,-446 2720.594,-410 "
           id="polygon3465"
           style="fill:#d3d3d3;stroke:#000000" />
        <polyline
           points="2768.594,-446 2768.594,-440 "
           id="polyline3467"
           style="fill:none;stroke:#000000" />
        <polyline
           points="2774.594,-440 2768.594,-440 "
           id="polyline3469"
           style="fill:none;stroke:#000000" />
        <text
           x="2747.594"
           y="-424.29999"
           font-size="14.00"
           id="text3471"
           style="font-size:14px;font-family:Times, serif;text-anchor:middle;fill:#000000">String</text>
      </g>
      <g
         transform="matrix(0.35277777,0,0,0.35277777,-1160.4998,471.86797)"
         id="edge24"
         class="edge">
        <title
           id="title3474">h5_atomic-&gt;h5_string</title>
        <path
           d="m 2882.3845,-488.3037 c -24.1595,9.8113 -59.5273,24.4879 -98.3535,42.2273"
           id="path3476"
           inkscape:connector-curvature="0"
           style="fill:none;stroke:#000000" />
        <polygon
           points="2785.1779,-442.7515 2774.6303,-441.7518 2782.2524,-449.1108 "
           id="polygon3478"
           style="fill:#000000;stroke:#000000" />
      </g>
      <g
         transform="matrix(0.35277777,0,0,0.35277777,-1160.4998,471.86797)"
         id="node6"
         class="node">
        <title
           id="title3481">h5_reference</title>
        <polygon
           points="2864.094,-410 2864.094,-440 2858.094,-446 2793.094,-446 2793.094,-410 "
           id="polygon3483"
           style="fill:#d3d3d3;stroke:#000000" />
        <polyline
           points="2858.094,-446 2858.094,-440 "
           id="polyline3485"
           style="fill:none;stroke:#000000" />
        <polyline
           points="2864.094,-440 2858.094,-440 "
           id="polyline3487"
           style="fill:none;stroke:#000000" />
        <text
           x="2828.594"
           y="-424.29999"
           font-size="14.00"
           id="text3489"
           style="font-size:14px;font-family:Times, serif;text-anchor:middle;fill:#000000">Reference</text>
      </g>
      <g
         transform="matrix(0.35277777,0,0,0.35277777,-1160.4998,471.86797)"
         id="edge25"
         class="edge">
        <title
           id="title3492">h5_atomic-&gt;h5_reference</title>
        <path
           d="m 2890.6496,-481.8314 c -10.1247,8.7829 -22.4332,19.4602 -33.4104,28.9825"
           id="path3494"
           inkscape:connector-curvature="0"
           style="fill:none;stroke:#000000" />
        <polygon
           points="2859.3791,-450.0718 2849.5317,-446.1628 2854.7921,-455.3595 "
           id="polygon3496"
           style="fill:#000000;stroke:#000000" />
      </g>
      <g
         transform="matrix(0.35277777,0,0,0.35277777,-1160.4998,471.86797)"
         id="node7"
         class="node">
        <title
           id="title3499">h5_opaque</title>
        <polygon
           points="2941.094,-410 2941.094,-440 2935.094,-446 2882.094,-446 2882.094,-410 "
           id="polygon3501"
           style="fill:#d3d3d3;stroke:#000000" />
        <polyline
           points="2935.094,-446 2935.094,-440 "
           id="polyline3503"
           style="fill:none;stroke:#000000" />
        <polyline
           points="2941.094,-440 2935.094,-440 "
           id="polyline3505"
           style="fill:none;stroke:#000000" />
        <text
           x="2911.594"
           y="-424.29999"
           font-size="14.00"
           id="text3507"
           style="font-size:14px;font-family:Times, serif;text-anchor:middle;fill:#000000">Opaque</text>
      </g>
      <g
         transform="matrix(0.35277777,0,0,0.35277777,-1160.4998,471.86797)"
         id="edge26"
         class="edge">
        <title
           id="title3510">h5_atomic-&gt;h5_opaque</title>
        <path
           d="m 2911.594,-481.8314 c 0,7.7004 0,16.8571 0,25.4148"
           id="path3512"
           inkscape:connector-curvature="0"
           style="fill:none;stroke:#000000" />
        <polygon
           points="2915.0941,-456.4132 2911.594,-446.4133 2908.0941,-456.4133 "
           id="polygon3514"
           style="fill:#000000;stroke:#000000" />
      </g>
      <g
         transform="matrix(0.35277777,0,0,0.35277777,-1160.4998,471.86797)"
         id="node8"
         class="node">
        <title
           id="title3517">h5_integer</title>
        <polygon
           points="3014.094,-410 3014.094,-440 3008.094,-446 2959.094,-446 2959.094,-410 "
           id="polygon3519"
           style="fill:#d3d3d3;stroke:#000000" />
        <polyline
           points="3008.094,-446 3008.094,-440 "
           id="polyline3521"
           style="fill:none;stroke:#000000" />
        <polyline
           points="3014.094,-440 3008.094,-440 "
           id="polyline3523"
           style="fill:none;stroke:#000000" />
        <text
           x="2986.594"
           y="-424.29999"
           font-size="14.00"
           id="text3525"
           style="font-size:14px;font-family:Times, serif;text-anchor:middle;fill:#000000">Integer</text>
      </g>
      <g
         transform="matrix(0.35277777,0,0,0.35277777,-1160.4998,471.86797)"
         id="edge27"
         class="edge">
        <title
           id="title3528">h5_atomic-&gt;h5_integer</title>
        <path
           d="m 2930.5197,-481.8314 c 9.06,8.6977 20.0552,19.2531 29.9008,28.7049"
           id="path3530"
           inkscape:connector-curvature="0"
           style="fill:none;stroke:#000000" />
        <polygon
           points="2962.8844,-455.613 2967.6744,-446.1628 2958.0366,-450.5633 "
           id="polygon3532"
           style="fill:#000000;stroke:#000000" />
      </g>
      <g
         transform="matrix(0.35277777,0,0,0.35277777,-1160.4998,471.86797)"
         id="node9"
         class="node">
        <title
           id="title3535">h5_float</title>
        <polygon
           points="3086.594,-410 3086.594,-440 3080.594,-446 3032.594,-446 3032.594,-410 "
           id="polygon3537"
           style="fill:#d3d3d3;stroke:#000000" />
        <polyline
           points="3080.594,-446 3080.594,-440 "
           id="polyline3539"
           style="fill:none;stroke:#000000" />
        <polyline
           points="3086.594,-440 3080.594,-440 "
           id="polyline3541"
           style="fill:none;stroke:#000000" />
        <text
           x="3059.594"
           y="-424.29999"
           font-size="14.00"
           id="text3543"
           style="font-size:14px;font-family:Times, serif;text-anchor:middle;fill:#000000">Float</text>
      </g>
      <g
         transform="matrix(0.35277777,0,0,0.35277777,-1160.4998,471.86797)"
         id="edge28"
         class="edge">
        <title
           id="title3546">h5_atomic-&gt;h5_float</title>
        <path
           d="m 2940.834,-485.7751 c 23.6048,11.4834 56.9425,27.7017 82.2902,40.033"
           id="path3548"
           inkscape:connector-curvature="0"
           style="fill:none;stroke:#000000" />
        <polygon
           points="3024.9496,-448.7463 3032.4108,-441.2242 3021.8873,-442.4516 "
           id="polygon3550"
           style="fill:#000000;stroke:#000000" />
      </g>
      <g
         transform="matrix(0.35277777,0,0,0.35277777,-1160.4998,471.86797)"
         id="node10"
         class="node">
        <title
           id="title3553">h5_array</title>
        <polygon
           points="3158.594,-410 3158.594,-440 3152.594,-446 3104.594,-446 3104.594,-410 "
           id="polygon3555"
           style="fill:#d3d3d3;stroke:#000000" />
        <polyline
           points="3152.594,-446 3152.594,-440 "
           id="polyline3557"
           style="fill:none;stroke:#000000" />
        <polyline
           points="3158.594,-440 3152.594,-440 "
           id="polyline3559"
           style="fill:none;stroke:#000000" />
        <text
           x="3131.594"
           y="-424.29999"
           font-size="14.00"
           id="text3561"
           style="font-size:14px;font-family:Times, serif;text-anchor:middle;fill:#000000">Array</text>
      </g>
      <g
         transform="matrix(0.35277777,0,0,0.35277777,-1160.4998,471.86797)"
         id="edge29"
         class="edge">
        <title
           id="title3564">h5_composite-&gt;h5_array</title>
        <path
           d="m 3198.1355,-481.8314 c -10.962,8.8682 -24.3114,19.6677 -36.168,29.2596"
           id="path3566"
           inkscape:connector-curvature="0"
           style="fill:none;stroke:#000000" />
        <polygon
           points="3164.0211,-449.7313 3154.0453,-446.1628 3159.6185,-455.1734 "
           id="polygon3568"
           style="fill:#000000;stroke:#000000" />
      </g>
      <g
         transform="matrix(0.35277777,0,0,0.35277777,-1160.4998,471.86797)"
         id="node11"
         class="node">
        <title
           id="title3571">h5_enumeration</title>
        <polygon
           points="3264.094,-410 3264.094,-440 3258.094,-446 3177.094,-446 3177.094,-410 "
           id="polygon3573"
           style="fill:#d3d3d3;stroke:#000000" />
        <polyline
           points="3258.094,-446 3258.094,-440 "
           id="polyline3575"
           style="fill:none;stroke:#000000" />
        <polyline
           points="3264.094,-440 3258.094,-440 "
           id="polyline3577"
           style="fill:none;stroke:#000000" />
        <text
           x="3220.594"
           y="-424.29999"
           font-size="14.00"
           id="text3579"
           style="font-size:14px;font-family:Times, serif;text-anchor:middle;fill:#000000">Enumeration</text>
      </g>
      <g
         transform="matrix(0.35277777,0,0,0.35277777,-1160.4998,471.86797)"
         id="edge30"
         class="edge">
        <title
           id="title3582">h5_composite-&gt;h5_enumeration</title>
        <path
           d="m 3220.594,-481.8314 c 0,7.7004 0,16.8571 0,25.4148"
           id="path3584"
           inkscape:connector-curvature="0"
           style="fill:none;stroke:#000000" />
        <polygon
           points="3224.0941,-456.4132 3220.594,-446.4133 3217.0941,-456.4133 "
           id="polygon3586"
           style="fill:#000000;stroke:#000000" />
      </g>
      <g
         transform="matrix(0.35277777,0,0,0.35277777,-1160.4998,471.86797)"
         id="node12"
         class="node">
        <title
           id="title3589">h5_variable_length</title>
        <polygon
           points="3387.094,-410 3387.094,-440 3381.094,-446 3282.094,-446 3282.094,-410 "
           id="polygon3591"
           style="fill:#d3d3d3;stroke:#000000" />
        <polyline
           points="3381.094,-446 3381.094,-440 "
           id="polyline3593"
           style="fill:none;stroke:#000000" />
        <polyline
           points="3387.094,-440 3381.094,-440 "
           id="polyline3595"
           style="fill:none;stroke:#000000" />
        <text
           x="3334.594"
           y="-424.29999"
           font-size="14.00"
           id="text3597"
           style="font-size:14px;font-family:Times, serif;text-anchor:middle;fill:#000000">Variable Length</text>
      </g>
      <g
         transform="matrix(0.35277777,0,0,0.35277777,-1160.4998,471.86797)"
         id="edge31"
         class="edge">
        <title
           id="title3600">h5_composite-&gt;h5_variable_length</title>
        <path
           d="m 3249.361,-481.8314 c 14.4463,9.124 32.1295,20.2924 47.637,30.0865"
           id="path3602"
           inkscape:connector-curvature="0"
           style="fill:none;stroke:#000000" />
        <polygon
           points="3299.2503,-454.462 3305.8362,-446.1628 3295.5123,-448.5436 "
           id="polygon3604"
           style="fill:#000000;stroke:#000000" />
      </g>
      <g
         transform="matrix(0.35277777,0,0,0.35277777,-1160.4998,471.86797)"
         id="node13"
         class="node">
        <title
           id="title3607">h5_compound</title>
        <polygon
           points="3482.094,-410 3482.094,-440 3476.094,-446 3405.094,-446 3405.094,-410 "
           id="polygon3609"
           style="fill:#d3d3d3;stroke:#000000" />
        <polyline
           points="3476.094,-446 3476.094,-440 "
           id="polyline3611"
           style="fill:none;stroke:#000000" />
        <polyline
           points="3482.094,-440 3476.094,-440 "
           id="polyline3613"
           style="fill:none;stroke:#000000" />
        <text
           x="3443.594"
           y="-424.29999"
           font-size="14.00"
           id="text3615"
           style="font-size:14px;font-family:Times, serif;text-anchor:middle;fill:#000000">Compound</text>
      </g>
      <g
         transform="matrix(0.35277777,0,0,0.35277777,-1160.4998,471.86797)"
         id="edge32"
         class="edge">
        <title
           id="title3618">h5_composite-&gt;h5_compound</title>
        <path
           d="m 3258.6963,-488.954 c 33.5763,9.8923 83.9932,25.1288 136.684,42.9737"
           id="path3620"
           inkscape:connector-curvature="0"
           style="fill:none;stroke:#000000" />
        <polygon
           points="3396.5563,-449.2773 3404.8926,-442.7384 3394.2981,-442.6515 "
           id="polygon3622"
           style="fill:#000000;stroke:#000000" />
      </g>
    </g>
  </g>
</svg>
