<?xml version="1.0" encoding="UTF-8" standalone="no"?>
<!-- Created with Inkscape (http://www.inkscape.org/) -->

<svg
   xmlns:osb="http://www.openswatchbook.org/uri/2009/osb"
   xmlns:dc="http://purl.org/dc/elements/1.1/"
   xmlns:cc="http://creativecommons.org/ns#"
   xmlns:rdf="http://www.w3.org/1999/02/22-rdf-syntax-ns#"
   xmlns:svg="http://www.w3.org/2000/svg"
   xmlns="http://www.w3.org/2000/svg"
   xmlns:xlink="http://www.w3.org/1999/xlink"
   xmlns:sodipodi="http://sodipodi.sourceforge.net/DTD/sodipodi-0.dtd"
   xmlns:inkscape="http://www.inkscape.org/namespaces/inkscape"
   width="45mm"
   height="40mm"
   viewBox="0 0 45 40"
   version="1.1"
   id="svg8"
   inkscape:version="0.92.3 (2405546, 2018-03-11)"
   sodipodi:docname="hypercube.svg">
  <defs
     id="defs2">
    <linearGradient
       inkscape:collect="always"
       id="linearGradient6308">
      <stop
         style="stop-color:#000000;stop-opacity:1;"
         offset="0"
         id="stop6304" />
      <stop
         style="stop-color:#000000;stop-opacity:0;"
         offset="1"
         id="stop6306" />
    </linearGradient>
    <linearGradient
       id="linearGradient6222"
       osb:paint="solid">
      <stop
         style="stop-color:#000000;stop-opacity:1;"
         offset="0"
         id="stop6220" />
    </linearGradient>
    <linearGradient
       inkscape:collect="always"
       xlink:href="#linearGradient6308"
       id="linearGradient6310"
       x1="30"
       y1="282"
       x2="35"
       y2="282"
       gradientUnits="userSpaceOnUse" />
  </defs>
  <sodipodi:namedview
     id="base"
     pagecolor="#ffffff"
     bordercolor="#666666"
     borderopacity="1.0"
     inkscape:pageopacity="0.0"
     inkscape:pageshadow="2"
     inkscape:zoom="3.349625"
     inkscape:cx="94.211521"
     inkscape:cy="62.726753"
     inkscape:document-units="mm"
     inkscape:current-layer="layer1"
     showgrid="true"
     inkscape:window-width="1366"
     inkscape:window-height="768"
     inkscape:window-x="0"
     inkscape:window-y="0"
     inkscape:window-maximized="0">
    <inkscape:grid
       type="xygrid"
       id="grid10"
       units="mm"
       spacingx="5.0000001"
       spacingy="5.0000001" />
  </sodipodi:namedview>
  <metadata
     id="metadata5">
    <rdf:RDF>
      <cc:Work
         rdf:about="">
        <dc:format>image/svg+xml</dc:format>
        <dc:type
           rdf:resource="http://purl.org/dc/dcmitype/StillImage" />
        <dc:title></dc:title>
      </cc:Work>
    </rdf:RDF>
  </metadata>
  <g
     inkscape:label="Layer 1"
     inkscape:groupmode="layer"
     id="layer1"
     transform="translate(0,-257)">
    <text
       xml:space="preserve"
       style="font-style:normal;font-weight:normal;font-size:4.58611107px;line-height:1.25;font-family:sans-serif;letter-spacing:0px;word-spacing:0px;fill:#000000;fill-opacity:1;stroke:none;stroke-width:0.26458332"
       x="5"
       y="262"
       id="text49"><tspan
         sodipodi:role="line"
         id="tspan47"
         x="5"
         y="266.05765"
         style="font-size:4.58611107px;stroke-width:0.26458332" /></text>
    <text
       xml:space="preserve"
       style="font-style:normal;font-weight:normal;font-size:10.58333302px;line-height:1.25;font-family:sans-serif;letter-spacing:0px;word-spacing:0px;fill:#000000;fill-opacity:1;stroke:none;stroke-width:0.26458332"
       x="5"
       y="262"
       id="text53"><tspan
         sodipodi:role="line"
         id="tspan51"
         x="5"
         y="271.36377"
         style="stroke-width:0.26458332" /></text>
    <path
       style="fill:none;stroke:#000000;stroke-width:0.30000001;stroke-linecap:butt;stroke-linejoin:bevel;stroke-miterlimit:4.9000001;stroke-dasharray:none;stroke-dashoffset:0;stroke-opacity:1;paint-order:markers stroke fill"
       d="m 0,272 v 25 h 25 v -25 z"
       id="path6252"
       inkscape:connector-curvature="0" />
    <path
       style="fill:none;stroke:#000000;stroke-width:0.1;stroke-linecap:butt;stroke-linejoin:miter;stroke-miterlimit:4;stroke-dasharray:none;stroke-opacity:1"
       d="m 5,272 v 25"
       id="path6254"
       inkscape:connector-curvature="0" />
    <path
       style="fill:none;stroke:#000000;stroke-width:0.1;stroke-linecap:butt;stroke-linejoin:miter;stroke-miterlimit:4;stroke-dasharray:none;stroke-opacity:1"
       d="m 10,272 v 25"
       id="path6256"
       inkscape:connector-curvature="0" />
    <path
       style="fill:none;stroke:#000000;stroke-width:0.1;stroke-linecap:butt;stroke-linejoin:miter;stroke-miterlimit:4;stroke-dasharray:none;stroke-opacity:1"
       d="m 15,272 v 25"
       id="path6258"
       inkscape:connector-curvature="0" />
    <path
       style="fill:none;stroke:#000000;stroke-width:0.1;stroke-linecap:butt;stroke-linejoin:miter;stroke-miterlimit:4;stroke-dasharray:none;stroke-opacity:1"
       d="m 20,272 v 25"
       id="path6260"
       inkscape:connector-curvature="0" />
    <path
       style="fill:none;stroke:#000000;stroke-width:0.1;stroke-linecap:butt;stroke-linejoin:miter;stroke-miterlimit:4;stroke-dasharray:none;stroke-opacity:1"
       d="M 0,277 H 25"
       id="path6262"
       inkscape:connector-curvature="0" />
    <path
       style="fill:none;stroke:#000000;stroke-width:0.1;stroke-linecap:butt;stroke-linejoin:miter;stroke-miterlimit:4;stroke-dasharray:none;stroke-opacity:1"
       d="M 0,282 H 25"
       id="path6264"
       inkscape:connector-curvature="0" />
    <path
       style="fill:none;stroke:#000000;stroke-width:0.1;stroke-linecap:butt;stroke-linejoin:miter;stroke-miterlimit:4;stroke-dasharray:none;stroke-opacity:1"
       d="M 0,287 H 25"
       id="path6266"
       inkscape:connector-curvature="0" />
    <path
       style="fill:none;stroke:#000000;stroke-width:0.1;stroke-linecap:butt;stroke-linejoin:miter;stroke-miterlimit:4;stroke-dasharray:none;stroke-opacity:1"
       d="M 0,292 H 25"
       id="path6268"
       inkscape:connector-curvature="0" />
    <path
       style="fill:none;stroke:#000000;stroke-width:0.30000001;stroke-linecap:round;stroke-linejoin:bevel;stroke-miterlimit:4;stroke-dasharray:none;stroke-opacity:1"
       d="m 5,272 v -5 h 25 v 25 h -5"
       id="path6270"
       inkscape:connector-curvature="0" />
    <path
       style="fill:none;stroke:#000000;stroke-width:0.30000001;stroke-linecap:butt;stroke-linejoin:bevel;stroke-miterlimit:4;stroke-dasharray:none;stroke-opacity:1"
       d="m 10,267 v -5 h 25.000001 v 25 H 30"
       id="path6272"
       inkscape:connector-curvature="0" />
    <path
       style="fill:none;stroke:#000000;stroke-width:0.1;stroke-linecap:butt;stroke-linejoin:bevel;stroke-miterlimit:4;stroke-dasharray:0.8, 0.8;stroke-dashoffset:0;stroke-opacity:1"
       d="m 15,262 v -5 h 25.000002 v 25 h -5.000001"
       id="path6274"
       inkscape:connector-curvature="0" />
    <path
       style="fill:none;stroke:#000000;stroke-width:0.1;stroke-linecap:butt;stroke-linejoin:miter;stroke-miterlimit:4;stroke-dasharray:none;stroke-opacity:1"
       d="m 10,267 v 5"
       id="path6276"
       inkscape:connector-curvature="0" />
    <path
       style="fill:none;stroke:#000000;stroke-width:0.1;stroke-linecap:butt;stroke-linejoin:miter;stroke-miterlimit:4;stroke-dasharray:none;stroke-opacity:1"
       d="m 15,267 v 5"
       id="path6278"
       inkscape:connector-curvature="0" />
    <path
       style="fill:none;stroke:#000000;stroke-width:0.1;stroke-linecap:butt;stroke-linejoin:miter;stroke-miterlimit:4;stroke-dasharray:none;stroke-opacity:1"
       d="m 20,267 v 5"
       id="path6280"
       inkscape:connector-curvature="0" />
    <path
       style="fill:none;stroke:#000000;stroke-width:0.1;stroke-linecap:butt;stroke-linejoin:miter;stroke-miterlimit:4;stroke-dasharray:none;stroke-opacity:1"
       d="m 25,267 v 5 h 5"
       id="path6282"
       inkscape:connector-curvature="0" />
    <path
       style="fill:none;stroke:#000000;stroke-width:0.1;stroke-linecap:butt;stroke-linejoin:miter;stroke-miterlimit:4;stroke-dasharray:none;stroke-opacity:1"
       d="m 25,277 h 5"
       id="path6284"
       inkscape:connector-curvature="0" />
    <path
       style="fill:none;stroke:#000000;stroke-width:0.1;stroke-linecap:butt;stroke-linejoin:miter;stroke-miterlimit:4;stroke-dasharray:none;stroke-opacity:1"
       d="m 25,282 h 5"
       id="path6286"
       inkscape:connector-curvature="0" />
    <path
       style="fill:none;stroke:#000000;stroke-width:0.1;stroke-linecap:butt;stroke-linejoin:miter;stroke-miterlimit:4;stroke-dasharray:none;stroke-opacity:1"
       d="m 25,287 h 5"
       id="path6288"
       inkscape:connector-curvature="0" />
    <path
       style="fill:none;stroke:#000000;stroke-width:0.1;stroke-linecap:butt;stroke-linejoin:miter;stroke-miterlimit:4;stroke-dasharray:none;stroke-opacity:1"
       d="m 15,262 v 5"
       id="path6290"
       inkscape:connector-curvature="0" />
    <path
       style="fill:none;stroke:#000000;stroke-width:0.1;stroke-linecap:butt;stroke-linejoin:miter;stroke-miterlimit:4;stroke-dasharray:none;stroke-opacity:1"
       d="m 20,262 v 5"
       id="path6292"
       inkscape:connector-curvature="0" />
    <path
       style="fill:none;stroke:#000000;stroke-width:0.1;stroke-linecap:butt;stroke-linejoin:miter;stroke-miterlimit:4;stroke-dasharray:none;stroke-opacity:1"
       d="m 25,262 v 5"
       id="path6294"
       inkscape:connector-curvature="0" />
    <path
       style="fill:none;stroke:#000000;stroke-width:0.1;stroke-linecap:butt;stroke-linejoin:miter;stroke-miterlimit:4;stroke-dasharray:none;stroke-opacity:1"
       d="m 30,262 v 5 h 5.000001"
       id="path6296"
       inkscape:connector-curvature="0" />
    <path
       style="fill:none;stroke:#000000;stroke-width:0.1;stroke-linecap:butt;stroke-linejoin:miter;stroke-miterlimit:4;stroke-dasharray:none;stroke-opacity:1"
       d="m 30,272 h 5.000001"
       id="path6298"
       inkscape:connector-curvature="0" />
    <path
       style="fill:none;stroke:#000000;stroke-width:0.1;stroke-linecap:butt;stroke-linejoin:miter;stroke-miterlimit:4;stroke-dasharray:none;stroke-opacity:1"
       d="m 30,277 h 5.000001"
       id="path6300"
       inkscape:connector-curvature="0" />
    <path
       style="fill:none;stroke:url(#linearGradient6310);stroke-width:0.1;stroke-linecap:butt;stroke-linejoin:miter;stroke-miterlimit:4;stroke-dasharray:none;stroke-opacity:1"
       d="m 30,282 h 5.000001"
       id="path6302"
       inkscape:connector-curvature="0" />
    <path
       style="fill:none;fill-opacity:1;stroke-width:0.11283435;stroke-linecap:round;stroke-linejoin:bevel;stroke-miterlimit:4;stroke-dasharray:none;stroke-dashoffset:0;paint-order:markers stroke fill"
       d="m 0.827933,179.27049 v -8.95623 h 8.806956 8.806956 v 8.95623 8.95622 H 9.634889 0.827933 Z"
       id="path6312"
       inkscape:connector-curvature="0"
       transform="matrix(0.26458333,0,0,0.26458333,0,247)" />
    <path
       style="fill:none;fill-opacity:1;stroke:#2409db;stroke-width:0.11283435;stroke-linecap:round;stroke-linejoin:bevel;stroke-miterlimit:4;stroke-dasharray:none;stroke-dashoffset:0;stroke-opacity:0.7401962;paint-order:markers stroke fill"
       d="m 0.827933,179.27049 v -8.95623 h 8.806956 8.806956 v 8.95623 8.95622 H 9.634889 0.827933 Z"
       id="path6314"
       inkscape:connector-curvature="0"
       transform="matrix(0.26458333,0,0,0.26458333,0,247)" />
    <path
       style="fill:none;stroke:#000000;stroke-width:0.1;stroke-linecap:butt;stroke-linejoin:miter;stroke-miterlimit:4;stroke-dasharray:0.8, 0.8;stroke-dashoffset:0;stroke-opacity:1"
       d="m 20,257 v 5"
       id="path6510"
       inkscape:connector-curvature="0" />
    <path
       style="fill:none;stroke:#000000;stroke-width:0.1;stroke-linecap:butt;stroke-linejoin:miter;stroke-miterlimit:4;stroke-dasharray:0.8, 0.8;stroke-dashoffset:0;stroke-opacity:1"
       d="m 25,257 v 5"
       id="path6512"
       inkscape:connector-curvature="0" />
    <path
       style="fill:none;stroke:#000000;stroke-width:0.1;stroke-linecap:butt;stroke-linejoin:miter;stroke-miterlimit:4;stroke-dasharray:0.8, 0.8;stroke-dashoffset:0;stroke-opacity:1"
       d="m 30,257 v 5"
       id="path6514"
       inkscape:connector-curvature="0" />
    <path
       style="fill:none;stroke:#000000;stroke-width:0.1;stroke-linecap:butt;stroke-linejoin:miter;stroke-miterlimit:4;stroke-dasharray:0.8, 0.8;stroke-dashoffset:0;stroke-opacity:1"
       d="m 35.000001,257 v 5"
       id="path6516"
       inkscape:connector-curvature="0" />
    <path
       style="fill:none;stroke:#000000;stroke-width:0.1;stroke-linecap:butt;stroke-linejoin:miter;stroke-miterlimit:4;stroke-dasharray:0.8, 0.8;stroke-dashoffset:0;stroke-opacity:1"
       d="m 35.000001,262 h 5.000001"
       id="path6518"
       inkscape:connector-curvature="0" />
    <path
       style="fill:none;stroke:#000000;stroke-width:0.1;stroke-linecap:butt;stroke-linejoin:miter;stroke-miterlimit:4;stroke-dasharray:0.8, 0.8;stroke-dashoffset:0;stroke-opacity:1"
       d="m 35.000001,267 h 5.000001"
       id="path6520"
       inkscape:connector-curvature="0" />
    <path
       style="fill:none;stroke:#000000;stroke-width:0.1;stroke-linecap:butt;stroke-linejoin:miter;stroke-miterlimit:4;stroke-dasharray:0.8, 0.8;stroke-dashoffset:0;stroke-opacity:1"
       d="m 35.000001,272 h 5.000001"
       id="path6522"
       inkscape:connector-curvature="0" />
    <path
       style="fill:none;stroke:#000000;stroke-width:0.1;stroke-linecap:butt;stroke-linejoin:miter;stroke-miterlimit:4;stroke-dasharray:0.8, 0.8;stroke-dashoffset:0;stroke-opacity:1"
       d="m 35.000001,277 h 5.000001"
       id="path6524"
       inkscape:connector-curvature="0" />
    <text
       xml:space="preserve"
       style="font-style:normal;font-weight:normal;font-size:3.52777767px;line-height:1.25;font-family:sans-serif;letter-spacing:0px;word-spacing:0px;fill:#000000;fill-opacity:1;stroke:none;stroke-width:0.26458332"
       x="0"
       y="277"
       id="text6528"><tspan
         sodipodi:role="line"
         x="0"
         y="280.12125"
         style="stroke-width:0.26458332"
         id="tspan6530" /></text>
    <text
       xml:space="preserve"
       style="font-style:normal;font-weight:normal;line-height:1.25;font-family:sans-serif;letter-spacing:0px;word-spacing:0px;baseline-shift:baseline;fill:#000000;fill-opacity:1;stroke:none;stroke-width:0.26458332"
       x="20"
       y="297"
       id="text6558"><tspan
         sodipodi:role="line"
         id="tspan6556"
         x="20"
         y="307.61719" /></text>
    <text
       xml:space="preserve"
       style="font-style:normal;font-weight:normal;font-size:3.52777767px;line-height:1.25;font-family:sans-serif;letter-spacing:0px;word-spacing:0px;fill:#050505;fill-opacity:1;stroke:none;stroke-width:0.26458332;stroke-opacity:0.55825243"
       x="22.369667"
       y="296.13113"
       id="text6580"><tspan
         sodipodi:role="line"
         id="tspan6578"
         x="22.369667"
         y="296.13113"
         style="fill:#050505;fill-opacity:1;stroke:none;stroke-width:0.26458332;stroke-opacity:0.55825243"><tspan
           style="font-size:64.99999762%;baseline-shift:super;fill:#050505;fill-opacity:1;stroke:none;stroke-opacity:0.55825243"
           id="tspan6600">1</tspan></tspan></text>
    <text
       xml:space="preserve"
       style="font-style:normal;font-weight:normal;font-size:3.52777767px;line-height:1.25;font-family:sans-serif;letter-spacing:0px;word-spacing:0px;fill:#050505;fill-opacity:1;stroke:none;stroke-width:0.26458332;stroke-opacity:0.55825243"
       x="27.92259"
       y="291.05212"
       id="text6584"><tspan
         sodipodi:role="line"
         id="tspan6582"
         x="27.92259"
         y="291.05212"
         style="fill:#050505;fill-opacity:1;stroke:none;stroke-width:0.26458332;stroke-opacity:0.55825243"><tspan
           style="font-size:64.99999762%;baseline-shift:super;fill:#050505;fill-opacity:1;stroke:none;stroke-opacity:0.55825243"
           id="tspan6598">2</tspan></tspan></text>
    <text
       xml:space="preserve"
       style="font-style:normal;font-weight:normal;font-size:3.52777767px;line-height:1.25;font-family:sans-serif;letter-spacing:0px;word-spacing:0px;fill:#050505;fill-opacity:1;stroke:none;stroke-width:0.26458332;stroke-opacity:0.55825243"
       x="37.606632"
       y="280.49921"
       id="text6592"><tspan
         sodipodi:role="line"
         id="tspan6590"
         x="37.606632"
         y="280.49921"
         style="fill:#050505;fill-opacity:1;stroke:none;stroke-width:0.26458332;stroke-opacity:0.55825243"><tspan
           style="font-size:64.99999762%;baseline-shift:super;fill:#050505;fill-opacity:1;stroke:none;stroke-opacity:0.55825243"
           id="tspan6596">n</tspan></tspan></text>
    <text
       xml:space="preserve"
       style="font-style:normal;font-weight:normal;font-size:3.52777767px;line-height:1.25;font-family:sans-serif;letter-spacing:0px;word-spacing:0px;fill:#000000;fill-opacity:1;stroke:none;stroke-width:0.26458332"
       x="30.000002"
       y="287"
       id="text6627"><tspan
         sodipodi:role="line"
         id="tspan6625"
         x="30.000002"
         y="290.12125"
         style="stroke-width:0.26458332" /></text>
    <flowRoot
       xml:space="preserve"
       id="flowRoot6633"
       style="font-style:normal;font-weight:normal;font-size:64.99999762%;line-height:1.25;font-family:sans-serif;letter-spacing:0px;word-spacing:0px;baseline-shift:super;fill:#000000;fill-opacity:1;stroke:none"><flowRegion
         id="flowRegion6635"
         style="font-size:64.99999762%;baseline-shift:super"><rect
           id="rect6637"
           width="18.897631"
           height="5.9077797e-07"
           x="170.07875"
           y="75.590553"
           style="font-size:64.99999762%;baseline-shift:super" /></flowRegion><flowPara
         id="flowPara6639" /></flowRoot>    <text
       xml:space="preserve"
       style="font-style:normal;font-weight:normal;font-size:3.52777767px;line-height:1.25;font-family:sans-serif;letter-spacing:0px;word-spacing:0px;fill:#000000;fill-opacity:1;stroke:none;stroke-width:0.26458332"
       x="32.203793"
       y="285.15955"
       id="text6643"><tspan
         sodipodi:role="line"
         id="tspan6641"
         x="32.203793"
         y="285.15955"
         style="font-size:64.99999762%;baseline-shift:super;stroke-width:0.26458332">...</tspan></text>
    <path
       style="fill:#0074d9;fill-opacity:0;stroke:none;stroke-width:0.11283435;stroke-linecap:round;stroke-linejoin:bevel;stroke-miterlimit:4;stroke-dasharray:none;stroke-dashoffset:0;stroke-opacity:0.55825243;paint-order:markers stroke fill"
       d="m 76.38863,66.242908 v -8.657686 h 8.508415 8.508415 v 8.657686 8.657685 H 84.897045 76.38863 Z"
       id="path6645"
       inkscape:connector-curvature="0"
       transform="matrix(0.26458333,0,0,0.26458333,0,257)" />
    <path
       style="fill:#0074d9;fill-opacity:0;stroke:none;stroke-width:0.11283435;stroke-linecap:round;stroke-linejoin:bevel;stroke-miterlimit:4;stroke-dasharray:none;stroke-dashoffset:0;stroke-opacity:0.55825243;paint-order:markers stroke fill"
       d="m 76.38863,66.242908 v -8.657686 h 8.508415 8.508415 v 8.657686 8.657685 H 84.897045 76.38863 Z"
       id="path6647"
       inkscape:connector-curvature="0"
       transform="matrix(0.26458333,0,0,0.26458333,0,257)" />
    <path
       style="fill:#0074d9;fill-opacity:0;stroke:none;stroke-width:0.11283435;stroke-linecap:round;stroke-linejoin:bevel;stroke-miterlimit:4;stroke-dasharray:none;stroke-dashoffset:0;stroke-opacity:0.55825243;paint-order:markers stroke fill"
       d="m 76.38863,66.242908 v -8.657686 h 8.508415 8.508415 v 8.657686 8.657685 H 84.897045 76.38863 Z"
       id="path6649"
       inkscape:connector-curvature="0"
       transform="matrix(0.26458333,0,0,0.26458333,0,257)" />
    <path
       style="fill:#0074d9;fill-opacity:0;stroke:none;stroke-width:0.11283435;stroke-linecap:round;stroke-linejoin:bevel;stroke-miterlimit:4;stroke-dasharray:none;stroke-dashoffset:0;stroke-opacity:0.55825243;paint-order:markers stroke fill"
       d="m 76.38863,66.242908 v -8.657686 h 8.508415 8.508415 v 8.657686 8.657685 H 84.897045 76.38863 Z"
       id="path6651"
       inkscape:connector-curvature="0"
       transform="matrix(0.26458333,0,0,0.26458333,0,257)" />
    <path
       style="fill:#0074d9;fill-opacity:0;stroke:none;stroke-width:0.11283435;stroke-linecap:round;stroke-linejoin:bevel;stroke-miterlimit:4;stroke-dasharray:none;stroke-dashoffset:0;stroke-opacity:0.55825243;paint-order:markers stroke fill"
       d="m 19.068455,122.8164 v -8.95622 l 9.10566,0.0831 9.10566,0.0831 v 8.79006 8.79007 l -9.10566,0.0831 -9.10566,0.0831 z"
       id="path6653"
       inkscape:connector-curvature="0"
       transform="matrix(0.26458333,0,0,0.26458333,0,257)" />
    <path
       style="fill:#0074d9;fill-opacity:0;stroke:none;stroke-width:0.11283435;stroke-linecap:round;stroke-linejoin:bevel;stroke-miterlimit:4;stroke-dasharray:none;stroke-dashoffset:0;stroke-opacity:0.55825243;paint-order:markers stroke fill"
       d="m 1.156328,141.47521 v -8.65769 h 8.5084151 8.5084149 v 8.65769 8.65769 H 9.6647431 1.156328 Z"
       id="path6655"
       inkscape:connector-curvature="0"
       transform="matrix(0.26458333,0,0,0.26458333,0,257)" />
    <path
       style="fill:#0074d9;fill-opacity:0;stroke:none;stroke-width:0.11283435;stroke-linecap:round;stroke-linejoin:bevel;stroke-miterlimit:4;stroke-dasharray:none;stroke-dashoffset:0;stroke-opacity:0.55825243;paint-order:markers stroke fill"
       d="m 1.156328,141.47521 v -8.65769 h 8.5084151 8.5084149 v 8.65769 8.65769 H 9.6647431 1.156328 Z"
       id="path6657"
       inkscape:connector-curvature="0"
       transform="matrix(0.26458333,0,0,0.26458333,0,257)" />
    <path
       style="fill:#0074d9;fill-opacity:0;stroke:none;stroke-width:0.11283435;stroke-linecap:round;stroke-linejoin:bevel;stroke-miterlimit:4;stroke-dasharray:none;stroke-dashoffset:0;stroke-opacity:0.55825243;paint-order:markers stroke fill"
       d="m 1.156328,141.47521 v -8.65769 h 8.5084151 8.5084149 v 8.65769 8.65769 H 9.6647431 1.156328 Z"
       id="path6659"
       inkscape:connector-curvature="0"
       transform="matrix(0.26458333,0,0,0.26458333,0,257)" />
    <path
       style="fill:#0074d9;fill-opacity:0;stroke:none;stroke-width:0.11283435;stroke-linecap:round;stroke-linejoin:bevel;stroke-miterlimit:4;stroke-dasharray:none;stroke-dashoffset:0;stroke-opacity:0.55825243;paint-order:markers stroke fill"
       d="m 1.156328,141.47521 v -8.65769 h 8.5084151 8.5084149 v 8.65769 8.65769 H 9.6647431 1.156328 Z"
       id="path6661"
       inkscape:connector-curvature="0"
       transform="matrix(0.26458333,0,0,0.26458333,0,257)" />
    <path
       style="fill:#0074d9;fill-opacity:0;stroke:none;stroke-width:0.11283435;stroke-linecap:round;stroke-linejoin:bevel;stroke-miterlimit:4;stroke-dasharray:none;stroke-dashoffset:0;stroke-opacity:0.55825243;paint-order:markers stroke fill"
       d="m 19.367322,141.47521 v -8.95623 h 9.105497 9.105497 v 8.95623 8.95623 h -9.105497 -9.105497 z"
       id="path6663"
       inkscape:connector-curvature="0"
       transform="matrix(0.26458333,0,0,0.26458333,0,257)" />
    <path
       style="fill:#ffa500;fill-opacity:0.78431373;stroke:none;stroke-width:0.11283435;stroke-linecap:round;stroke-linejoin:bevel;stroke-miterlimit:4;stroke-dasharray:none;stroke-dashoffset:0;stroke-opacity:0.55825243;paint-order:markers stroke fill"
       d="m 19.516592,47.196 v -8.657686 h 8.956227 8.956226 V 47.196 55.853685 h -8.956226 -8.956227 z"
       id="path3393"
       inkscape:connector-curvature="0"
       transform="matrix(0.26458333,0,0,0.26458333,0,257)" />
    <path
       style="fill:#ffa500;fill-opacity:0.78431373;stroke:none;stroke-width:0.11283435;stroke-linecap:round;stroke-linejoin:bevel;stroke-miterlimit:4;stroke-dasharray:none;stroke-dashoffset:0;stroke-opacity:0.55825243;paint-order:markers stroke fill"
       d="m 38.026127,47.196 v -8.657686 h 9.105497 9.105497 V 47.196 55.853685 h -9.105497 -9.105497 z"
       id="path3395"
       inkscape:connector-curvature="0"
       transform="matrix(0.26458333,0,0,0.26458333,0,257)" />
    <path
       style="fill:#ffa500;fill-opacity:0.78431373;stroke:none;stroke-width:0.11283435;stroke-linecap:round;stroke-linejoin:bevel;stroke-miterlimit:4;stroke-dasharray:none;stroke-dashoffset:0;stroke-opacity:0.55825243;paint-order:markers stroke fill"
       d="m 57.132743,47.196 v -8.657686 h 9.105497 9.105497 V 47.196 55.853685 H 66.23824 57.132743 Z"
       id="path3397"
       inkscape:connector-curvature="0"
       transform="matrix(0.26458333,0,0,0.26458333,0,257)" />
    <path
       style="fill:#ffa500;fill-opacity:0.78431373;stroke:none;stroke-width:0.11283435;stroke-linecap:round;stroke-linejoin:bevel;stroke-miterlimit:4;stroke-dasharray:none;stroke-dashoffset:0;stroke-opacity:0.55825243;paint-order:markers stroke fill"
       d="m 75.940819,47.196 v -8.657686 h 9.105497 9.105496 V 47.196 55.853685 h -9.105496 -9.105497 z"
       id="path3399"
       inkscape:connector-curvature="0"
       transform="matrix(0.26458333,0,0,0.26458333,0,257)" />
    <path
       style="fill:#ffa500;fill-opacity:0.78431373;stroke:none;stroke-width:0.11283435;stroke-linecap:round;stroke-linejoin:bevel;stroke-miterlimit:4;stroke-dasharray:none;stroke-dashoffset:0;stroke-opacity:0.55825243;paint-order:markers stroke fill"
       d="m 94.748894,47.494541 v -8.956227 h 8.956226 8.95623 v 8.956227 8.956226 h -8.95623 -8.956226 z"
       id="path3401"
       inkscape:connector-curvature="0"
       transform="matrix(0.26458333,0,0,0.26458333,0,257)" />
    <path
       style="fill:#ffa500;fill-opacity:0.78431373;stroke:none;stroke-width:0.11283435;stroke-linecap:round;stroke-linejoin:bevel;stroke-miterlimit:4;stroke-dasharray:none;stroke-dashoffset:0;stroke-opacity:0.55825243;paint-order:markers stroke fill"
       d="m 95.047435,66.153346 v -9.105497 h 8.806955 8.80696 v 9.105497 9.105497 h -8.80696 -8.806955 z"
       id="path3403"
       inkscape:connector-curvature="0"
       transform="matrix(0.26458333,0,0,0.26458333,0,257)" />
    <path
       style="fill:#ffa500;fill-opacity:0.78431373;stroke:none;stroke-width:0.11283435;stroke-linecap:round;stroke-linejoin:bevel;stroke-miterlimit:4;stroke-dasharray:none;stroke-dashoffset:0;stroke-opacity:0.55825243;paint-order:markers stroke fill"
       d="m 95.047435,84.961421 v -9.105497 h 8.806955 8.80696 v 9.105497 9.105497 h -8.80696 -8.806955 z"
       id="path3405"
       inkscape:connector-curvature="0"
       transform="matrix(0.26458333,0,0,0.26458333,0,257)" />
    <path
       style="fill:#ffa500;fill-opacity:0.78431373;stroke:none;stroke-width:0.11283435;stroke-linecap:round;stroke-linejoin:bevel;stroke-miterlimit:4;stroke-dasharray:none;stroke-dashoffset:0;stroke-opacity:0.55825243;paint-order:markers stroke fill"
       d="m 95.047435,104.06804 v -9.105499 h 8.806955 8.80696 v 9.105499 9.10549 h -8.80696 -8.806955 z"
       id="path3407"
       inkscape:connector-curvature="0"
       transform="matrix(0.26458333,0,0,0.26458333,0,257)" />
    <path
       style="fill:#ffa500;fill-opacity:0.78431373;stroke:none;stroke-width:0.11283435;stroke-linecap:round;stroke-linejoin:bevel;stroke-miterlimit:4;stroke-dasharray:none;stroke-dashoffset:0;stroke-opacity:0.55825243;paint-order:markers stroke fill"
       d="m 95.047435,122.72684 v -8.95622 h 8.806955 8.80696 v 8.95622 8.95623 h -8.80696 -8.806955 z m 15.225585,0.29854 c 0,-0.49814 -0.19903,-0.59708 -1.20111,-0.59708 h -1.2011 l 1.2011,-1.51951 c 1.57338,-1.99047 1.58938,-3.02577 0.0592,-3.832 -0.9733,-0.51282 -3.03769,-0.14229 -3.03769,0.54522 0,0.41796 0.26715,0.51144 1.41807,0.49621 2.03408,-0.0269 2.05794,0.73976 0.09,2.89296 -2.09754,2.29505 -2.02709,2.61129 0.58168,2.61129 1.89076,0 2.08979,-0.0569 2.08979,-0.59709 z"
       id="path3409"
       inkscape:connector-curvature="0"
       transform="matrix(0.26458333,0,0,0.26458333,0,257)" />
    <path
       style="fill:#ffa500;fill-opacity:0.78431373;stroke:none;stroke-width:0.11283435;stroke-linecap:round;stroke-linejoin:bevel;stroke-miterlimit:4;stroke-dasharray:none;stroke-dashoffset:0;stroke-opacity:0.55825243;paint-order:markers stroke fill"
       d="M 0.70851657,104.06804 V 94.962541 H 9.664743 18.620969 v 9.105499 9.10549 H 9.664743 0.70851657 Z"
       id="path3411"
       inkscape:connector-curvature="0"
       transform="matrix(0.26458333,0,0,0.26458333,0,257)" />
    <path
       style="fill:#ffa500;fill-opacity:0.78431373;stroke:none;stroke-width:0.11283435;stroke-linecap:round;stroke-linejoin:bevel;stroke-miterlimit:4;stroke-dasharray:none;stroke-dashoffset:0;stroke-opacity:0.55825243;paint-order:markers stroke fill"
       d="m 19.218051,104.06804 v -9.105499 h 9.105497 9.105497 v 9.105499 9.10549 h -9.105497 -9.105497 z"
       id="path3413"
       inkscape:connector-curvature="0"
       transform="matrix(0.26458333,0,0,0.26458333,0,257)" />
    <path
       style="fill:#ffa500;fill-opacity:0.78431373;stroke:none;stroke-width:0.11283435;stroke-linecap:round;stroke-linejoin:bevel;stroke-miterlimit:4;stroke-dasharray:none;stroke-dashoffset:0;stroke-opacity:0.55825243;paint-order:markers stroke fill"
       d="m 19.218051,122.87611 v -9.10549 h 9.105497 9.105497 v 9.10549 9.1055 h -9.105497 -9.105497 z"
       id="path3415"
       inkscape:connector-curvature="0"
       transform="matrix(0.26458333,0,0,0.26458333,0,257)" />
    <path
       style="fill:#ffa500;fill-opacity:0.78431373;stroke:none;stroke-width:0.11283435;stroke-linecap:round;stroke-linejoin:bevel;stroke-miterlimit:4;stroke-dasharray:none;stroke-dashoffset:0;stroke-opacity:0.55825243;paint-order:markers stroke fill"
       d="m 0.70851657,122.87611 v -9.10549 H 9.664743 18.620969 v 9.10549 9.1055 H 9.664743 0.70851657 Z"
       id="path3417"
       inkscape:connector-curvature="0"
       transform="matrix(0.26458333,0,0,0.26458333,0,257)" />
    <path
       style="fill:#ffa500;fill-opacity:0.78431373;stroke:none;stroke-width:0.11283435;stroke-linecap:round;stroke-linejoin:bevel;stroke-miterlimit:4;stroke-dasharray:none;stroke-dashoffset:0;stroke-opacity:0.55825243;paint-order:markers stroke fill"
       d="m 1.0070575,141.38565 v -8.80696 h 8.6576855 8.657686 v 8.80696 8.80695 H 9.664743 1.0070575 Z"
       id="path3419"
       inkscape:connector-curvature="0"
       transform="matrix(0.26458333,0,0,0.26458333,0,257)" />
    <path
       style="fill:#ffa500;fill-opacity:0.78431373;stroke:none;stroke-width:0.11283435;stroke-linecap:round;stroke-linejoin:bevel;stroke-miterlimit:4;stroke-dasharray:none;stroke-dashoffset:0;stroke-opacity:0.55825243;paint-order:markers stroke fill"
       d="m 19.218051,141.53492 v -8.95623 h 9.105497 9.105497 v 8.95623 8.95622 h -9.105497 -9.105497 z"
       id="path3421"
       inkscape:connector-curvature="0"
       transform="matrix(0.26458333,0,0,0.26458333,0,257)" />
    <path
       style="fill:#6a5acd;fill-opacity:0.78431373;stroke:none;stroke-width:0.11283435;stroke-linecap:round;stroke-linejoin:bevel;stroke-miterlimit:4;stroke-dasharray:none;stroke-dashoffset:0;stroke-opacity:0.55825243;paint-order:markers stroke fill"
       d="M 0.70851657,66.302616 V 57.34639 H 9.664743 18.620969 v 8.956226 8.956227 H 9.664743 0.70851657 Z"
       id="path3423"
       inkscape:connector-curvature="0"
       transform="matrix(0.26458333,0,0,0.26458333,0,257)" />
    <path
       style="fill:#6a5acd;fill-opacity:0.78431373;stroke:none;stroke-width:0.11283435;stroke-linecap:round;stroke-linejoin:bevel;stroke-miterlimit:4;stroke-dasharray:none;stroke-dashoffset:0;stroke-opacity:0.55825243;paint-order:markers stroke fill"
       d="M 19.218051,66.302616 V 57.34639 h 9.105497 9.105497 v 8.956226 8.956227 h -9.105497 -9.105497 z"
       id="path3425"
       inkscape:connector-curvature="0"
       transform="matrix(0.26458333,0,0,0.26458333,0,257)" />
    <path
       style="fill:#6a5acd;fill-opacity:0.78431373;stroke:none;stroke-width:0.11283435;stroke-linecap:round;stroke-linejoin:bevel;stroke-miterlimit:4;stroke-dasharray:none;stroke-dashoffset:0;stroke-opacity:0.55825243;paint-order:markers stroke fill"
       d="M 38.026127,66.302616 V 57.34639 h 9.105497 9.105497 v 8.956226 8.956227 h -9.105497 -9.105497 z"
       id="path3427"
       inkscape:connector-curvature="0"
       transform="matrix(0.26458333,0,0,0.26458333,0,257)" />
    <path
       style="fill:#6a5acd;fill-opacity:0.78431373;stroke:none;stroke-width:0.11283435;stroke-linecap:round;stroke-linejoin:bevel;stroke-miterlimit:4;stroke-dasharray:none;stroke-dashoffset:0;stroke-opacity:0.55825243;paint-order:markers stroke fill"
       d="M 57.132743,66.302616 V 57.34639 h 9.105497 9.105497 v 8.956226 8.956227 H 66.23824 57.132743 Z"
       id="path3429"
       inkscape:connector-curvature="0"
       transform="matrix(0.26458333,0,0,0.26458333,0,257)" />
    <path
       style="fill:#6a5acd;fill-opacity:0.78431373;stroke:none;stroke-width:0.11283435;stroke-linecap:round;stroke-linejoin:bevel;stroke-miterlimit:4;stroke-dasharray:none;stroke-dashoffset:0;stroke-opacity:0.55825243;paint-order:markers stroke fill"
       d="M 75.940819,66.302616 V 57.34639 h 8.956226 8.956227 v 8.956226 8.956227 h -8.956227 -8.956226 z"
       id="path3431"
       inkscape:connector-curvature="0"
       transform="matrix(0.26458333,0,0,0.26458333,0,257)" />
    <path
       style="fill:#6a5acd;fill-opacity:0.78431373;stroke:none;stroke-width:0.11283435;stroke-linecap:round;stroke-linejoin:bevel;stroke-miterlimit:4;stroke-dasharray:none;stroke-dashoffset:0;stroke-opacity:0.55825243;paint-order:markers stroke fill"
       d="m 75.940819,84.961421 v -9.105497 h 8.956226 8.956227 v 9.105497 9.105497 h -8.956227 -8.956226 z"
       id="path3433"
       inkscape:connector-curvature="0"
       transform="matrix(0.26458333,0,0,0.26458333,0,257)" />
    <path
       style="fill:#6a5acd;fill-opacity:0.78431373;stroke:none;stroke-width:0.11283435;stroke-linecap:round;stroke-linejoin:bevel;stroke-miterlimit:4;stroke-dasharray:none;stroke-dashoffset:0;stroke-opacity:0.55825243;paint-order:markers stroke fill"
       d="m 57.132743,84.961421 v -9.105497 h 9.105497 9.105497 v 9.105497 9.105497 H 66.23824 57.132743 Z"
       id="path3435"
       inkscape:connector-curvature="0"
       transform="matrix(0.26458333,0,0,0.26458333,0,257)" />
    <path
       style="fill:#6a5acd;fill-opacity:0.78431373;stroke:none;stroke-width:0.11283435;stroke-linecap:round;stroke-linejoin:bevel;stroke-miterlimit:4;stroke-dasharray:none;stroke-dashoffset:0;stroke-opacity:0.55825243;paint-order:markers stroke fill"
       d="m 38.026127,84.961421 v -9.105497 h 9.105497 9.105497 v 9.105497 9.105497 h -9.105497 -9.105497 z"
       id="path3437"
       inkscape:connector-curvature="0"
       transform="matrix(0.26458333,0,0,0.26458333,0,257)" />
    <path
       style="fill:#6a5acd;fill-opacity:0.78431373;stroke:none;stroke-width:0.11283435;stroke-linecap:round;stroke-linejoin:bevel;stroke-miterlimit:4;stroke-dasharray:none;stroke-dashoffset:0;stroke-opacity:0.55825243;paint-order:markers stroke fill"
       d="m 19.218051,84.961421 v -9.105497 h 9.105497 9.105497 v 9.105497 9.105497 h -9.105497 -9.105497 z"
       id="path3439"
       inkscape:connector-curvature="0"
       transform="matrix(0.26458333,0,0,0.26458333,0,257)" />
    <path
       style="fill:#6a5acd;fill-opacity:0.78431373;stroke:none;stroke-width:0.11283435;stroke-linecap:round;stroke-linejoin:bevel;stroke-miterlimit:4;stroke-dasharray:none;stroke-dashoffset:0;stroke-opacity:0.55825243;paint-order:markers stroke fill"
       d="M 0.70851657,84.961421 V 75.855924 H 9.664743 18.620969 v 9.105497 9.105497 H 9.664743 0.70851657 Z"
       id="path3441"
       inkscape:connector-curvature="0"
       transform="matrix(0.26458333,0,0,0.26458333,0,257)" />
    <path
       style="fill:#6a5acd;fill-opacity:0.78431373;stroke:none;stroke-width:0.11283435;stroke-linecap:round;stroke-linejoin:bevel;stroke-miterlimit:4;stroke-dasharray:none;stroke-dashoffset:0;stroke-opacity:0.55825243;paint-order:markers stroke fill"
       d="m 38.026127,104.06804 v -9.105499 h 9.105497 9.105497 v 9.105499 9.10549 h -9.105497 -9.105497 z"
       id="path3443"
       inkscape:connector-curvature="0"
       transform="matrix(0.26458333,0,0,0.26458333,0,257)" />
    <path
       style="fill:#6a5acd;fill-opacity:0.78431373;stroke:none;stroke-width:0.11283435;stroke-linecap:round;stroke-linejoin:bevel;stroke-miterlimit:4;stroke-dasharray:none;stroke-dashoffset:0;stroke-opacity:0.55825243;paint-order:markers stroke fill"
       d="m 57.132743,104.06804 v -9.105499 h 9.105497 9.105497 v 9.105499 9.10549 H 66.23824 57.132743 Z"
       id="path3445"
       inkscape:connector-curvature="0"
       transform="matrix(0.26458333,0,0,0.26458333,0,257)" />
    <path
       style="fill:#6a5acd;fill-opacity:0.78431373;stroke:none;stroke-width:0.11283435;stroke-linecap:round;stroke-linejoin:bevel;stroke-miterlimit:4;stroke-dasharray:none;stroke-dashoffset:0;stroke-opacity:0.55825243;paint-order:markers stroke fill"
       d="m 75.940819,104.06804 v -9.105499 h 8.956226 8.956227 v 9.105499 9.10549 h -8.956227 -8.956226 z"
       id="path3447"
       inkscape:connector-curvature="0"
       transform="matrix(0.26458333,0,0,0.26458333,0,257)" />
    <path
       style="fill:#6a5acd;fill-opacity:0.78431373;stroke:none;stroke-width:0.11283435;stroke-linecap:round;stroke-linejoin:bevel;stroke-miterlimit:4;stroke-dasharray:none;stroke-dashoffset:0;stroke-opacity:0.55825243;paint-order:markers stroke fill"
       d="m 75.940819,122.87611 v -9.10549 h 8.956226 8.956227 v 9.10549 9.1055 h -8.956227 -8.956226 z"
       id="path3449"
       inkscape:connector-curvature="0"
       transform="matrix(0.26458333,0,0,0.26458333,0,257)" />
    <path
       style="fill:#6a5acd;fill-opacity:0.78431373;stroke:none;stroke-width:0.11283435;stroke-linecap:round;stroke-linejoin:bevel;stroke-miterlimit:4;stroke-dasharray:none;stroke-dashoffset:0;stroke-opacity:0.55825243;paint-order:markers stroke fill"
       d="m 57.132743,122.87611 v -9.10549 h 9.105497 9.105497 v 9.10549 9.1055 H 66.23824 57.132743 Z"
       id="path3451"
       inkscape:connector-curvature="0"
       transform="matrix(0.26458333,0,0,0.26458333,0,257)" />
    <path
       style="fill:#6a5acd;fill-opacity:0.78431373;stroke:none;stroke-width:0.11283435;stroke-linecap:round;stroke-linejoin:bevel;stroke-miterlimit:4;stroke-dasharray:none;stroke-dashoffset:0;stroke-opacity:0.55825243;paint-order:markers stroke fill"
       d="m 38.026127,122.87611 v -9.10549 h 9.105497 9.105497 v 9.10549 9.1055 h -9.105497 -9.105497 z"
       id="path3453"
       inkscape:connector-curvature="0"
       transform="matrix(0.26458333,0,0,0.26458333,0,257)" />
    <path
       style="fill:#6a5acd;fill-opacity:0.78431373;stroke:none;stroke-width:0.11283435;stroke-linecap:round;stroke-linejoin:bevel;stroke-miterlimit:4;stroke-dasharray:none;stroke-dashoffset:0;stroke-opacity:0.55825243;paint-order:markers stroke fill"
       d="m 38.026127,141.53492 v -8.95623 h 9.105497 9.105497 v 8.95623 8.95622 h -9.105497 -9.105497 z"
       id="path3455"
       inkscape:connector-curvature="0"
       transform="matrix(0.26458333,0,0,0.26458333,0,257)" />
    <path
       style="fill:#6a5acd;fill-opacity:0.78431373;stroke:none;stroke-width:0.11283435;stroke-linecap:round;stroke-linejoin:bevel;stroke-miterlimit:4;stroke-dasharray:none;stroke-dashoffset:0;stroke-opacity:0.55825243;paint-order:markers stroke fill"
       d="m 57.132743,141.53492 v -8.95623 h 9.105497 9.105497 v 8.95623 8.95622 H 66.23824 57.132743 Z"
       id="path3457"
       inkscape:connector-curvature="0"
       transform="matrix(0.26458333,0,0,0.26458333,0,257)" />
    <path
       style="fill:#6a5acd;fill-opacity:0.78431373;stroke:none;stroke-width:0.11283435;stroke-linecap:round;stroke-linejoin:bevel;stroke-miterlimit:4;stroke-dasharray:none;stroke-dashoffset:0;stroke-opacity:0.55825243;paint-order:markers stroke fill"
       d="m 75.940819,141.53492 v -8.95623 h 8.956226 8.956227 v 8.95623 8.95622 h -8.956227 -8.956226 z m 13.434339,0.74635 c 0,-0.27864 -0.281955,-0.44781 -0.746352,-0.44781 -0.743733,0 -0.746352,-0.01 -0.746352,-2.83614 0,-2.80061 -0.009,-2.83614 -0.721935,-2.83614 -1.052253,0 -1.666392,0.29966 -1.666392,0.8131 0,0.31974 0.21684,0.40922 0.746352,0.308 0.744915,-0.1424 0.746352,-0.13816 0.746352,2.20425 0,2.30436 -0.01354,2.34693 -0.746352,2.34693 -0.464397,0 -0.746352,0.16917 -0.746352,0.44781 0,0.35213 0.41464,0.44781 1.940516,0.44781 1.525875,0 1.940515,-0.0957 1.940515,-0.44781 z"
       id="path3459"
       inkscape:connector-curvature="0"
       transform="matrix(0.26458333,0,0,0.26458333,0,257)" />
    <path
       style="fill:#6a5acd;fill-opacity:0.78431373;stroke:none;stroke-width:0.11283435;stroke-linecap:round;stroke-linejoin:bevel;stroke-miterlimit:4;stroke-dasharray:none;stroke-dashoffset:0;stroke-opacity:0.55825243;paint-order:markers stroke fill"
       d="m 38.623209,28.387924 v -8.657685 h 8.806956 8.806956 v 8.657685 8.657686 h -8.806956 -8.806956 z"
       id="path3461"
       inkscape:connector-curvature="0"
       transform="matrix(0.26458333,0,0,0.26458333,0,257)" />
    <path
       style="fill:#6a5acd;fill-opacity:0.78431373;stroke:none;stroke-width:0.11283435;stroke-linecap:round;stroke-linejoin:bevel;stroke-miterlimit:4;stroke-dasharray:none;stroke-dashoffset:0;stroke-opacity:0.55825243;paint-order:markers stroke fill"
       d="m 57.132743,28.387924 v -8.657685 h 9.105497 9.105497 v 8.657685 8.657686 H 66.23824 57.132743 Z"
       id="path3463"
       inkscape:connector-curvature="0"
       transform="matrix(0.26458333,0,0,0.26458333,0,257)" />
    <path
       style="fill:#6a5acd;fill-opacity:0.78431373;stroke:none;stroke-width:0.11283435;stroke-linecap:round;stroke-linejoin:bevel;stroke-miterlimit:4;stroke-dasharray:none;stroke-dashoffset:0;stroke-opacity:0.55825243;paint-order:markers stroke fill"
       d="m 75.940819,28.387924 v -8.657685 h 9.105497 9.105496 v 8.657685 8.657686 h -9.105496 -9.105497 z"
       id="path3465"
       inkscape:connector-curvature="0"
       transform="matrix(0.26458333,0,0,0.26458333,0,257)" />
    <path
       style="fill:#6a5acd;fill-opacity:0.78431373;stroke:none;stroke-width:0.11283435;stroke-linecap:round;stroke-linejoin:bevel;stroke-miterlimit:4;stroke-dasharray:none;stroke-dashoffset:0;stroke-opacity:0.55825243;paint-order:markers stroke fill"
       d="m 94.748894,28.387924 v -8.657685 h 9.105496 9.1055 v 8.657685 8.657686 h -9.1055 -9.105496 z"
       id="path3467"
       inkscape:connector-curvature="0"
       transform="matrix(0.26458333,0,0,0.26458333,0,257)" />
    <path
       style="fill:#6a5acd;fill-opacity:0.78431373;stroke:none;stroke-width:0.11283435;stroke-linecap:round;stroke-linejoin:bevel;stroke-miterlimit:4;stroke-dasharray:none;stroke-dashoffset:0;stroke-opacity:0.55825243;paint-order:markers stroke fill"
       d="m 113.85551,28.537195 v -8.806956 h 8.80696 8.80695 v 8.806956 8.806956 h -8.80695 -8.80696 z"
       id="path3469"
       inkscape:connector-curvature="0"
       transform="matrix(0.26458333,0,0,0.26458333,0,257)" />
    <path
       style="fill:#6a5acd;fill-opacity:0.78431373;stroke:none;stroke-width:0.11283435;stroke-linecap:round;stroke-linejoin:bevel;stroke-miterlimit:4;stroke-dasharray:none;stroke-dashoffset:0;stroke-opacity:0.55825243;paint-order:markers stroke fill"
       d="m 114.15405,47.34527 v -9.105497 h 8.65769 8.65768 v 9.105497 9.105497 h -8.65768 -8.65769 z"
       id="path3471"
       inkscape:connector-curvature="0"
       transform="matrix(0.26458333,0,0,0.26458333,0,257)" />
    <path
       style="fill:#6a5acd;fill-opacity:0.78431373;stroke:none;stroke-width:0.11283435;stroke-linecap:round;stroke-linejoin:bevel;stroke-miterlimit:4;stroke-dasharray:none;stroke-dashoffset:0;stroke-opacity:0.55825243;paint-order:markers stroke fill"
       d="m 114.15405,66.153346 v -9.105497 h 8.65769 8.65768 v 9.105497 9.105497 h -8.65768 -8.65769 z"
       id="path3473"
       inkscape:connector-curvature="0"
       transform="matrix(0.26458333,0,0,0.26458333,0,257)" />
    <path
       style="fill:#6a5acd;fill-opacity:0.78431373;stroke:none;stroke-width:0.11283435;stroke-linecap:round;stroke-linejoin:bevel;stroke-miterlimit:4;stroke-dasharray:none;stroke-dashoffset:0;stroke-opacity:0.55825243;paint-order:markers stroke fill"
       d="m 121.69221,94.141789 -7.53816,-0.08512 v -9.100371 -9.100371 h 8.65769 8.65768 v 9.254768 9.254767 l -1.11953,-0.06927 c -0.61574,-0.0381 -4.51169,-0.107579 -8.65768,-0.154396 z"
       id="path3475"
       inkscape:connector-curvature="0"
       transform="matrix(0.26458333,0,0,0.26458333,0,257)" />
    <path
       style="fill:#6a5acd;fill-opacity:0.78431373;stroke:none;stroke-width:0.11283435;stroke-linecap:round;stroke-linejoin:bevel;stroke-miterlimit:4;stroke-dasharray:none;stroke-dashoffset:0;stroke-opacity:0.55825243;paint-order:markers stroke fill"
       d="m 114.15405,103.81008 v -8.766381 l 1.3851,-0.18985 c 0.76181,-0.104417 4.65777,-0.189849 8.65769,-0.189849 h 7.27258 v 8.95623 8.95622 h -8.65768 -8.65769 z m 9.49944,-3.2499 c -0.0525,-0.36944 -0.29692,-0.671715 -0.54321,-0.671715 -0.2463,0 -0.49074,0.302275 -0.54321,0.671715 -0.0734,0.51698 0.0517,0.67172 0.54321,0.67172 0.4915,0 0.61663,-0.15474 0.54321,-0.67172 z m 2.68687,0 c -0.0525,-0.36944 -0.29692,-0.671715 -0.54321,-0.671715 -0.2463,0 -0.49075,0.302275 -0.54321,0.671715 -0.0734,0.51698 0.0517,0.67172 0.54321,0.67172 0.4915,0 0.61663,-0.15474 0.54321,-0.67172 z m 2.74074,-0.0965 c 0,-0.979915 -0.99873,-0.892702 -1.1403,0.0996 -0.0724,0.50786 0.0532,0.66867 0.52245,0.66867 0.4647,0 0.61785,-0.19042 0.61785,-0.76824 z"
       id="path3477"
       inkscape:connector-curvature="0"
       transform="matrix(0.26458333,0,0,0.26458333,0,257)" />
    <text
       xml:space="preserve"
       style="font-style:normal;font-weight:normal;font-size:3.52777767px;line-height:1.25;font-family:sans-serif;letter-spacing:0px;word-spacing:0px;fill:#000000;fill-opacity:0.58823529;stroke:none;stroke-width:0.26458332"
       x="1.7944481"
       y="275.90714"
       id="text1684"><tspan
         sodipodi:role="line"
         id="tspan1682"
         x="1.7944481"
         y="275.90714"
         style="fill:#000000;fill-opacity:0.58823529;stroke-width:0.26458332">values</tspan></text>
    <text
       xml:space="preserve"
       style="font-style:normal;font-weight:normal;font-size:3.52777767px;line-height:1.25;font-family:sans-serif;letter-spacing:0px;word-spacing:0px;fill:#000000;fill-opacity:0.58823529;stroke:none;stroke-width:0.26458332"
       x="25.578018"
       y="296.15201"
       id="text1684-2"><tspan
         sodipodi:role="line"
         x="25.578018"
         y="296.15201"
         style="fill:#000000;fill-opacity:0.58823529;stroke-width:0.26458332"
         id="tspan3505">hypercube</tspan></text>
  </g>
</svg>
