<?xml version="1.0" encoding="UTF-8" standalone="no"?>
<!-- Created with Inkscape (http://www.inkscape.org/) -->

<svg
   xmlns:dc="http://purl.org/dc/elements/1.1/"
   xmlns:cc="http://creativecommons.org/ns#"
   xmlns:rdf="http://www.w3.org/1999/02/22-rdf-syntax-ns#"
   xmlns:svg="http://www.w3.org/2000/svg"
   xmlns="http://www.w3.org/2000/svg"
   xmlns:sodipodi="http://sodipodi.sourceforge.net/DTD/sodipodi-0.dtd"
   xmlns:inkscape="http://www.inkscape.org/namespaces/inkscape"
   width="40mm"
   height="30mm"
   viewBox="0 0 40 30"
   version="1.1"
   id="svg8"
   inkscape:version="0.92.3 (2405546, 2018-03-11)"
   sodipodi:docname="reference.svg">
  <defs
     id="defs2" />
  <sodipodi:namedview
     id="base"
     pagecolor="#ffffff"
     bordercolor="#666666"
     borderopacity="1.0"
     inkscape:pageopacity="0.0"
     inkscape:pageshadow="2"
     inkscape:zoom="3.8166146"
     inkscape:cx="64.997205"
     inkscape:cy="64.33908"
     inkscape:document-units="mm"
     inkscape:current-layer="layer1"
     showgrid="true"
     inkscape:window-width="1366"
     inkscape:window-height="768"
     inkscape:window-x="0"
     inkscape:window-y="0"
     inkscape:window-maximized="1"
     inkscape:snap-nodes="true"
     inkscape:snap-others="true"
     inkscape:object-paths="true">
    <inkscape:grid
       type="xygrid"
       id="grid10"
       units="mm"
       spacingx="5.0000001"
       spacingy="5.0000001" />
  </sodipodi:namedview>
  <metadata
     id="metadata5">
    <rdf:RDF>
      <cc:Work
         rdf:about="">
        <dc:format>image/svg+xml</dc:format>
        <dc:type
           rdf:resource="http://purl.org/dc/dcmitype/StillImage" />
        <dc:title></dc:title>
      </cc:Work>
    </rdf:RDF>
  </metadata>
  <g
     inkscape:label="Layer 1"
     inkscape:groupmode="layer"
     id="layer1"
     transform="translate(0,-267)">
    <path
       style="fill:#6a5acd;fill-opacity:0.78431373;stroke:none;stroke-width:0.03705414;stroke-linecap:round;stroke-linejoin:bevel;stroke-miterlimit:4;stroke-dasharray:none;stroke-dashoffset:0;stroke-opacity:0.55825243;paint-order:markers stroke fill"
       d="m -10,287 v -2.35294 h 2.3039178 2.3039182 V 287 289.35294 H -7.6960822 -10 Z"
       id="path7146"
       inkscape:connector-curvature="0"
       sodipodi:nodetypes="ccccccccc" />
    <path
       style="fill:#ffa500;fill-opacity:0.78431373;stroke:none;stroke-width:0.03705414;stroke-linecap:round;stroke-linejoin:bevel;stroke-miterlimit:4;stroke-dasharray:none;stroke-dashoffset:0;stroke-opacity:0.55825243;paint-order:markers stroke fill"
       d="m -10,282 v -2.35294 h 2.3039178 2.303918 V 282 284.35294 H -7.6960822 -10 Z"
       id="path7717"
       inkscape:connector-curvature="0"
       sodipodi:nodetypes="ccccccccc" />
    <flowRoot
       xml:space="preserve"
       id="flowRoot4308"
       style="font-style:normal;font-weight:normal;font-size:13.33333302px;line-height:1.25;font-family:sans-serif;letter-spacing:0px;word-spacing:0px;fill:#000000;fill-opacity:1;stroke:none"
       transform="matrix(0.26458333,0,0,0.26458333,0,267)"><flowRegion
         id="flowRegion4310"><rect
           id="rect4312"
           width="37.795277"
           height="37.795277"
           x="170.07875"
           y="56.692913" /></flowRegion><flowPara
         id="flowPara4314"></flowPara></flowRoot>    <path
       style="fill:none;stroke:#000000;stroke-width:0.30000001;stroke-linecap:butt;stroke-linejoin:miter;stroke-miterlimit:4;stroke-dasharray:none;stroke-opacity:1"
       d="m 0,267 h 5 v 30 H 0 Z"
       id="path4986"
       inkscape:connector-curvature="0"
       sodipodi:nodetypes="ccccc" />
    <path
       style="fill:none;stroke:#000000;stroke-width:0.1;stroke-linecap:butt;stroke-linejoin:miter;stroke-miterlimit:4;stroke-dasharray:none;stroke-opacity:1"
       d="M 0,272 H 5"
       id="path4988"
       inkscape:connector-curvature="0"
       sodipodi:nodetypes="cc" />
    <path
       style="fill:none;stroke:#000000;stroke-width:0.1;stroke-linecap:butt;stroke-linejoin:miter;stroke-miterlimit:4;stroke-dasharray:none;stroke-opacity:1"
       d="M 0,277 H 5"
       id="path4990"
       inkscape:connector-curvature="0"
       sodipodi:nodetypes="cc" />
    <path
       style="fill:none;stroke:#000000;stroke-width:0.1;stroke-linecap:butt;stroke-linejoin:miter;stroke-miterlimit:4;stroke-dasharray:none;stroke-opacity:1"
       d="M 0,282 H 5"
       id="path4992"
       inkscape:connector-curvature="0"
       sodipodi:nodetypes="cc" />
    <path
       style="fill:none;stroke:#000000;stroke-width:0.1;stroke-linecap:butt;stroke-linejoin:miter;stroke-miterlimit:4;stroke-dasharray:none;stroke-opacity:1"
       d="M 0,287 H 5"
       id="path4994"
       inkscape:connector-curvature="0"
       sodipodi:nodetypes="cc" />
    <path
       style="fill:none;stroke:#000000;stroke-width:0.1;stroke-linecap:butt;stroke-linejoin:miter;stroke-miterlimit:4;stroke-dasharray:none;stroke-opacity:1"
       d="M 0,292 H 5"
       id="path4996"
       inkscape:connector-curvature="0"
       sodipodi:nodetypes="cc" />
    <path
       style="fill:none;stroke:#000000;stroke-width:0.30000001;stroke-linecap:butt;stroke-linejoin:miter;stroke-miterlimit:4;stroke-dasharray:none;stroke-opacity:1"
       d="m 15,267 v 25 h 25.000002 v -25 z"
       id="path4998"
       inkscape:connector-curvature="0"
       sodipodi:nodetypes="ccccc" />
    <text
       xml:space="preserve"
       style="font-style:normal;font-weight:normal;font-size:3.52777767px;line-height:1.25;font-family:sans-serif;letter-spacing:0px;word-spacing:0px;fill:#000000;fill-opacity:0.58823529;stroke:none;stroke-width:0.26458332"
       x="13.753016"
       y="295.86026"
       id="text1684-2"><tspan
         sodipodi:role="line"
         x="13.753016"
         y="295.86026"
         style="fill:#000000;fill-opacity:0.58823529;stroke-width:0.26458332"
         id="tspan3505">reference type</tspan></text>
    <path
       style="fill:none;stroke:#000000;stroke-width:0.01;stroke-linecap:butt;stroke-linejoin:miter;stroke-miterlimit:4;stroke-dasharray:none;stroke-opacity:1"
       d="M 15,272 H 40.000002"
       id="path5018"
       inkscape:connector-curvature="0"
       sodipodi:nodetypes="cc" />
    <path
       style="fill:none;stroke:#000000;stroke-width:0.01;stroke-linecap:butt;stroke-linejoin:miter;stroke-miterlimit:4;stroke-dasharray:none;stroke-opacity:1"
       d="m 25,277 v 10 H 35.000001 V 277 H 25"
       id="path5020"
       inkscape:connector-curvature="0"
       sodipodi:nodetypes="ccccc" />
    <path
       style="fill:#ffa400;fill-opacity:0.78431373;stroke:none;stroke-width:0.00990283;stroke-linecap:round;stroke-linejoin:bevel;stroke-miterlimit:4;stroke-dasharray:none;stroke-dashoffset:0;stroke-opacity:0.55825243;paint-order:markers stroke fill"
       d="M 0.75178791,9.5876936 V 0.67927526 H 9.5292001 18.306612 V 9.5876936 18.496112 H 9.5292001 0.75178791 Z"
       id="path5022"
       inkscape:connector-curvature="0"
       transform="matrix(0.26458333,0,0,0.26458333,0,267)"
       sodipodi:nodetypes="ccccccccc" />
    <path
       style="fill:#ffa400;fill-opacity:0.78431373;stroke:none;stroke-width:0.00262012;stroke-linecap:round;stroke-linejoin:bevel;stroke-miterlimit:4;stroke-dasharray:none;stroke-dashoffset:0;stroke-opacity:0.55825243;paint-order:markers stroke fill"
       d="m 29.86962,281.91109 v -4.95667 h 4.956672 4.956672 v 4.95667 4.95668 H 34.826292 29.86962 Z"
       id="path5028"
       inkscape:connector-curvature="0"
       sodipodi:nodetypes="ccccccccc" />
    <path
       style="fill:#6a59cd;fill-opacity:0.78431373;stroke:none;stroke-width:0.00990283;stroke-linecap:round;stroke-linejoin:bevel;stroke-miterlimit:4;stroke-dasharray:none;stroke-dashoffset:0;stroke-opacity:0.55825243;paint-order:markers stroke fill"
       d="M 0.75178791,28.321573 V 19.282149 H 9.5292001 18.306612 v 9.039424 9.039425 H 9.5292001 0.75178791 Z"
       id="path5034"
       inkscape:connector-curvature="0"
       transform="matrix(0.26458333,0,0,0.26458333,0,267)"
       sodipodi:nodetypes="ccccccccc" />
    <path
       style="fill:#6b8e23;stroke:#000000;stroke-width:0.01;stroke-linecap:butt;stroke-linejoin:miter;stroke-miterlimit:4;stroke-dasharray:none;stroke-opacity:1"
       d="m 35.000001,272 v 20"
       id="path5036"
       inkscape:connector-curvature="0"
       sodipodi:nodetypes="cc" />
    <path
       style="fill:none;stroke:#000000;stroke-width:0.26458332px;stroke-linecap:butt;stroke-linejoin:miter;stroke-opacity:1"
       d="m 30,277 v 10 h 10.000002 v -10 z"
       id="path5643"
       inkscape:connector-curvature="0" />
    <path
       style="fill:none;stroke:#000000;stroke-width:0.1;stroke-linecap:butt;stroke-linejoin:miter;stroke-opacity:1;stroke-miterlimit:4;stroke-dasharray:0.3,0.3;stroke-dashoffset:0"
       d="m 35.000001,277 v 10"
       id="path5645"
       inkscape:connector-curvature="0" />
    <path
       style="fill:none;stroke:#000000;stroke-width:0.1;stroke-linecap:butt;stroke-linejoin:miter;stroke-opacity:1;stroke-miterlimit:4;stroke-dasharray:0.3,0.3;stroke-dashoffset:0"
       d="M 30,282 H 40.000002"
       id="path5647"
       inkscape:connector-curvature="0" />
    <path
       style="fill:#6a59cd;fill-opacity:0.78431373;stroke:none;stroke-width:0.46048146;stroke-linecap:round;stroke-linejoin:bevel;stroke-miterlimit:4;stroke-dasharray:1.84192587, 1.84192587;stroke-dashoffset:0;stroke-opacity:0.55825243;paint-order:markers stroke fill"
       d="m 0.75178791,47.317465 v -9.17043 H 9.5292001 18.306612 v 9.17043 9.170431 H 9.5292001 0.75178791 Z"
       id="path8174"
       inkscape:connector-curvature="0"
       transform="matrix(0.26458333,0,0,0.26458333,0,267)" />
    <path
       style="fill:#6a59cd;fill-opacity:0.78431373;stroke:none;stroke-width:0.46048146;stroke-linecap:round;stroke-linejoin:bevel;stroke-miterlimit:4;stroke-dasharray:1.84192587, 1.84192587;stroke-dashoffset:0;stroke-opacity:0.55825243;paint-order:markers stroke fill"
       d="m 0.75178791,66.182351 v -9.17043 H 9.5292001 18.306612 v 9.17043 9.170431 H 9.5292001 0.75178791 Z"
       id="path8176"
       inkscape:connector-curvature="0"
       transform="matrix(0.26458333,0,0,0.26458333,0,267)" />
    <path
       style="fill:#6a59cd;fill-opacity:0.78431373;stroke:none;stroke-width:0.46048146;stroke-linecap:round;stroke-linejoin:bevel;stroke-miterlimit:4;stroke-dasharray:1.84192587, 1.84192587;stroke-dashoffset:0;stroke-opacity:0.55825243;paint-order:markers stroke fill"
       d="m 0.75178791,85.047237 v -9.17043 H 9.5292001 18.306612 v 9.17043 9.170431 H 9.5292001 0.75178791 Z"
       id="path8178"
       inkscape:connector-curvature="0"
       transform="matrix(0.26458333,0,0,0.26458333,0,267)" />
    <path
       style="fill:#6a59cd;fill-opacity:0.78431373;stroke:none;stroke-width:0.46048146;stroke-linecap:round;stroke-linejoin:bevel;stroke-miterlimit:4;stroke-dasharray:1.84192587, 1.84192587;stroke-dashoffset:0;stroke-opacity:0.55825243;paint-order:markers stroke fill"
       d="M 0.75178791,103.78112 V 94.741693 H 9.5292001 18.306612 v 9.039427 9.03942 H 9.5292001 0.75178791 Z"
       id="path8180"
       inkscape:connector-curvature="0"
       transform="matrix(0.26458333,0,0,0.26458333,0,267)" />
    <path
       style="fill:none;stroke:#000000;stroke-width:0.1;stroke-linecap:butt;stroke-linejoin:miter;stroke-opacity:1;stroke-miterlimit:4;stroke-dasharray:0.6,0.6;stroke-dashoffset:0"
       d="M 15,272 H 40.000002"
       id="path8204"
       inkscape:connector-curvature="0" />
    <path
       style="fill:none;stroke:#000000;stroke-width:0.1;stroke-linecap:butt;stroke-linejoin:miter;stroke-opacity:1;stroke-miterlimit:4;stroke-dasharray:0.6,0.6;stroke-dashoffset:0"
       d="M 30,277 H 15"
       id="path8206"
       inkscape:connector-curvature="0" />
    <path
       style="fill:none;stroke:#000000;stroke-width:0.1;stroke-linecap:butt;stroke-linejoin:miter;stroke-opacity:1;stroke-miterlimit:4;stroke-dasharray:0.6,0.6;stroke-dashoffset:0"
       d="M 15,282 H 30"
       id="path8208"
       inkscape:connector-curvature="0" />
    <path
       style="fill:none;stroke:#000000;stroke-width:0.1;stroke-linecap:butt;stroke-linejoin:miter;stroke-opacity:1;stroke-miterlimit:4;stroke-dasharray:0.6,0.6;stroke-dashoffset:0"
       d="M 15,287 H 30"
       id="path8210"
       inkscape:connector-curvature="0" />
    <path
       style="fill:none;stroke:#000000;stroke-width:0.1;stroke-linecap:butt;stroke-linejoin:miter;stroke-opacity:1;stroke-miterlimit:4;stroke-dasharray:0.6,0.6;stroke-dashoffset:0"
       d="m 20,267 v 25"
       id="path8212"
       inkscape:connector-curvature="0" />
    <path
       style="fill:none;stroke:#000000;stroke-width:0.1;stroke-linecap:butt;stroke-linejoin:miter;stroke-opacity:1;stroke-miterlimit:4;stroke-dasharray:0.6,0.6;stroke-dashoffset:0"
       d="m 25,267 v 25"
       id="path8214"
       inkscape:connector-curvature="0" />
    <path
       style="fill:none;stroke:#000000;stroke-width:0.1;stroke-linecap:butt;stroke-linejoin:miter;stroke-opacity:1;stroke-miterlimit:4;stroke-dasharray:0.6,0.6;stroke-dashoffset:0"
       d="m 30,267 v 25"
       id="path8216"
       inkscape:connector-curvature="0" />
    <path
       style="fill:none;stroke:#000000;stroke-width:0.1;stroke-linecap:butt;stroke-linejoin:miter;stroke-opacity:1;stroke-miterlimit:4;stroke-dasharray:0.6,0.6;stroke-dashoffset:0"
       d="m 35.000001,287 v 5"
       id="path8218"
       inkscape:connector-curvature="0" />
    <path
       style="fill:none;stroke:#000000;stroke-width:0.1;stroke-linecap:butt;stroke-linejoin:miter;stroke-opacity:1;stroke-miterlimit:4;stroke-dasharray:0.6,0.6;stroke-dashoffset:0"
       d="M 35.000001,277 V 267"
       id="path8220"
       inkscape:connector-curvature="0" />
    <path
       style="fill:#6a59cd;fill-opacity:0.78431373;stroke:none;stroke-width:0.09902827;stroke-linecap:round;stroke-linejoin:bevel;stroke-miterlimit:4;stroke-dasharray:0.59416963, 0.59416963;stroke-dashoffset:0;stroke-opacity:0.55825243;paint-order:markers stroke fill"
       d="m 57.346446,84.785225 v -8.908418 h 0.917043 c 0.504373,0 0.917043,-0.117906 0.917043,-0.262013 0,-0.144106 -0.41267,-0.262012 -0.917043,-0.262012 h -0.917043 v -9.170431 -9.17043 h 0.917043 c 0.504373,0 0.917043,-0.117906 0.917043,-0.262013 0,-0.144106 -0.41267,-0.262012 -0.917043,-0.262012 h -0.917043 v -9.170431 -9.17043 h 0.938877 c 1.183852,0 1.093638,-0.618511 -0.107515,-0.737135 l -0.831362,-0.0821 v -9.022823 -9.022824 l 0.85154,-0.03062 c 3.089865,-0.111121 16.499475,-0.09473 16.681431,0.02039 0.122785,0.07768 0.266361,0.367284 0.319058,0.643556 0.147203,0.771729 0.750844,0.830655 0.750844,0.0733 0,-0.56671 0.138361,-0.6629 1.113553,-0.774151 0.937075,-0.106903 14.259553,-0.08162 16.506775,0.03132 0.584237,0.02936 0.720534,0.16012 0.720534,0.691245 0,0.360267 0.117905,0.65503 0.262012,0.65503 0.144107,0 0.262012,-0.286818 0.262012,-0.637374 0,-0.389494 0.178323,-0.681123 0.458522,-0.749866 0.390369,-0.09577 13.422863,-0.06299 16.768783,0.04218 1.00378,0.03155 1.11356,0.09957 1.11356,0.690032 0,0.360267 0.1179,0.65503 0.26201,0.65503 0.14411,0 0.26201,-0.326743 0.26201,-0.726095 v -0.726096 l 9.1704,0.0056 9.1704,0.0056 3e-5,8.973921 3e-5,8.973922 h -9.17043 c -8.99575,0 -9.17043,-0.01 -9.17043,-0.524025 0,-0.288214 -0.1179,-0.524025 -0.26201,-0.524025 -0.14411,0 -0.26201,0.228853 -0.26201,0.508562 0,0.279709 -0.14739,0.59966 -0.32752,0.711002 -0.34772,0.214932 -16.776075,0.378814 -17.554823,0.17512 -0.27816,-0.07276 -0.458522,-0.37065 -0.458522,-0.757309 0,-0.350556 -0.117905,-0.637375 -0.262012,-0.637375 -0.144107,0 -0.262012,0.294764 -0.262012,0.655031 0,0.524025 -0.131006,0.655031 -0.655031,0.655031 -0.407576,0 -0.655031,0.148474 -0.655031,0.393018 0,0.244545 0.247455,0.393019 0.655031,0.393019 h 0.655031 v 9.17043 9.170431 H 93.63515 c -0.360267,0 -0.655031,0.117906 -0.655031,0.262012 0,0.144107 0.294764,0.262013 0.655031,0.262013 h 0.655031 v 9.17043 9.170431 H 93.63515 c -0.360267,0 -0.655031,0.09894 -0.655031,0.219868 0,0.120926 4.097218,0.242518 9.104931,0.270205 5.00771,0.02769 13.79167,0.114093 19.51991,0.192013 l 10.41499,0.14167 v 8.758553 8.758552 H 94.683199 57.346446 Z m 18.602873,7.052499 c 0,-0.948183 -0.09436,-1.300923 -0.327515,-1.224381 -0.350756,0.115144 -0.587786,1.579483 -0.3542,2.188201 0.312886,0.815366 0.681715,0.29391 0.681715,-0.96382 z m 18.864886,0.02183 c 0,-0.720534 -0.117905,-1.310061 -0.262012,-1.310061 -0.144107,0 -0.262012,0.589527 -0.262012,1.310061 0,0.720534 0.117905,1.310062 0.262012,1.310062 0.144107,0 0.262012,-0.589528 0.262012,-1.310062 z m 18.864885,0 c 0,-0.720534 -0.1179,-1.310061 -0.26201,-1.310061 -0.14411,0 -0.26201,0.589527 -0.26201,1.310061 0,0.720534 0.1179,1.310062 0.26201,1.310062 0.14411,0 0.26201,-0.589528 0.26201,-1.310062 z M 75.949319,87.274342 c 0,-0.873374 -0.101893,-1.179055 -0.393018,-1.179055 -0.291125,0 -0.393019,0.305681 -0.393019,1.179055 0,0.873373 0.101894,1.179055 0.393019,1.179055 0.291125,0 0.393018,-0.305682 0.393018,-1.179055 z m 18.864886,0 c 0,-0.648481 -0.117905,-1.179055 -0.262012,-1.179055 -0.144107,0 -0.262012,0.530574 -0.262012,1.179055 0,0.64848 0.117905,1.179055 0.262012,1.179055 0.144107,0 0.262012,-0.530575 0.262012,-1.179055 z m 18.864885,0 c 0,-0.648481 -0.1179,-1.179055 -0.26201,-1.179055 -0.14411,0 -0.26201,0.530574 -0.26201,1.179055 0,0.64848 0.1179,1.179055 0.26201,1.179055 0.14411,0 0.26201,-0.530575 0.26201,-1.179055 z M 75.949319,82.820133 c 0,-0.873374 -0.101893,-1.179056 -0.393018,-1.179056 -0.291125,0 -0.393019,0.305682 -0.393019,1.179056 0,0.873373 0.101894,1.179055 0.393019,1.179055 0.291125,0 0.393018,-0.305682 0.393018,-1.179055 z m 18.864886,0 c 0,-0.648481 -0.117905,-1.179056 -0.262012,-1.179056 -0.144107,0 -0.262012,0.530575 -0.262012,1.179056 0,0.64848 0.117905,1.179055 0.262012,1.179055 0.144107,0 0.262012,-0.530575 0.262012,-1.179055 z m 18.864885,0 c 0,-0.648481 -0.1179,-1.179056 -0.26201,-1.179056 -0.14411,0 -0.26201,0.530575 -0.26201,1.179056 0,0.64848 0.1179,1.179055 0.26201,1.179055 0.14411,0 0.26201,-0.530575 0.26201,-1.179055 z M 75.949319,78.213084 c 0,-0.948183 -0.09436,-1.300923 -0.327515,-1.224381 -0.350756,0.115144 -0.587786,1.579484 -0.3542,2.188201 0.312886,0.815367 0.681715,0.29391 0.681715,-0.96382 z m 18.864886,0.02183 c 0,-0.720533 -0.117905,-1.310061 -0.262012,-1.310061 -0.144107,0 -0.262012,0.589528 -0.262012,1.310061 0,0.720534 0.117905,1.310062 0.262012,1.310062 0.144107,0 0.262012,-0.589528 0.262012,-1.310062 z m 18.864885,0 c 0,-0.720533 -0.1179,-1.310061 -0.26201,-1.310061 -0.14411,0 -0.26201,0.589528 -0.26201,1.310061 0,0.720534 0.1179,1.310062 0.26201,1.310062 0.14411,0 0.26201,-0.589528 0.26201,-1.310062 z m -50.044349,-2.62012 c 0,-0.144106 -0.589528,-0.262012 -1.310061,-0.262012 -0.720534,0 -1.310062,0.117906 -1.310062,0.262012 0,0.144107 0.589528,0.262013 1.310062,0.262013 0.720533,0 1.310061,-0.117906 1.310061,-0.262013 z m 4.454209,0 c 0,-0.144106 -0.530575,-0.262012 -1.179055,-0.262012 -0.648481,0 -1.179056,0.117906 -1.179056,0.262012 0,0.144107 0.530575,0.262013 1.179056,0.262013 0.64848,0 1.179055,-0.117906 1.179055,-0.262013 z m 4.716222,0 c 0,-0.144106 -0.589528,-0.262012 -1.310062,-0.262012 -0.720534,0 -1.310061,0.117906 -1.310061,0.262012 0,0.144107 0.589527,0.262013 1.310061,0.262013 0.720534,0 1.310062,-0.117906 1.310062,-0.262013 z m 4.454209,0 c 0,-0.144106 -0.589528,-0.262012 -1.310062,-0.262012 -0.720533,0 -1.310061,0.117906 -1.310061,0.262012 0,0.144107 0.589528,0.262013 1.310061,0.262013 0.720534,0 1.310062,-0.117906 1.310062,-0.262013 z m 4.454209,0 c 0,-0.144106 -0.530575,-0.262012 -1.179055,-0.262012 -0.648481,0 -1.179056,0.117906 -1.179056,0.262012 0,0.144107 0.530575,0.262013 1.179056,0.262013 0.64848,0 1.179055,-0.117906 1.179055,-0.262013 z m 4.454209,0 c 0,-0.144106 -0.530575,-0.262012 -1.179055,-0.262012 -0.648481,0 -1.179056,0.117906 -1.179056,0.262012 0,0.144107 0.530575,0.262013 1.179056,0.262013 0.64848,0 1.179055,-0.117906 1.179055,-0.262013 z m 4.716222,0 c 0,-0.144106 -0.589528,-0.262012 -1.310062,-0.262012 -0.720534,0 -1.310061,0.117906 -1.310061,0.262012 0,0.144107 0.589527,0.262013 1.310061,0.262013 0.720534,0 1.310062,-0.117906 1.310062,-0.262013 z M 75.949319,73.649702 c 0,-0.873373 -0.101893,-1.179055 -0.393018,-1.179055 -0.291125,0 -0.393019,0.305682 -0.393019,1.179055 0,0.873374 0.101894,1.179055 0.393019,1.179055 0.291125,0 0.393018,-0.305681 0.393018,-1.179055 z m 0,-4.454209 c 0,-0.873374 -0.101893,-1.179055 -0.393018,-1.179055 -0.291125,0 -0.393019,0.305681 -0.393019,1.179055 0,0.873373 0.101894,1.179055 0.393019,1.179055 0.291125,0 0.393018,-0.305682 0.393018,-1.179055 z m 0,-4.607049 c 0,-0.948183 -0.09436,-1.300922 -0.327515,-1.224381 -0.350756,0.115144 -0.587786,1.579484 -0.3542,2.188201 0.312886,0.815367 0.681715,0.29391 0.681715,-0.96382 z m 0,-4.578846 c 0,-0.859628 -0.102667,-1.163591 -0.393018,-1.163591 -0.288885,0 -0.393019,0.300829 -0.393019,1.135386 0,0.624464 0.0754,1.210785 0.167552,1.30294 0.362313,0.362313 0.618485,-0.165673 0.618485,-1.274735 z m -12.314578,-3.25969 c 0,-0.144106 -0.589528,-0.262012 -1.310061,-0.262012 -0.720534,0 -1.310062,0.117906 -1.310062,0.262012 0,0.144107 0.589528,0.262013 1.310062,0.262013 0.720533,0 1.310061,-0.117906 1.310061,-0.262013 z m 4.454209,0 c 0,-0.144106 -0.530575,-0.262012 -1.179055,-0.262012 -0.648481,0 -1.179056,0.117906 -1.179056,0.262012 0,0.144107 0.530575,0.262013 1.179056,0.262013 0.64848,0 1.179055,-0.117906 1.179055,-0.262013 z m 4.716222,0 c 0,-0.144106 -0.589528,-0.262012 -1.310062,-0.262012 -0.720534,0 -1.310061,0.117906 -1.310061,0.262012 0,0.144107 0.589527,0.262013 1.310061,0.262013 0.720534,0 1.310062,-0.117906 1.310062,-0.262013 z m 4.454209,0 c 0,-0.144106 -0.294764,-0.262012 -0.655031,-0.262012 -0.589528,0 -0.655031,-0.104805 -0.655031,-1.048049 0,-0.756925 -0.109172,-1.048049 -0.393018,-1.048049 -0.283847,0 -0.393019,0.291124 -0.393019,1.048049 0,0.576427 -0.117905,1.048049 -0.262012,1.048049 -0.144107,0 -0.262012,0.117906 -0.262012,0.262012 0,0.144107 0.589528,0.262013 1.310061,0.262013 0.720534,0 1.310062,-0.117906 1.310062,-0.262013 z m 4.454209,0 c 0,-0.144106 -0.530575,-0.262012 -1.179055,-0.262012 -0.648481,0 -1.179056,0.117906 -1.179056,0.262012 0,0.144107 0.530575,0.262013 1.179056,0.262013 0.64848,0 1.179055,-0.117906 1.179055,-0.262013 z m 4.454209,0 c 0,-0.144106 -0.530575,-0.262012 -1.179055,-0.262012 -0.648481,0 -1.179056,0.117906 -1.179056,0.262012 0,0.144107 0.530575,0.262013 1.179056,0.262013 0.64848,0 1.179055,-0.117906 1.179055,-0.262013 z m 4.716222,0 c 0,-0.144106 -0.589528,-0.262012 -1.310062,-0.262012 -0.720534,0 -1.310061,0.117906 -1.310061,0.262012 0,0.144107 0.589527,0.262013 1.310061,0.262013 0.720534,0 1.310062,-0.117906 1.310062,-0.262013 z M 75.949319,50.963804 c 0,-1.731351 -0.620844,-1.640262 -0.734889,0.107818 -0.06307,0.966807 0.0058,1.224077 0.327515,1.224077 0.315065,0 0.407374,-0.301801 0.407374,-1.331895 z m 0,-4.432375 c 0,-0.989825 -0.09607,-1.310062 -0.393018,-1.310062 -0.288885,0 -0.393019,0.300829 -0.393019,1.135386 0,0.624464 0.0786,1.213992 0.174675,1.310061 0.426126,0.426127 0.611362,0.08211 0.611362,-1.135385 z m 0,-4.585216 c 0,-0.873374 -0.101893,-1.179055 -0.393018,-1.179055 -0.291125,0 -0.393019,0.305681 -0.393019,1.179055 0,0.873375 0.101894,1.179056 0.393019,1.179056 0.291125,0 0.393018,-0.305681 0.393018,-1.179056 z m 0,-3.537166 c 0,-0.144107 0.30459,-0.262012 0.676865,-0.262012 0.820811,0 0.730971,-0.615327 -0.10786,-0.738757 -0.404955,-0.05959 -0.569005,-0.267324 -0.569005,-0.720534 0,-0.734146 -0.472165,-0.857509 -0.68238,-0.178286 -0.07805,0.252187 -0.253669,0.667197 -0.390265,0.922246 -0.16929,0.316096 -0.142348,0.584015 0.08463,0.841574 0.385008,0.43688 0.988016,0.519743 0.988016,0.135769 z M 63.569238,37.819519 c -0.06494,-0.194829 -0.569149,-0.327515 -1.244558,-0.327515 -0.67541,0 -1.179616,0.132686 -1.244559,0.327515 -0.07795,0.233839 0.278024,0.327516 1.244559,0.327516 0.966534,0 1.322504,-0.09368 1.244558,-0.327516 z m 4.519712,-0.0655 c 0,-0.291124 -0.305681,-0.393018 -1.179055,-0.393018 -0.873374,0 -1.179056,0.101894 -1.179056,0.393018 0,0.291125 0.305682,0.393019 1.179056,0.393019 0.873374,0 1.179055,-0.101894 1.179055,-0.393019 z m 4.519712,0 c -0.09933,-0.397319 -2.228146,-0.324389 -2.363263,0.08096 -0.08604,0.258107 0.200309,0.32294 1.157221,0.262012 0.69935,-0.04453 1.242069,-0.198867 1.206042,-0.342974 z m 9.104928,0 c 0,-0.291124 -0.305681,-0.393018 -1.179055,-0.393018 -0.873375,0 -1.179056,0.101894 -1.179056,0.393018 0,0.291125 0.305681,0.393019 1.179056,0.393019 0.873374,0 1.179055,-0.101894 1.179055,-0.393019 z m 4.454209,0 c 0,-0.291124 -0.305682,-0.393018 -1.179055,-0.393018 -0.873374,0 -1.179056,0.101894 -1.179056,0.393018 0,0.291125 0.305682,0.393019 1.179056,0.393019 0.873373,0 1.179055,-0.101894 1.179055,-0.393019 z m 4.650719,0.0655 c -0.06494,-0.194829 -0.569149,-0.327515 -1.244559,-0.327515 -0.67541,0 -1.179616,0.132686 -1.244558,0.327515 -0.07795,0.233839 0.278024,0.327516 1.244558,0.327516 0.966535,0 1.322505,-0.09368 1.244559,-0.327516 z m -14.869199,-4.91273 c 0,-0.989825 -0.09607,-1.310062 -0.393018,-1.310062 -0.288885,0 -0.393019,0.300829 -0.393019,1.135387 0,0.624463 0.0786,1.21399 0.174675,1.310061 0.426126,0.426126 0.611362,0.08212 0.611362,-1.135386 z m 18.864886,0 c 0,-0.720534 -0.117905,-1.310062 -0.262012,-1.310062 -0.144107,0 -0.262012,0.589528 -0.262012,1.310062 0,0.720534 0.117905,1.310061 0.262012,1.310061 0.144107,0 0.262012,-0.589527 0.262012,-1.310061 z m 18.864885,0 c 0,-0.720534 -0.1179,-1.310062 -0.26201,-1.310062 -0.14411,0 -0.26201,0.589528 -0.26201,1.310062 0,0.720534 0.1179,1.310061 0.26201,1.310061 0.14411,0 0.26201,-0.589527 0.26201,-1.310061 z M 75.949319,28.321573 c 0,-0.873374 -0.101893,-1.179055 -0.393018,-1.179055 -0.291125,0 -0.393019,0.305681 -0.393019,1.179055 0,0.873375 0.101894,1.179056 0.393019,1.179056 0.291125,0 0.393018,-0.305681 0.393018,-1.179056 z m 18.864886,0 c 0,-0.64848 -0.117905,-1.179055 -0.262012,-1.179055 -0.144107,0 -0.262012,0.530575 -0.262012,1.179055 0,0.648481 0.117905,1.179056 0.262012,1.179056 0.144107,0 0.262012,-0.530575 0.262012,-1.179056 z m 18.864885,0 c 0,-0.64848 -0.1179,-1.179055 -0.26201,-1.179055 -0.14411,0 -0.26201,0.530575 -0.26201,1.179055 0,0.648481 0.1179,1.179056 0.26201,1.179056 0.14411,0 0.26201,-0.530575 0.26201,-1.179056 z M 75.898172,23.801861 c -0.04392,-0.684507 -0.197764,-1.244558 -0.341871,-1.244558 -0.144107,0 -0.297949,0.560051 -0.341871,1.244558 -0.06432,1.002334 0.0022,1.244559 0.341871,1.244559 0.33965,0 0.406188,-0.242225 0.341871,-1.244559 z m 18.916033,0.08097 c 0,-0.639975 -0.117905,-1.236461 -0.262012,-1.325524 -0.161486,-0.0998 -0.262012,0.346629 -0.262012,1.163592 0,0.729038 0.117905,1.325525 0.262012,1.325525 0.144107,0 0.262012,-0.523617 0.262012,-1.163593 z m 18.864885,-0.01546 c 0,-0.64848 -0.1179,-1.179055 -0.26201,-1.179055 -0.14411,0 -0.26201,0.530575 -0.26201,1.179055 0,0.648481 0.1179,1.179056 0.26201,1.179056 0.14411,0 0.26201,-0.530575 0.26201,-1.179056 z"
       id="path8222"
       inkscape:connector-curvature="0"
       transform="matrix(0.26458333,0,0,0.26458333,0,267)" />
    <path
       style="fill:#6a59cd;fill-opacity:0.78431373;stroke:none;stroke-width:0.09902827;stroke-linecap:round;stroke-linejoin:bevel;stroke-miterlimit:4;stroke-dasharray:0.59416963, 0.59416963;stroke-dashoffset:0;stroke-opacity:0.55825243;paint-order:markers stroke fill"
       d="m 58.197986,18.545014 -0.85154,-0.0821 V 9.571093 0.67927526 h 8.891817 8.891818 l 0.0821,0.85154004 c 0.04516,0.4683469 0.200009,0.8515399 0.344116,0.8515399 0.144107,0 0.298959,-0.383193 0.344116,-0.8515399 l 0.0821,-0.85154004 h 9.15383 9.15383 V 1.6117815 c 0,0.554951 0.106083,0.8669427 0.262012,0.7705737 0.144115,-0.089063 0.26202,-0.5086906 0.26202,-0.9325062 V 0.67927526 h 9.170435 9.17043 V 1.6117815 c 0,0.554951 0.10608,0.8669427 0.26201,0.7705737 0.14411,-0.089063 0.26201,-0.5086906 0.26201,-0.9325062 V 0.67927526 h 9.17043 c 8.99576,0 9.17043,0.009981 9.17043,0.52402464 0,0.2882135 0.11791,0.5240246 0.26201,0.5240246 0.14411,0 0.26202,-0.2358111 0.26202,-0.5240246 0,-0.51389857 0.17467,-0.52402464 9.03942,-0.52402464 h 9.03943 l -1e-5,8.97392144 v 8.9739213 h -9.03942 -9.03943 v -0.720534 c 1e-5,-0.396293 -0.1179,-0.720534 -0.26201,-0.720534 -0.1441,0 -0.26203,0.324241 -0.26205,0.720534 l -4e-5,0.720534 -9.17039,0.01301 c -7.3552,0.01044 -9.17039,-0.05439 -9.17039,-0.327515 0,-0.422906 -0.4438,-0.450181 -0.58194,-0.03576 -0.0742,0.222592 -2.48992,0.315617 -8.95954,0.345014 -7.5061,0.03411 -8.917097,-0.01889 -9.245467,-0.347257 -0.328416,-0.328418 -0.421863,-0.331915 -0.612823,-0.02294 -0.339017,0.548541 -17.982383,0.544883 -18.321487,-0.0038 -0.199389,-0.322619 -0.291344,-0.322674 -0.67965,-4.19e-4 -0.366141,0.30387 -1.905938,0.373331 -8.338859,0.376171 -4.339389,0.0019 -8.272991,-0.03346 -8.741338,-0.07861 z m 17.751333,-3.84808 c 0,-0.873375 -0.101893,-1.179056 -0.393018,-1.179056 -0.291125,0 -0.393019,0.305681 -0.393019,1.179056 0,0.873374 0.101894,1.179055 0.393019,1.179055 0.291125,0 0.393018,-0.305681 0.393018,-1.179055 z m 18.864886,0 c 0,-0.648481 -0.117905,-1.179056 -0.262012,-1.179056 -0.144107,0 -0.262012,0.530575 -0.262012,1.179056 0,0.64848 0.117905,1.179055 0.262012,1.179055 0.144107,0 0.262012,-0.530575 0.262012,-1.179055 z m 18.864885,0 c 0,-0.648481 -0.1179,-1.179056 -0.26201,-1.179056 -0.14411,0 -0.26201,0.530575 -0.26201,1.179056 0,0.64848 0.1179,1.179055 0.26201,1.179055 0.14411,0 0.26201,-0.530575 0.26201,-1.179055 z m 18.86489,-0.655031 c 0,-0.720534 -0.11791,-1.310062 -0.26202,-1.310062 -0.1441,0 -0.26201,0.589528 -0.26201,1.310062 0,0.720534 0.11791,1.310061 0.26201,1.310061 0.14411,0 0.26202,-0.589527 0.26202,-1.310061 z M 75.949319,10.242724 c 0,-0.8733739 -0.101893,-1.179055 -0.393018,-1.179055 -0.291125,0 -0.393019,0.3056811 -0.393019,1.179055 0,0.873375 0.101894,1.179056 0.393019,1.179056 0.291125,0 0.393018,-0.305681 0.393018,-1.179056 z m 18.864886,0 c 0,-0.6484801 -0.117905,-1.179055 -0.262012,-1.179055 -0.144107,0 -0.262012,0.5305749 -0.262012,1.179055 0,0.648481 0.117905,1.179056 0.262012,1.179056 0.144107,0 0.262012,-0.530575 0.262012,-1.179056 z m 18.864885,0 c 0,-0.6484801 -0.1179,-1.179055 -0.26201,-1.179055 -0.14411,0 -0.26201,0.5305749 -0.26201,1.179055 0,0.648481 0.1179,1.179056 0.26201,1.179056 0.14411,0 0.26201,-0.530575 0.26201,-1.179056 z m 18.86489,-0.7860365 c 0,-0.6484805 -0.11791,-1.1790554 -0.26202,-1.1790554 -0.1441,0 -0.26201,0.5305749 -0.26201,1.1790554 0,0.6484805 0.11791,1.1790555 0.26201,1.1790555 0.14411,0 0.26202,-0.530575 0.26202,-1.1790555 z M 75.949319,5.6356748 c 0,-0.9481835 -0.09436,-1.3009212 -0.327515,-1.2243806 -0.350756,0.1151449 -0.587786,1.5794848 -0.3542,2.1882004 0.312886,0.8153674 0.681715,0.2939105 0.681715,-0.9638198 z m 18.864886,0.021834 c 0,-0.7205339 -0.117905,-1.3100616 -0.262012,-1.3100616 -0.144107,0 -0.262012,0.5895277 -0.262012,1.3100616 0,0.7205338 0.117905,1.3100615 0.262012,1.3100615 0.144107,0 0.262012,-0.5895277 0.262012,-1.3100615 z m 18.864885,0 c 0,-0.7205339 -0.1179,-1.3100616 -0.26201,-1.3100616 -0.14411,0 -0.26201,0.5895277 -0.26201,1.3100616 0,0.7205338 0.1179,1.3100615 0.26201,1.3100615 0.14411,0 0.26201,-0.5895277 0.26201,-1.3100615 z m 18.86489,-0.786037 c 0,-0.7205338 -0.11791,-1.3100615 -0.26202,-1.3100615 -0.1441,0 -0.26201,0.5895277 -0.26201,1.3100615 0,0.7205339 0.11791,1.3100616 0.26201,1.3100616 0.14411,0 0.26202,-0.5895277 0.26202,-1.3100616 z"
       id="path8224"
       inkscape:connector-curvature="0"
       transform="matrix(0.26458333,0,0,0.26458333,0,267)" />
    <path
       style="fill:#6a59cd;fill-opacity:0.78431373;stroke:none;stroke-width:0.09902827;stroke-linecap:round;stroke-linejoin:bevel;stroke-miterlimit:4;stroke-dasharray:0.59416963, 0.59416963;stroke-dashoffset:0;stroke-opacity:0.55825243;paint-order:markers stroke fill"
       d="m 132.54398,28.125064 -1e-5,-8.973921 h 9.03943 9.03942 v 8.973921 l 1e-5,8.973922 h -9.03943 -9.03942 z"
       id="path8226"
       inkscape:connector-curvature="0"
       transform="matrix(0.26458333,0,0,0.26458333,0,267)" />
    <path
       style="fill:#6a59cd;fill-opacity:0.78431373;stroke:none;stroke-width:0.09902827;stroke-linecap:round;stroke-linejoin:bevel;stroke-miterlimit:4;stroke-dasharray:0.59416963, 0.59416963;stroke-dashoffset:0;stroke-opacity:0.55825243;paint-order:markers stroke fill"
       d="m 94.677637,66.182323 c -0.0044,-7.246236 0.06433,-9.170402 0.327516,-9.170402 0.415527,0 0.439642,-0.444835 0.03149,-0.580885 -0.433415,-0.144472 -0.513777,-17.693219 -0.08299,-18.124 0.22009,-0.220091 2.517973,-0.29388 8.270547,-0.265583 4.38118,0.02155 8.34898,0.05412 8.81732,0.07238 l 0.85154,0.0332 v 9.17043 9.170431 h -0.91704 c -0.50437,0 -0.91704,0.117906 -0.91704,0.262012 0,0.144107 0.41267,0.262013 0.91704,0.262013 h 0.91704 v 9.17043 9.170431 l -9.10492,-2.9e-5 -9.104935,-2.9e-5 z m 5.114802,-9.432415 c 0,-0.144106 -0.530575,-0.262012 -1.179055,-0.262012 -0.648481,0 -1.179056,0.117906 -1.179056,0.262012 0,0.144107 0.530575,0.262013 1.179056,0.262013 0.64848,0 1.179055,-0.117906 1.179055,-0.262013 z m 4.716221,0 c 0,-0.144106 -0.58953,-0.262012 -1.31006,-0.262012 -0.72053,0 -1.31006,0.117906 -1.31006,0.262012 0,0.144107 0.58953,0.262013 1.31006,0.262013 0.72053,0 1.31006,-0.117906 1.31006,-0.262013 z m 4.45421,0 c 0,-0.144106 -0.58953,-0.262012 -1.31006,-0.262012 -0.72054,0 -1.31006,0.117906 -1.31006,0.262012 0,0.144107 0.58952,0.262013 1.31006,0.262013 0.72053,0 1.31006,-0.117906 1.31006,-0.262013 z"
       id="path8228"
       inkscape:connector-curvature="0"
       transform="matrix(0.26458333,0,0,0.26458333,0,267)" />
    <g
       id="g8160"
       transform="translate(4.9634374,19.894599)">
      <path
         sodipodi:nodetypes="cccccccc"
         inkscape:connector-curvature="0"
         id="path5628"
         d="m -0.69938124,253.1832 14.50757424,4.57359 c 0,0 0.898351,0.29701 -4.6594876,-0.68102 4.2535316,1.70825 13.1517296,3.49278 15.8472966,3.94834 -3.693283,-1.76987 -7.215269,-3.84531 -9.653224,-5.61143 0.08067,-0.0428 0.512961,1.25852 -0.306215,1.69272 L 2.9860143,251.22922 c 0.7435935,0.65952 2.128936,1.32175 -3.68556108,1.95397"
         style="fill:none;stroke:#000000;stroke-width:0.1027042px;stroke-linecap:butt;stroke-linejoin:miter;stroke-opacity:1" />
      <g
         transform="translate(-0.06932409)"
         id="g8155">
        <path
           style="fill:#ffa400;fill-opacity:0.78431373;stroke:none;stroke-width:0.46048146;stroke-linecap:round;stroke-linejoin:bevel;stroke-miterlimit:4;stroke-dasharray:1.84192587, 1.84192587;stroke-dashoffset:0;stroke-opacity:0.55825243;paint-order:markers stroke fill"
           d="m 82.892645,-25.117896 c -14.234856,-2.912148 -25.927781,-5.699438 -35.185273,-8.387256 -5.126019,-1.488288 -8.795331,-2.706566 -8.251973,-2.739805 0.175347,-0.01073 2.533457,0.326976 5.240246,0.750449 7.252671,1.134669 7.934579,1.198808 7.934579,0.746307 0,-0.2717 -6.622266,-2.466878 -23.515604,-7.795054 -12.933582,-4.079266 -24.9894237,-7.893679 -26.7907583,-8.476473 l -3.27515377,-1.059627 2.62012307,-0.340178 c 6.2487996,-0.811298 10.699445,-1.946782 11.84356,-3.021622 0.65769,-0.617868 0.791604,-1.737179 0.274509,-2.294474 -0.265164,-0.285779 -0.252694,-0.326063 0.0655,-0.211605 0.21616,0.07775 9.983932,4.817624 21.706161,10.533043 20.168211,9.833437 21.3449,10.370861 21.904365,10.004286 0.884131,-0.579305 1.455591,-2.022441 1.455591,-3.675877 0,-0.806835 0.05596,-1.466973 0.124361,-1.466973 0.0684,0 1.394836,0.870058 2.947638,1.933462 6.213462,4.25516 14.446031,9.10159 24.046274,14.155794 3.170349,1.669084 5.587412,3.028524 5.371252,3.020981 -0.21616,-0.0075 -4.04809,-0.761463 -8.5154,-1.675378 z"
           id="path8152"
           inkscape:connector-curvature="0"
           transform="matrix(0.26458333,0,0,0.26458333,0,267)" />
      </g>
    </g>
    <path
       style="fill:#6a59cd;fill-opacity:0.78431373;stroke:none;stroke-width:0.09902827;stroke-linecap:round;stroke-linejoin:bevel;stroke-miterlimit:4;stroke-dasharray:0.59416963, 0.59416963;stroke-dashoffset:0;stroke-opacity:0.55825243;paint-order:markers stroke fill"
       d="m 132.54398,84.916231 v -8.777412 h 9.03942 9.03943 v 8.777412 8.777412 h -9.03943 -9.03942 z"
       id="path8230"
       inkscape:connector-curvature="0"
       transform="matrix(0.26458333,0,0,0.26458333,0,267)" />
  </g>
</svg>
