<?xml version="1.0" encoding="UTF-8" standalone="no"?>
<!-- Created with Inkscape (http://www.inkscape.org/) -->

<svg
   xmlns:dc="http://purl.org/dc/elements/1.1/"
   xmlns:cc="http://creativecommons.org/ns#"
   xmlns:rdf="http://www.w3.org/1999/02/22-rdf-syntax-ns#"
   xmlns:svg="http://www.w3.org/2000/svg"
   xmlns="http://www.w3.org/2000/svg"
   xmlns:sodipodi="http://sodipodi.sourceforge.net/DTD/sodipodi-0.dtd"
   xmlns:inkscape="http://www.inkscape.org/namespaces/inkscape"
   width="80mm"
   height="20mm"
   viewBox="0 0 80 20"
   version="1.1"
   id="svg8"
   inkscape:version="0.92.3 (2405546, 2018-03-11)"
   sodipodi:docname="stream_of_struct.svg">
  <defs
     id="defs2" />
  <sodipodi:namedview
     id="base"
     pagecolor="#ffffff"
     bordercolor="#666666"
     borderopacity="1.0"
     inkscape:pageopacity="0.0"
     inkscape:pageshadow="2"
     inkscape:zoom="2"
     inkscape:cx="218.35757"
     inkscape:cy="23.814823"
     inkscape:document-units="mm"
     inkscape:current-layer="layer1"
     showgrid="true"
     inkscape:window-width="1366"
     inkscape:window-height="768"
     inkscape:window-x="0"
     inkscape:window-y="0"
     inkscape:window-maximized="0"
     inkscape:snap-bbox="false">
    <inkscape:grid
       type="xygrid"
       id="grid10"
       units="mm"
       spacingx="0.99999999"
       spacingy="0.99999999" />
  </sodipodi:namedview>
  <metadata
     id="metadata5">
    <rdf:RDF>
      <cc:Work
         rdf:about="">
        <dc:format>image/svg+xml</dc:format>
        <dc:type
           rdf:resource="http://purl.org/dc/dcmitype/StillImage" />
        <dc:title></dc:title>
      </cc:Work>
    </rdf:RDF>
  </metadata>
  <g
     inkscape:label="Layer 1"
     inkscape:groupmode="layer"
     id="layer1"
     transform="translate(0,-277)">
    <path
       style="fill:#6a5acd;fill-opacity:0.78431373;stroke:none;stroke-width:0.03705414;stroke-linecap:round;stroke-linejoin:bevel;stroke-miterlimit:4;stroke-dasharray:none;stroke-dashoffset:0;stroke-opacity:0.55825243;paint-order:markers stroke fill"
       d="m -10,287 v -2.35294 h 2.3039178 2.3039182 V 287 289.35294 H -7.6960822 -10 Z"
       id="path7146"
       inkscape:connector-curvature="0" />
    <path
       style="fill:#ffa500;fill-opacity:0.78431373;stroke:none;stroke-width:0.03705414;stroke-linecap:round;stroke-linejoin:bevel;stroke-miterlimit:4;stroke-dasharray:none;stroke-dashoffset:0;stroke-opacity:0.55825243;paint-order:markers stroke fill"
       d="m -10,282 v -2.35294 h 2.3039178 2.303918 V 282 284.35294 H -7.6960822 -10 Z"
       id="path7717"
       inkscape:connector-curvature="0" />
    <path
       style="fill:none;stroke:#000000;stroke-width:0.23717083;stroke-linecap:butt;stroke-linejoin:miter;stroke-miterlimit:4;stroke-dasharray:none;stroke-opacity:1"
       d="m 4.9999999,277 v 20 H 80.000002 v -20 z"
       id="path1799"
       inkscape:connector-curvature="0" />
    <path
       style="fill:#ffa500;fill-opacity:0.78431373;stroke:#000000;stroke-width:0.59416968;stroke-linecap:round;stroke-linejoin:bevel;stroke-miterlimit:4;stroke-dasharray:none;paint-order:markers stroke fill"
       d="m 19.443242,47.346395 v -8.646406 h 8.908418 8.908419 v 8.646406 8.646406 H 28.35166 19.443242 Z"
       id="path1996"
       inkscape:connector-curvature="0"
       transform="matrix(0.26458333,0,0,0.26458333,0,267)" />
    <path
       style="fill:#ffa500;fill-opacity:0.78431373;stroke:#000000;stroke-width:0.59416968;stroke-linecap:round;stroke-linejoin:bevel;stroke-miterlimit:4;stroke-dasharray:none;paint-order:markers stroke fill"
       d="m 19.443242,66.211281 v -8.646406 h 8.908418 8.908419 v 8.646406 8.646406 H 28.35166 19.443242 Z"
       id="path1998"
       inkscape:connector-curvature="0"
       transform="matrix(0.26458333,0,0,0.26458333,0,267)" />
    <path
       style="fill:#ffa500;fill-opacity:0.78431373;stroke:#000000;stroke-width:0.59416968;stroke-linecap:round;stroke-linejoin:bevel;stroke-miterlimit:4;stroke-dasharray:none;paint-order:markers stroke fill"
       d="m 19.443242,85.076167 v -8.646406 h 8.908418 8.908419 v 8.646406 8.646406 H 28.35166 19.443242 Z"
       id="path2000"
       inkscape:connector-curvature="0"
       transform="matrix(0.26458333,0,0,0.26458333,0,267)" />
    <path
       style="fill:#ffa500;fill-opacity:0.78431373;stroke:#000000;stroke-width:0.59416968;stroke-linecap:round;stroke-linejoin:bevel;stroke-miterlimit:4;stroke-dasharray:none;paint-order:markers stroke fill"
       d="m 19.443242,103.94105 v -8.646403 h 8.908418 8.908419 v 8.646403 8.64641 H 28.35166 19.443242 Z"
       id="path2002"
       inkscape:connector-curvature="0"
       transform="matrix(0.26458333,0,0,0.26458333,0,267)" />
    <path
       style="fill:#ffa500;fill-opacity:0.78431373;stroke:#000000;stroke-width:0.59416968;stroke-linecap:round;stroke-linejoin:bevel;stroke-miterlimit:4;stroke-dasharray:none;paint-order:markers stroke fill"
       d="m 132.63256,47.346395 v -8.646406 h 18.60287 18.60287 v 8.646406 8.646406 h -18.60287 -18.60287 z"
       id="path2008"
       inkscape:connector-curvature="0"
       transform="matrix(0.26458333,0,0,0.26458333,0,267)" />
    <path
       style="fill:#ffa500;fill-opacity:0.78431373;stroke:#000000;stroke-width:0.59416968;stroke-linecap:round;stroke-linejoin:bevel;stroke-miterlimit:4;stroke-dasharray:none;paint-order:markers stroke fill"
       d="m 132.63256,66.211281 v -8.646406 h 18.60287 18.60287 v 8.646406 8.646406 h -18.60287 -18.60287 z"
       id="path2010"
       inkscape:connector-curvature="0"
       transform="matrix(0.26458333,0,0,0.26458333,0,267)" />
    <path
       style="fill:#ffa500;fill-opacity:0.78431373;stroke:#000000;stroke-width:0.59416968;stroke-linecap:round;stroke-linejoin:bevel;stroke-miterlimit:4;stroke-dasharray:none;paint-order:markers stroke fill"
       d="m 132.63256,85.076167 v -8.646406 h 18.60287 18.60287 v 8.646406 8.646406 h -18.60287 -18.60287 z"
       id="path2014"
       inkscape:connector-curvature="0"
       transform="matrix(0.26458333,0,0,0.26458333,0,267)" />
    <path
       style="fill:#ffa500;fill-opacity:0.78431373;stroke:#000000;stroke-width:0.59416968;stroke-linecap:round;stroke-linejoin:bevel;stroke-miterlimit:4;stroke-dasharray:none;paint-order:markers stroke fill"
       d="m 132.63256,103.94105 v -8.646403 h 18.60287 18.60287 v 8.646403 8.64641 h -18.60287 -18.60287 z"
       id="path2016"
       inkscape:connector-curvature="0"
       transform="matrix(0.26458333,0,0,0.26458333,0,267)" />
    <path
       style="fill:#ffa500;fill-opacity:0.78431373;stroke:#000000;stroke-width:0.59416968;stroke-linecap:round;stroke-linejoin:bevel;stroke-miterlimit:4;stroke-dasharray:none;paint-order:markers stroke fill"
       d="m 208.0921,47.346395 v -8.646406 h 46.63819 46.63819 v 8.646406 8.646406 H 254.73029 208.0921 Z"
       id="path2022"
       inkscape:connector-curvature="0"
       transform="matrix(0.26458333,0,0,0.26458333,0,267)" />
    <path
       style="fill:#ffa500;fill-opacity:0.78431373;stroke:#000000;stroke-width:0.59416968;stroke-linecap:round;stroke-linejoin:bevel;stroke-miterlimit:4;stroke-dasharray:none;paint-order:markers stroke fill"
       d="m 208.0921,66.211281 v -8.646406 h 46.63819 46.63819 v 8.646406 8.646406 H 254.73029 208.0921 Z"
       id="path2024"
       inkscape:connector-curvature="0"
       transform="matrix(0.26458333,0,0,0.26458333,0,267)" />
    <path
       style="fill:#ffa500;fill-opacity:0.78431373;stroke:#000000;stroke-width:0.59416968;stroke-linecap:round;stroke-linejoin:bevel;stroke-miterlimit:4;stroke-dasharray:none;paint-order:markers stroke fill"
       d="m 208.0921,85.076167 v -8.646406 h 46.63819 46.63819 v 8.646406 8.646406 H 254.73029 208.0921 Z"
       id="path2026"
       inkscape:connector-curvature="0"
       transform="matrix(0.26458333,0,0,0.26458333,0,267)" />
    <g
       id="g2067">
      <path
         transform="matrix(0.26458333,0,0,0.26458333,0,267)"
         inkscape:connector-curvature="0"
         id="path2064"
         d="m 208.0921,103.94105 v -8.646403 h 46.63819 46.63819 v 8.646403 8.64641 H 254.73029 208.0921 Z"
         style="fill:#ffa400;fill-opacity:0.78431373;stroke:#000000;stroke-width:0.59416968;stroke-linecap:round;stroke-linejoin:bevel;stroke-miterlimit:4;stroke-dasharray:none;paint-order:markers stroke fill" />
    </g>
    <path
       style="fill:#6a59cd;fill-opacity:0.78431373;stroke:#000000;stroke-width:0.59416968;stroke-linecap:round;stroke-linejoin:bevel;stroke-miterlimit:4;stroke-dasharray:none;paint-order:markers stroke fill"
       d="m 170.36233,47.346395 v -8.646406 h 18.60287 18.60288 v 8.646406 8.646406 H 188.9652 170.36233 Z"
       id="path2071"
       inkscape:connector-curvature="0"
       transform="matrix(0.26458333,0,0,0.26458333,0,267)" />
    <path
       style="fill:#6a59cd;fill-opacity:0.78431373;stroke:#000000;stroke-width:0.59416968;stroke-linecap:round;stroke-linejoin:bevel;stroke-miterlimit:4;stroke-dasharray:none;paint-order:markers stroke fill"
       d="m 170.36233,85.076167 v -8.646406 h 18.60287 18.60288 v 8.646406 8.646406 H 188.9652 170.36233 Z"
       id="path2073"
       inkscape:connector-curvature="0"
       transform="matrix(0.26458333,0,0,0.26458333,0,267)" />
    <path
       style="fill:#6a59cd;fill-opacity:0.78431373;stroke:#000000;stroke-width:0.59416968;stroke-linecap:round;stroke-linejoin:bevel;stroke-miterlimit:4;stroke-dasharray:none;paint-order:markers stroke fill"
       d="m 170.36233,66.211281 v -8.646406 h 18.60287 18.60288 v 8.646406 8.646406 H 188.9652 170.36233 Z"
       id="path2077"
       inkscape:connector-curvature="0"
       transform="matrix(0.26458333,0,0,0.26458333,0,267)" />
    <path
       style="fill:#6a59cd;fill-opacity:0.78431373;stroke:#000000;stroke-width:0.59416968;stroke-linecap:round;stroke-linejoin:bevel;stroke-miterlimit:4;stroke-dasharray:none;paint-order:markers stroke fill"
       d="m 75.078521,113.76653 c 41.695629,-0.074 110.080839,-0.074 151.967139,0 41.8863,0.074 7.7717,0.13454 -75.81023,0.13454 -83.581924,0 -117.852533,-0.0605 -76.156909,-0.13454 z"
       id="path2079"
       inkscape:connector-curvature="0"
       transform="matrix(0.26458333,0,0,0.26458333,0,267)" />
    <path
       style="fill:#6a59cd;fill-opacity:0.78431373;stroke:#000000;stroke-width:0.59416968;stroke-linecap:round;stroke-linejoin:bevel;stroke-miterlimit:4;stroke-dasharray:none;paint-order:markers stroke fill"
       d="m 170.36233,103.94105 v -8.646403 h 18.60287 18.60288 v 8.646403 8.64641 H 188.9652 170.36233 Z"
       id="path2081"
       inkscape:connector-curvature="0"
       transform="matrix(0.26458333,0,0,0.26458333,0,267)" />
    <path
       style="fill:#6a59cd;fill-opacity:0.78431373;stroke:#000000;stroke-width:0.59416968;stroke-linecap:round;stroke-linejoin:bevel;stroke-miterlimit:4;stroke-dasharray:none;paint-order:markers stroke fill"
       d="m 38.308128,47.346395 v -8.646406 h 37.205747 37.205745 v 8.646406 8.646406 H 75.513875 38.308128 Z"
       id="path2089"
       inkscape:connector-curvature="0"
       transform="matrix(0.26458333,0,0,0.26458333,0,267)" />
    <path
       style="fill:#6a59cd;fill-opacity:0.78431373;stroke:#000000;stroke-width:0.59416968;stroke-linecap:round;stroke-linejoin:bevel;stroke-miterlimit:4;stroke-dasharray:none;paint-order:markers stroke fill"
       d="m 113.76767,47.346395 v -8.646406 h 9.17043 9.17043 v 8.646406 8.646406 h -9.17043 -9.17043 z"
       id="path2093"
       inkscape:connector-curvature="0"
       transform="matrix(0.26458333,0,0,0.26458333,0,267)" />
    <path
       style="fill:#6a59cd;fill-opacity:0.78431373;stroke:#000000;stroke-width:0.59416968;stroke-linecap:round;stroke-linejoin:bevel;stroke-miterlimit:4;stroke-dasharray:none;paint-order:markers stroke fill"
       d="m 113.76767,66.211281 v -8.646406 h 9.17043 9.17043 v 8.646406 8.646406 h -9.17043 -9.17043 z"
       id="path2095"
       inkscape:connector-curvature="0"
       transform="matrix(0.26458333,0,0,0.26458333,0,267)" />
    <path
       style="fill:#6a59cd;fill-opacity:0.78431373;stroke:#000000;stroke-width:0.59416968;stroke-linecap:round;stroke-linejoin:bevel;stroke-miterlimit:4;stroke-dasharray:none;paint-order:markers stroke fill"
       d="m 38.308128,66.211281 v -8.646406 h 37.205747 37.205745 v 8.646406 8.646406 H 75.513875 38.308128 Z"
       id="path2097"
       inkscape:connector-curvature="0"
       transform="matrix(0.26458333,0,0,0.26458333,0,267)" />
    <path
       style="fill:#6a59cd;fill-opacity:0.78431373;stroke:#000000;stroke-width:0.59416968;stroke-linecap:round;stroke-linejoin:bevel;stroke-miterlimit:4;stroke-dasharray:none;paint-order:markers stroke fill"
       d="m 38.308128,85.076167 v -8.646406 h 37.205747 37.205745 v 8.646406 8.646406 H 75.513875 38.308128 Z"
       id="path2099"
       inkscape:connector-curvature="0"
       transform="matrix(0.26458333,0,0,0.26458333,0,267)" />
    <path
       style="fill:#6a59cd;fill-opacity:0.78431373;stroke:#000000;stroke-width:0.59416968;stroke-linecap:round;stroke-linejoin:bevel;stroke-miterlimit:4;stroke-dasharray:none;paint-order:markers stroke fill"
       d="m 113.76767,85.076167 v -8.646406 h 9.17043 9.17043 v 8.646406 8.646406 h -9.17043 -9.17043 z"
       id="path2101"
       inkscape:connector-curvature="0"
       transform="matrix(0.26458333,0,0,0.26458333,0,267)" />
    <path
       style="fill:#6a59cd;fill-opacity:0.78431373;stroke:#000000;stroke-width:0.59416968;stroke-linecap:round;stroke-linejoin:bevel;stroke-miterlimit:4;stroke-dasharray:none;paint-order:markers stroke fill"
       d="m 113.76767,103.94105 v -8.646403 h 9.17043 9.17043 v 8.646403 8.64641 h -9.17043 -9.17043 z"
       id="path2103"
       inkscape:connector-curvature="0"
       transform="matrix(0.26458333,0,0,0.26458333,0,267)" />
    <path
       style="fill:#6a59cd;fill-opacity:0.78431373;stroke:#000000;stroke-width:0.59416968;stroke-linecap:round;stroke-linejoin:bevel;stroke-miterlimit:4;stroke-dasharray:none;paint-order:markers stroke fill"
       d="m 38.308128,103.94105 v -8.646403 h 37.205747 37.205745 v 8.646403 8.64641 H 75.513875 38.308128 Z"
       id="path2105"
       inkscape:connector-curvature="0"
       transform="matrix(0.26458333,0,0,0.26458333,0,267)" />
    <text
       xml:space="preserve"
       style="font-size:2.11666656px;line-height:1.25;font-family:sans-serif;letter-spacing:0px;word-spacing:0px;stroke-width:0.26458332"
       x="0.99999994"
       y="272"
       id="text2124"><tspan
         sodipodi:role="line"
         id="tspan2122"
         x="0.99999994"
         y="273.87274"
         style="font-size:2.11666656px;stroke-width:0.26458332" /></text>
  </g>
</svg>
